<svg width="202" height="202" fill="none" xmlns="http://www.w3.org/2000/svg"><defs><linearGradient x1="-101" y1="101" x2="101" y2="101" id="a" gradientUnits="userSpaceOnUse"><stop stop-color="#5D0202" stop-opacity="0"/><stop offset="1" stop-color="#5D0202" stop-opacity=".498"/></linearGradient></defs><g opacity=".203" transform="matrix(0 -1 -1 0 101 101)"><circle r="101" fill="url(#a)"/><circle r="101"/></g><path d="M173.22 39.48c-.99-.05-1.99.09-2.94.4-1.4.62-2.76 3.89-3.73 9.03-.85 4.45-1.21 8.98-1.09 13.51.03.81.44 1.57 1.12 2.02 4.36 3.11 19.14-.69 20.7-1.11.75-1.42 7.56-14.8 4.21-18.4-2.95-3.19-12.85-5.45-18.27-5.45Z" fill="#FFF"/><path d="M172.391 66.272c-2.557 0-4.822-.354-6.179-1.336a3.146 3.146 0 0 1-1.388-2.485c-.367-7.01 1.581-21.611 5.209-23.164 3.628-1.554 18.046 1.056 21.929 5.207 3.865 4.131-3.768 18.506-4.164 19.252l-.005.01a.322.322 0 0 1-.199.161c-.479.112-8.774 2.355-15.203 2.355Zm-2.103-26.389a8.062 8.062 0 0 1 2.937-.398c5.42 0 15.315 2.262 18.265 5.45 3.354 3.597-3.454 16.975-4.201 18.404-1.568.417-16.348 4.213-20.704 1.106a2.535 2.535 0 0 1-1.12-2.019 62.773 62.773 0 0 1 1.089-13.508c.971-5.139 2.334-8.414 3.734-9.035Z" clip-rule="evenodd" fill="#231F20" fill-rule="evenodd"/><path d="M131.43 147.08c10.38-4.57 17.41-14.46 18.29-25.75l-10.3-11.05-14.15 27.29 6.16 9.51Z" fill="#FFF"/><path d="M131.43 147.4c-.15 0-.28-.11-.3-.26-.03-.15.05-.3.19-.36a30.667 30.667 0 0 0 18.08-25.34l-9.9-10.61-13.94 26.89a.34.34 0 0 1-.42.11.335.335 0 0 1-.15-.41l14.15-27.29c.05-.09.14-.16.25-.17.1-.02.2.02.28.09l10.3 11.06c.06.07.09.16.08.25a31.334 31.334 0 0 1-18.5 26.02c-.04.02-.08.03-.12.02Z" fill="#231F20"/><path d="m163.36 163.96 31.15-.6-.43-39.18-45.74 1.65-6.37 38.13h21.39Z" fill="#231F20"/><path d="M163.368 164.273h-21.394a.306.306 0 0 1-.237-.112.284.284 0 0 1-.068-.248l6.366-38.127a.305.305 0 0 1 .292-.261l45.745-1.647a.343.343 0 0 1 .224.087.3.3 0 0 1 .1.224l.429 39.146a.313.313 0 0 1-.305.317l-31.152.621Zm-.006-.621h-21.021l6.26-37.518 45.178-1.628.424 38.524-30.841.622Z" clip-rule="evenodd" fill="#231F20" fill-rule="evenodd"/><path d="M200.51 80.73c-2.78-3.79-9.45-5.78-13.95-6.5-4.32-.68-8.65 0-13-.37-3.97-.23-7.96.16-11.82 1.16-14.49 4-27.97 24.95-27.97 24.95l14.78.78s-2.15 15.43-8.31 49.23c25.66.92 55.53 3.46 55.53 3.46s.13-7.07.46-14.04c2.31-2.15 2.23-5.59 2.65-7.59.55-2.56-.56-30.44-.56-30.44l3.37-1.24s.04-17.78-1.18-19.4Z" fill="#E7816B"/><path d="m166 80.33-11.26 73.94 13.44 1.35 15.29-75.44-17.47.15Z" fill="#231F20"/><path d="M168.185 155.934h-.031l-13.448-1.348a.332.332 0 0 1-.218-.118.298.298 0 0 1-.056-.236l11.257-73.942a.31.31 0 0 1 .305-.26l17.468-.156a.3.3 0 0 1 .243.112.312.312 0 0 1 .068.26L168.49 155.68a.312.312 0 0 1-.305.254Zm-.231-.646-12.838-1.286 11.171-73.358 16.801-.149-15.134 74.793Z" clip-rule="evenodd" fill="#231F20" fill-rule="evenodd"/><path d="m167.99 71.06-1.93 9.27s2.06 6.16 8.3 5.51c3.73-.42 7.08-2.5 9.11-5.66l2.22-17.04s-4.17-2.99-1.54-12.52a30.373 30.373 0 0 1-16 .07s-4.16 10.17-4.06 14.91c.11 4.74 3.9 5.46 3.9 5.46Z" fill="#FFF"/><path d="M173.462 86.218c-5.701 0-7.679-5.717-7.704-5.779a.3.3 0 0 1 0-.168l1.867-8.966c-.959-.298-3.734-1.516-3.846-5.654-.1-4.785 3.908-14.658 4.082-15.074a.325.325 0 0 1 .38-.193 30.26 30.26 0 0 0 15.812-.068.317.317 0 0 1 .411.385c-2.533 9.22 1.381 12.16 1.419 12.185a.31.31 0 0 1 .13.304l-2.215 17.038a.297.297 0 0 1-.044.118 12.663 12.663 0 0 1-9.334 5.816 8.095 8.095 0 0 1-.958.056Zm.871-.69c-5.607.578-7.667-4.48-7.934-5.213l1.91-9.153a.326.326 0 0 0-.049-.248.307.307 0 0 0-.206-.13c-.149-.032-3.547-.684-3.64-5.127-.085-4.136 3.159-12.547 3.886-14.432l.046-.12a31.497 31.497 0 0 0 15.346 0c-2.109 8.295.909 11.576 1.655 12.197l-2.184 16.777a12.292 12.292 0 0 1-8.83 5.45Z" clip-rule="evenodd" fill="#231F20" fill-rule="evenodd"/><path d="M182.18 62.37c.32-.8.89-1.48 1.63-1.93.7-.39 1.46-.65 2.25-.78.43-.11.88-.14 1.31-.06.3.09.57.24.82.43.6.41 1.04 1.02 1.24 1.72.09.58.04 1.18-.15 1.74-.16.62-.4 1.22-.72 1.77a4.81 4.81 0 0 1-2.99 2.22c-1.25.31-2.58.1-3.68-.57l.29-4.54Z" fill="#FFF"/><path d="M184.43 67.93c-.95 0-1.88-.26-2.7-.75a.32.32 0 0 1-.1-.44.31.31 0 0 1 .2-.15c.08-.02.17 0 .24.04 1.03.62 2.26.81 3.44.54a4.584 4.584 0 0 0 2.8-2.07c.3-.53.53-1.1.67-1.7.18-.5.23-1.05.15-1.58-.18-.62-.58-1.17-1.12-1.53-.21-.17-.45-.3-.71-.38-.39-.06-.78-.04-1.16.06-.77.13-1.51.38-2.19.74-.68.42-1.2 1.04-1.49 1.78-.07.17-.26.26-.43.19a.333.333 0 0 1-.2-.43c.35-.86.96-1.59 1.76-2.08.75-.41 1.57-.68 2.41-.81.48-.13.97-.15 1.45-.05.34.1.66.26.93.48.67.45 1.16 1.13 1.38 1.91.09.63.04 1.26-.16 1.86-.16.66-.42 1.28-.75 1.87a5.21 5.21 0 0 1-3.19 2.37c-.4.09-.81.14-1.23.13ZM167.25 75.7c2.22.56 4.58.13 6.46-1.18 3.01-2.21 2.98-3.73 2.98-3.73s-4.61 1.78-8.47.45l-.97 4.46Z" fill="#231F20"/><path d="M169.224 76.257a7.932 7.932 0 0 1-2.06-.254.304.304 0 0 1-.211-.36l.97-4.468a.3.3 0 0 1 .15-.205.293.293 0 0 1 .249 0c3.702 1.242 8.214-.429 8.257-.448a.3.3 0 0 1 .28 0 .29.29 0 0 1 .137.249c0 .068 0 1.709-3.111 3.983a7.831 7.831 0 0 1-4.661 1.503Zm4.306-1.982a7.639 7.639 0 0 1-5.912 1.2l.834-3.828c3.087.92 6.491.043 7.798-.373-.231.584-.884 1.653-2.72 3.001Z" clip-rule="evenodd" fill="#231F20" fill-rule="evenodd"/><path d="M173.56 57.2s-3.95 4.15-3.34 5.1c.61.94 2.8.79 2.8.79l.54-5.89Z" fill="#FFF"/><path d="M172.55 63.38c-.74 0-2.07-.11-2.59-.92-.67-1.03 2.13-4.18 3.37-5.48a.36.36 0 0 1 .22-.09c.09 0 .17.04.22.09.06.06.1.14.1.22 0 .08-.04.16-.1.22-2.01 2.12-3.56 4.35-3.3 4.72.41.62 1.99.67 2.49.62.17-.01.32.11.34.28a.324.324 0 0 1-.29.34c-.03-.01-.21 0-.46 0Z" fill="#231F20"/><ellipse rx="1.112" ry=".79" transform="rotate(-68.08 132.37 -103.442)" fill="#231F20"/><ellipse rx="1.112" ry=".79" transform="rotate(-68.08 127.28 -98.043)" fill="#231F20"/><path d="M173.01 68.63c-.32 0-.64-.04-.95-.12-4.3-1.04-4.2-6.06-4.2-6.11.01-.17.15-.3.32-.3.08.01.16.04.22.1.05.06.08.14.08.22 0 .19-.08 4.57 3.73 5.49 3.82.92 5.7-5.1 5.72-5.17.03-.11.12-.2.23-.23.11-.03.23.01.31.1.08.09.1.21.05.32-.08.25-1.83 5.7-5.51 5.7Z" fill="#231F20"/><path d="M36.99 82.98 60.26 109l32.54 11.37-4.16 8.59s-21.12-3.19-29.44-4.12c-8.32-.93-18.84-13.41-18.84-13.41l-3.37-28.45Z" fill="#FFF"/><path d="M88.65 129.266h-.044c-.212 0-21.22-3.194-29.44-4.12-8.345-.938-18.607-12.999-19.036-13.515a.279.279 0 0 1-.075-.161l-3.367-28.49a.323.323 0 0 1 .18-.316.311.311 0 0 1 .362.074l23.211 25.967 32.471 11.34a.31.31 0 0 1 .18.174.302.302 0 0 1 0 .254l-4.162 8.612a.305.305 0 0 1-.28.181Zm-29.416-4.741c-7.779-.877-17.704-12.223-18.57-13.229l-3.241-27.383 22.62 25.283c.035.04.08.07.13.087l32.217 11.252-3.908 8.078c-2.322-.36-21.47-3.212-29.248-4.088Z" clip-rule="evenodd" fill="#231F20" fill-rule="evenodd"/><path d="M48.29 70.07c-.32-2.18-1.2-4.24-1.87-6.33-1.68-5.08-1.92-10.32-3.68-15.37-2.26-6.51-6.6-11.24-14.18-10.98a7.73 7.73 0 0 0-7.14 4.76c-3.59-1.97-8.38 2.05-8.55 5.73-.24 5.42.1 10.05-2.26 15.19-1.79 3.9-4.57 7.55-4.8 11.84-.23 4.29 2.2 8.3 5.69 10.66 3.48 2.37 7.88 3.16 12.08 2.85 4.2-.31 8.26-1.65 12.16-3.26 1.92-.74 3.77-1.67 5.5-2.77 3.97-2.65 7.81-7.27 7.05-12.32Z" fill="#FFF"/><path d="M21.853 88.796a18.69 18.69 0 0 1-10.523-2.963c-3.734-2.554-6.049-6.835-5.825-10.93.168-3.163 1.7-6.002 3.18-8.749.567-1.05 1.152-2.131 1.65-3.212 1.916-4.194 2.022-7.923 2.14-12.272 0-.913.05-1.864.093-2.802.1-2.138 1.7-4.487 3.902-5.717a5.221 5.221 0 0 1 4.81-.41 7.997 7.997 0 0 1 7.25-4.648c6.845-.224 11.861 3.623 14.493 11.185a56.717 56.717 0 0 1 1.923 7.922 58.36 58.36 0 0 0 1.761 7.456c.175.516.355 1.038.542 1.554a26.385 26.385 0 0 1 1.369 4.834c.771 5.25-3.211 9.942-7.2 12.62a31.232 31.232 0 0 1-5.57 2.802c-3.28 1.348-7.629 2.94-12.259 3.28-.572.032-1.157.05-1.736.05Zm-5.084-46.11a5.333 5.333 0 0 1 2.595-.74l.006.025a3.925 3.925 0 0 1 1.91.478c.08.037.17.037.25 0a.31.31 0 0 0 .18-.161 7.43 7.43 0 0 1 6.845-4.58c6.671-.236 11.313 3.387 13.902 10.769a54.666 54.666 0 0 1 1.867 7.841 59.243 59.243 0 0 0 1.786 7.519c.174.528.36 1.05.541 1.565a25.969 25.969 0 0 1 1.344 4.716c.735 4.965-3.098 9.464-6.926 12.017a30.87 30.87 0 0 1-5.445 2.747c-3.236 1.33-7.554 2.914-12.072 3.231-4.518.317-8.731-.659-11.88-2.79-3.584-2.436-5.762-6.512-5.557-10.389.168-3.02 1.668-5.803 3.112-8.488.572-1.056 1.163-2.15 1.667-3.243 1.973-4.3 2.079-8.29 2.197-12.52.025-.926.05-1.84.093-2.79.088-1.933 1.563-4.077 3.585-5.208Z" clip-rule="evenodd" fill="#231F20" fill-rule="evenodd"/><path d="M48.41 86.88c-.26-1.03-.54-2.05-.86-3.07-.82-2.71-1.79-6.65-3.73-8.81-3.15-3.49-10.25-3.6-14.57-3.63-6.67-.03-13.5 1.53-18.96 5.37-8.4 5.9-9.95 14.47-8.99 24.03 1.11 10.68 2.49 21.35 3.99 31.99.15 1.09 1.95 17.35 2.76 17.36.05 0 55.38.04 53.61 1.35-2.49-8.63-4.35-17.4-6.36-26.1-.42-1.86-1.17-3.55-1.63-5.37-.67-2.62-.37-5.5-.63-8.18-.54-6.21-1.86-12.33-3.16-18.42-.45-2.19-.92-4.37-1.47-6.52Z" fill="#E7816B"/><path d="m64.09 164.16-6.34-27.78-51.22 4.21-.65 23.57h58.21Z" fill="#231F20"/><path d="M5.885 164.478h58.209a.317.317 0 0 0 .274-.379l-6.341-27.787a.328.328 0 0 0-.33-.242l-51.215 4.212a.318.318 0 0 0-.286.305l-.622 23.574c-.001.083.03.163.087.224.06.059.14.093.224.093Zm57.83-.621H6.22l.604-22.978 50.667-4.163 6.222 27.141Z" clip-rule="evenodd" fill="#231F20" fill-rule="evenodd"/><path d="M33.71 94.78c.17.07.35.11.53.13 1.17.08 2.08-1 2.56-2.06 1.07-2.37 1.07-5.07.89-7.65-.04-1.53-.37-3.03-.97-4.44-.57-1.09-1.34-2.06-2.26-2.87-1.67-1.54-3.68-2.82-5.93-3.11-2.25-.29-5.53.93-6.22 3.39-.72 2.66 2.08 5.34 3.43 7.3 1.96 2.83 4.1 5.52 6.41 8.07.42.53.95.95 1.56 1.24Z" fill="#231F20"/><path d="M34.386 95.221h-.162a2.495 2.495 0 0 1-.622-.142 4.722 4.722 0 0 1-1.662-1.312 80.948 80.948 0 0 1-6.434-8.077 28.111 28.111 0 0 0-.934-1.243c-1.406-1.796-3.16-4.039-2.539-6.313.691-2.548 3.94-3.933 6.54-3.623 2.035.237 4.09 1.305 6.1 3.17.955.834 1.747 1.839 2.333 2.963A12.37 12.37 0 0 1 38 85.2c.18 2.485.212 5.313-.914 7.792-.243.553-1.14 2.23-2.701 2.23Zm-.112-.627a1.471 1.471 0 0 1-.448-.106 4.026 4.026 0 0 1-1.419-1.18 78.811 78.811 0 0 1-6.385-8.035c-.28-.372-.61-.795-.958-1.242-1.326-1.684-2.968-3.79-2.433-5.767.597-2.205 3.572-3.436 5.868-3.168 1.904.223 3.84 1.236 5.75 3.007a9.555 9.555 0 0 1 2.197 2.784c.58 1.378.897 2.854.933 4.35.174 2.385.206 5.138-.859 7.493-.43.944-1.27 1.95-2.246 1.864Z" clip-rule="evenodd" fill="#231F20" fill-rule="evenodd"/><path fill="#FFF" d="M60.584 45.27h87.482v93.254H60.584z"/><path d="M60.584 138.828h87.476a.31.31 0 0 0 .311-.31V45.27a.31.31 0 0 0-.311-.31H60.584a.31.31 0 0 0-.31.31v93.248c0 .171.139.31.31.31Zm87.165-.621H60.896V45.581h86.853v92.626Z" clip-rule="evenodd" fill="#231F20" fill-rule="evenodd"/><path fill="#FFF" d="M66.229 52.441h76.181v68.455H66.229z"/><path d="M142.416 121.207H66.228a.31.31 0 0 1-.31-.311V52.441c0-.172.139-.31.31-.31h76.188c.171 0 .311.138.311.31v68.443a.31.31 0 0 1-.311.323Zm-.312-.622H66.54V52.752h75.564v67.833Z" clip-rule="evenodd" fill="#D1D3D4" fill-rule="evenodd"/><path d="M133.89 76.35c-1.1 1.2-2.14 2.48-3.29 3.61-2.99 3.04-6.03 6.04-9.05 9.06-.1.11-.18.25-.31.31-.54.23-1.24.75-1.6.57-.5-.38-.8-.96-.83-1.58-.08-2.33-.03-4.66-.03-7.15-.98 0-1.91-.04-2.84 0-3.5.17-6.87.86-9.92 2.68a12.175 12.175 0 0 0-6.27 10.31c.03 1.16.22 2.31.56 3.42.13.58.46 1.24-.28 1.47-.55 0-1.06-.28-1.36-.75-.95-1.87-1.71-3.84-2.27-5.87-2.09-9.47 3.12-18.15 12.53-21.12 2.72-.87 5.55-1.31 8.4-1.31h1.45v-5.29c-.02-.83.03-1.67.16-2.49.19-.94.79-1.17 1.63-.7.34.21.65.47.92.76 3.8 3.79 7.59 7.59 11.38 11.39.37.44.71.9 1.01 1.39l.01 1.29Z" fill="#E7816B"/><path d="M86.51 110.5a9.886 9.886 0 0 1-5.52-3.1 8.84 8.84 0 0 1-2.15-5.78c0-8.25-.05-16.49 0-24.73-.01-2.35.92-4.6 2.58-6.26a8.81 8.81 0 0 1 6.27-2.57c1.53-.03 3.06-.03 4.6 0 1.25 0 2.03.74 2.02 1.82-.01 1.08-.78 1.7-1.99 1.71h-4.5c-1.44-.04-2.84.5-3.87 1.51a5.278 5.278 0 0 0-1.58 3.84c-.03 8.29-.03 16.57 0 24.86 0 1.4.56 2.75 1.56 3.74 1 .98 2.36 1.53 3.76 1.51h30.5a5.253 5.253 0 0 0 5.49-5.41c.04-2.59 0-5.18 0-7.77 0-1.24.54-1.9 1.55-2.04.85-.12 1.87.47 1.87 1.31 0 3.46.25 6.96-.17 10.37-.46 3.73-3.36 6.22-7.1 6.92-.13.04-.27.09-.4.15l-32.92-.08Z" fill="#E7816B"/><path d="M141.84 127.79H77.33c-.17 0-.31-.13-.31-.31 0-.17.14-.31.31-.31h64.51c.18 0 .32.14.32.31 0 .18-.14.31-.32.31ZM125.81 132.64H77.33c-.17 0-.31-.14-.31-.32 0-.17.14-.31.31-.31h48.48c.17 0 .31.14.31.31 0 .17-.14.31-.31.32Z" fill="#D1D3D4"/><ellipse cx="69.819" cy="128.744" rx="3.584" ry="3.579" fill="#FFF"/><path d="M69.82 132.64a3.902 3.902 0 0 1-3.61-2.401 3.892 3.892 0 0 1 .842-4.248 3.906 3.906 0 0 1 4.253-.847 3.895 3.895 0 0 1-1.486 7.496Zm-3.036-5.146a3.281 3.281 0 0 1 6.308 1.25 3.274 3.274 0 0 1-2.021 3.03 3.283 3.283 0 0 1-3.577-.709 3.27 3.27 0 0 1-.71-3.571Z" clip-rule="evenodd" fill="#D1D3D4" fill-rule="evenodd"/><path d="M40.2 51.21s3.11 7.24 2.21 12.95A8.3 8.3 0 0 1 36.47 71l.62 9.97s.38 5.09-5.93 4.71a10.78 10.78 0 0 1-8.81-5.63l-1.87-18.28s6.84-4.53 5.78-11.07c0 0 8.69 3.52 13.94.51Z" fill="#FFF"/><path d="M31.853 86.031h-.672a11.202 11.202 0 0 1-9.073-5.81.299.299 0 0 1-.031-.105l-1.904-18.305a.316.316 0 0 1 .137-.292c.068-.044 6.646-4.505 5.65-10.768a.304.304 0 0 1 .112-.292.312.312 0 0 1 .311-.044c.006 0 .057.018.148.05 1.157.416 8.832 3.169 13.505.478a.33.33 0 0 1 .255 0 .305.305 0 0 1 .187.174c.13.299 3.174 7.388 2.24 13.123a8.66 8.66 0 0 1-5.911 7.028l.622 9.724a4.967 4.967 0 0 1-1.32 3.58c-.97.962-2.401 1.46-4.256 1.46Zm-.635-.64a10.543 10.543 0 0 1-8.525-5.412l-1.848-18.025c.996-.72 6.403-4.928 5.825-10.756 1.897.696 8.755 2.883 13.398.479.578 1.447 2.862 7.574 2.072 12.464a7.926 7.926 0 0 1-5.7 6.599.31.31 0 0 0-.243.323l.622 9.942a4.389 4.389 0 0 1-1.151 3.107c-.952.969-2.452 1.398-4.45 1.28Z" clip-rule="evenodd" fill="#231F20" fill-rule="evenodd"/><path d="M23.85 60.26s-3.56-6.72-6.73-2.14c-3.16 4.59 2.2 9.05 5.25 8.43l1.48-6.29Z" fill="#FFF"/><path d="M21.76 66.93c-1.75 0-3.84-1.24-4.98-3a5.073 5.073 0 0 1 .12-5.98c.84-1.24 1.8-1.8 2.85-1.73 2.41.14 4.36 3.73 4.41 3.9.05.14-.01.31-.15.38-.14.07-.31.03-.4-.1 0 0-1.87-3.43-3.95-3.56-.83-.05-1.59.44-2.29 1.47a4.472 4.472 0 0 0-.11 5.28c1.17 1.79 3.44 2.99 5.04 2.66.17-.03.33.08.36.25a.297.297 0 0 1-.24.36c-.22.05-.44.07-.66.07ZM37.59 64.12c-.51 0-1.02-.05-1.52-.15a.322.322 0 0 1-.2-.12c-.04-.07-.06-.16-.04-.24.02-.08.06-.15.13-.2.07-.04.16-.06.24-.04 0 0 2.01.39 2.97-.19.13-.78-1.78-3.38-3.18-4.97a.303.303 0 0 1-.07-.23c0-.08.04-.15.1-.21.13-.12.32-.12.45 0 .62.69 3.54 4.18 3.33 5.46a.65.65 0 0 1-.32.48c-.58.3-1.24.44-1.89.41ZM36.47 71.01s-5.29 1.02-8.41.44c0 0 3.86 7.63 8.93 7.26l-.52-7.7Z" fill="#231F20"/><path d="M36.632 79.041c-5.015 0-8.712-7.14-8.836-7.456a.304.304 0 0 1 0-.33.311.311 0 0 1 .336-.08c3.018.565 8.233-.423 8.289-.435a.33.33 0 0 1 .249.062c.068.055.11.136.118.224l.523 7.698a.31.31 0 0 1-.287.33q-.193-.013-.392-.013Zm.007-.621c-3.902 0-7.014-4.909-7.99-6.568 2.694.317 6.396-.267 7.51-.466l.48 7.034Z" clip-rule="evenodd" fill="#231F20" fill-rule="evenodd"/><ellipse rx=".784" ry="1.373" transform="rotate(-6.85 492.938 -247.052)" fill="#231F20"/><ellipse rx=".784" ry="1.373" transform="rotate(-6.85 494.297 -304.175)" fill="#231F20"/><path d="M34.44 67.11c-.46-.01-.9-.1-1.32-.29-1.51-.66-2.49-2.49-2.89-5.47-.02-.18.1-.33.27-.36.17-.02.33.1.35.27.38 2.74 1.25 4.42 2.53 4.97 1.57.7 3.35-.52 3.37-.53.09-.07.21-.08.31-.04.11.05.18.15.19.27 0 .11-.05.22-.15.28-.79.54-1.71.85-2.66.9Z" fill="#231F20"/><path d="M118.04 138.84c-.1-.69-.17-1.38-.2-2.08-.04-1.44.18-2.88.67-4.24.15-.61.48-1.15.95-1.56.5-.4 1.23-.35 1.67.12.24.49.26 1.07.06 1.59-.32 1.44-.4 2.93-.22 4.4.24-1.98.5-4.03 1.58-5.7.22-.39.54-.71.92-.95.4-.23.89-.23 1.28 0 .55.41.51 1.25.44 1.9-.17 1.74-.15 3.5.08 5.23-.12-1.52-.01-3.06.33-4.55.23-.97.67-2.05 1.62-2.36.2-.07.42-.08.62-.04.44.15.76.53.83.98.07.44.07.9 0 1.34-.18 1.75-.12 3.52.16 5.25-.22-1.52-.16-3.07.17-4.57.09-.6.33-1.17.7-1.65.38-.5 1.04-.69 1.63-.48.42.22.71.63.79 1.1.07.46.09.93.05 1.4-.04 1.77.28 3.53.96 5.17.56 1.36 1.29 2.87 1.16 4.39a4.428 4.428 0 0 1-2.87 3.53c-1.52.52-3.16.6-4.72.22-5.15-1.02-9.4-3.47-11.2-8.38l2.54-.06Z" fill="#FFF"/><path d="M128.88 147.85c-.75 0-1.49-.08-2.23-.23-5.92-1.17-9.77-4.06-11.45-8.59a.33.33 0 0 1 .2-.42c.17-.06.36.03.42.2 1.59 4.3 5.29 7.05 10.98 8.18 1.5.37 3.07.3 4.53-.21a4.097 4.097 0 0 0 2.67-3.25c.12-1.28-.43-2.57-.95-3.81l-.18-.44c-.69-1.68-1.03-3.48-.99-5.3v-.21c.03-.37.02-.74-.04-1.11a1.28 1.28 0 0 0-.62-.88c-.46-.13-.95.02-1.25.39-.33.45-.55.97-.62 1.52a12.16 12.16 0 0 0-.17 4.46c.03.17-.09.33-.27.36-.16.02-.31-.08-.34-.23-.3-1.77-.35-3.56-.17-5.34v-.11c.06-.37.06-.76 0-1.13a.925.925 0 0 0-.62-.74.941.941 0 0 0-.47.03c-.65.22-1.12.94-1.4 2.13a14.48 14.48 0 0 0-.32 4.45c-.02.14-.14.26-.28.27a.322.322 0 0 1-.34-.2c-.23-1.76-.26-3.54-.08-5.3.06-.62.09-1.31-.31-1.61a.93.93 0 0 0-.94 0c-.34.21-.62.49-.81.84-1.06 1.64-1.3 3.72-1.52 5.59-.02.16-.16.28-.32.28s-.29-.12-.32-.28c-.18-1.5-.11-3.03.22-4.51.18-.42.18-.9 0-1.33a.645.645 0 0 0-.43-.24c-.27-.05-.55.02-.78.19-.42.37-.71.86-.84 1.4-.48 1.32-.7 2.72-.65 4.12 0 .22.03.41.04.59.02.49.07.98.15 1.46 0 .15-.12.28-.26.3-.15.03-.3-.05-.36-.19-.08-.51-.14-1.01-.16-1.53 0-.17 0-.37-.04-.58-.06-1.48.18-2.95.68-4.35.17-.67.54-1.27 1.07-1.72.36-.26.8-.37 1.24-.31.34.05.65.23.85.5.31.58.35 1.26.12 1.87v.1c.2-.57.47-1.12.79-1.63.26-.44.62-.8 1.05-1.06.5-.29 1.13-.27 1.61.05.63.47.63 1.34.63 1.94.22-.8.81-1.46 1.58-1.77.27-.09.55-.11.82-.04.57.18.98.66 1.08 1.24.05.28.07.57.05.86.1-.22.24-.43.41-.62.47-.6 1.28-.83 2-.56.51.27.87.76.97 1.33.07.41.1.82.07 1.24v.22c-.03 1.72.28 3.44.94 5.04l.18.43c.53 1.24 1.13 2.67 1 4.11a4.682 4.682 0 0 1-3.07 3.79c-.89.3-1.82.42-2.75.35Z" fill="#231F20"/><path d="m183.15 104.14-.95 14.25s-29.25-22.99-34.14-23.98v4.03s-8.14-1-8.79.62c-.64 1.61.46 7.75 2.57 8.99 1.25.76 11.76.82 11.76.82s1.49 3.64 15.99 16.98 28.14 20.47 28.99 7.98c.85-12.5 1.93-33.56 1.93-33.56l-17.36 3.87Z" fill="#FFF"/><path d="M193.21 140.61c-5.14 0-13.62-5.14-23.84-14.54-12.75-11.74-15.47-15.98-15.97-16.9-1.74 0-10.47-.12-11.72-.85-2.32-1.38-3.4-7.67-2.7-9.4.69-1.73 6.79-1.09 8.76-.88v-3.66c0-.09.04-.18.12-.24.07-.06.17-.09.26-.07 4.63.93 29.87 20.58 33.8 23.66l.9-13.63c-.02-.13.04-.27.15-.34.12-.07.27-.06.37.03.11.08.15.23.1.36l-.92 14.24c0 .12-.08.23-.19.27-.11.05-.23.04-.33-.04-.28-.22-27.86-21.87-33.6-23.81v3.6c0 .09-.04.18-.11.24-.07.07-.16.1-.25.08-3.28-.4-8.09-.53-8.45.43-.59 1.48.49 7.46 2.44 8.61.87.51 7.41.74 11.59.77.13 0 .25.08.3.2 0 .03 1.72 3.81 15.9 16.86 11.64 10.69 20.85 15.78 25.33 14.04 1.87-.74 2.91-2.71 3.11-5.85.84-12.35 1.92-33.35 1.94-33.55 0-.09.04-.17.1-.23.06-.05.15-.08.23-.08.09.01.17.04.23.11.05.06.08.14.08.23 0 .21-1.1 21.22-1.94 33.55-.23 3.41-1.42 5.59-3.53 6.4-.68.26-1.42.4-2.16.39Z" fill="#231F20"/><path d="m182.2 118.36 7.01 5.22-7.01-5.22Z" fill="#FFF"/><path d="M189.21 123.91a.438.438 0 0 1-.19-.07l-7.01-5.22a.32.32 0 0 1-.06-.45c.1-.14.3-.17.44-.06l7.02 5.22c.1.08.15.22.1.35-.04.13-.16.22-.3.23Z" fill="#231F20"/><path d="M20 92.63s12 22.25 12.32 23.12c.11.29 24.72-12.87 25.63-14.67-.3-2.01-.1-4.07.58-5.99.39-1.05 1.13-1.18 2-1.92a30.49 30.49 0 0 0-.08 3.94c1.66-1.74 3.44-3.35 5.34-4.82.41-.42 1-.62 1.57-.51.26.13.48.33.62.58 2.56 3.58.43 7.89-1.4 11.25-3.45 6.31-8.61 10.23-14.1 14.64-3.66 2.92-7.46 5.65-11.4 8.17a56.508 56.508 0 0 1-9.67 5.25c-2.03.81-4.83 1.87-6.99.86-7.81-3.62-16.76-22.1-19.21-30.23L20 92.63Z" fill="#FFF"/><path d="M26.46 133.25c-.74.01-1.47-.14-2.14-.44-4.43-2.05-8.84-8.49-11.76-13.55a88.844 88.844 0 0 1-7.61-16.87c-.03-.15.06-.3.21-.35.15-.05.31.03.38.17 2.49 8.37 11.51 26.55 19.04 30.04 1.95.9 4.51 0 6.74-.86 3.36-1.43 6.58-3.18 9.61-5.23 3.93-2.52 7.73-5.24 11.38-8.15l.95-.77c5.07-4.05 9.85-7.89 13.06-13.78 1.94-3.55 3.8-7.6 1.43-10.92-.12-.2-.3-.36-.51-.47-.39-.15-.88.17-1.24.46a46.303 46.303 0 0 0-5.3 4.79c-.09.09-.21.12-.33.08a.3.3 0 0 1-.21-.26c-.05-.58-.04-2.24 0-3.31l-.22.15c-.51.26-.91.71-1.12 1.24-.65 1.87-.84 3.87-.56 5.83.02.06.02.13 0 .19-.52 1.05-7.39 5.01-13.07 8.15-3.24 1.8-12.27 6.7-12.86 6.7a.338.338 0 0 1-.28-.21c-.25-.67-8.16-15.39-12.31-23.07a.325.325 0 0 1 .13-.43c.15-.08.34-.02.42.13.47.87 10.94 20.29 12.22 22.89 2.71-1.08 23.78-12.65 25.11-14.4-.28-2.04-.06-4.11.63-6.04.25-.65.74-1.18 1.35-1.51.26-.17.51-.35.74-.54.1-.08.24-.1.36-.04.11.07.17.19.15.32-.09 1.05-.13 2.1-.1 3.16 1.52-1.56 3.14-3.02 4.86-4.35.51-.39 1.19-.82 1.87-.56.32.15.6.39.79.69 2.79 3.92.18 8.7-1.39 11.58-3.27 6-8.09 9.87-13.23 13.98l-.95.76c-3.66 2.93-7.47 5.66-11.42 8.19a57.106 57.106 0 0 1-9.72 5.28c-1.61.75-3.33 1.2-5.1 1.33Z" fill="#231F20"/><path d="M20 92.92c-.11 0-.21-.06-.27-.16L13.71 82.5a.312.312 0 0 1 .11-.43c.15-.08.34-.03.43.12l6.04 10.29c.04.07.05.15.03.23-.02.08-.07.15-.15.19-.05.02-.11.03-.17.02ZM183.15 104.46a.333.333 0 0 1-.22-.11.341.341 0 0 1-.07-.24l1.33-14.42c.01-.17.17-.3.34-.28.09 0 .17.04.23.11.05.06.08.15.07.23l-1.34 14.42c0 .09-.04.17-.11.22-.06.06-.15.08-.23.07Z" fill="#231F20"/></svg>