<svg width="196" height="24" fill="none" xmlns="http://www.w3.org/2000/svg"><defs><radialGradient gradientTransform="scale(12)" cx="0" cy="0" r="1" id="a" gradientUnits="userSpaceOnUse"><stop stop-color="#E7816B" stop-opacity="0"/><stop offset=".999" stop-color="#E7816B"/></radialGradient></defs><path d="M48.136 21q2.02 0 3.772-.687h.001q.079-.03.157-.063 1.213-.5 2.223-1.268.504-.383.957-.832a9.666 9.666 0 0 0 2.118-3.144q.026-.06.05-.122.706-1.743.706-3.772 0-1.892-.626-3.548-.065-.171-.136-.34-.468-1.105-1.162-2.043-.436-.59-.962-1.113-.486-.484-1.03-.891-.979-.735-2.144-1.221-.074-.031-.149-.06l-.005-.003Q50.16 1.2 48.136 1.2H42.7V21h5.436Zm-1.548-3.48h1.116c.896 0 1.724-.16 2.484-.48.76-.32 1.42-.768 1.98-1.344a6.173 6.173 0 0 0 1.308-2.034c.312-.78.468-1.634.468-2.562q0-1.38-.468-2.55a6.243 6.243 0 0 0-1.308-2.04 5.908 5.908 0 0 0-1.98-1.35q-1.14-.48-2.484-.48h-1.116v12.84ZM78.06 21v-3.408h-7.128V12.78h6.84V9.372h-6.84V4.608h7.128V1.2H67.044V21H78.06Zm14.912.384c1.44 0 2.7-.238 3.78-.714 1.08-.476 1.922-1.166 2.526-2.07.604-.904.906-1.988.906-3.252 0-.864-.142-1.608-.426-2.232q-.125-.275-.283-.53-.379-.612-.947-1.108-.804-.702-1.932-1.278a38.456 38.456 0 0 0-2.52-1.164 58.839 58.839 0 0 1-1.188-.498 5.792 5.792 0 0 1-.924-.492 1.92 1.92 0 0 1-.594-.612q-.21-.354-.21-.858c0-.408.106-.778.318-1.11.212-.332.516-.598.912-.798.396-.2.878-.3 1.446-.3.504 0 1.002.072 1.494.216q.738.216 1.392.57.654.354 1.17.798l1.62-3.048q-.648-.552-1.584-1.02a10.612 10.612 0 0 0-2.016-.756 8.352 8.352 0 0 0-2.16-.288c-.96 0-1.83.16-2.61.48-.78.32-1.452.752-2.016 1.296a5.778 5.778 0 0 0-1.302 1.86 5.398 5.398 0 0 0-.456 2.184c0 .64.11 1.218.33 1.734q.196.46.475.863.19.275.419.523c.376.408.806.766 1.29 1.074.484.308.994.582 1.53.822a91.9 91.9 0 0 1 1.926.858c.564.26 1.04.524 1.428.792.388.268.682.568.882.9.2.332.3.734.3 1.206 0 .52-.124.954-.372 1.302-.248.348-.586.61-1.014.786-.428.176-.922.264-1.482.264-.6 0-1.166-.086-1.698-.258a7.874 7.874 0 0 1-1.482-.648c-.456-.26-.868-.534-1.236-.822a22.035 22.035 0 0 1-.948-.78l-1.992 3.216a10.873 10.873 0 0 0 2.622 1.818c.612.308 1.306.564 2.082.768a9.989 9.989 0 0 0 2.544.306ZM113.056 21V1.2h-3.888V21h3.888Zm18.692.384a9.818 9.818 0 0 0 3.384-.594 9.666 9.666 0 0 0 2.928-1.68 8.041 8.041 0 0 0 2.046-2.58q.099-.197.185-.4.565-1.333.565-2.906v-3H131.7v3.012h5.196v.3a3.62 3.62 0 0 1-.408 1.704c-.272.52-.64.972-1.104 1.356a5.205 5.205 0 0 1-1.59.894 5.494 5.494 0 0 1-1.854.318c-.8 0-1.546-.164-2.238-.492a5.382 5.382 0 0 1-1.812-1.404q-.774-.912-1.206-2.172c-.288-.84-.432-1.776-.432-2.808a8.6 8.6 0 0 1 .384-2.622q.384-1.206 1.128-2.106.287-.347.624-.634.539-.458 1.206-.764 1.086-.498 2.502-.498 1.44 0 2.922.534c.988.356 1.83.858 2.526 1.506l1.824-3.012a9.904 9.904 0 0 0-2.184-1.362 12.336 12.336 0 0 0-2.526-.846 12.16 12.16 0 0 0-2.61-.288c-1.528 0-2.908.27-4.14.81q-1.393.61-2.48 1.57-.354.312-.676.662-.434.472-.801.991-.738 1.046-1.203 2.285a11.123 11.123 0 0 0-.696 3.942q0 2.184.744 4.056a10.194 10.194 0 0 0 2.064 3.27q.633.67 1.369 1.2.797.572 1.715.978c1.176.52 2.444.78 3.804.78Zm21.92-.384V7.68L162.2 21h3.888V1.2H162.2v13.32L153.668 1.2h-3.888V21h3.888Zm31.364.384c1.384 0 2.68-.264 3.888-.792a9.925 9.925 0 0 0 3.18-2.202 10.353 10.353 0 0 0 2.916-7.278 10.35 10.35 0 0 0-2.916-7.278 9.925 9.925 0 0 0-3.18-2.202 9.601 9.601 0 0 0-3.888-.792c-1.384 0-2.68.264-3.888.792q-.986.43-1.84 1.045-.716.514-1.34 1.157a10.35 10.35 0 0 0-2.916 7.278 10.353 10.353 0 0 0 2.916 7.278 9.925 9.925 0 0 0 3.18 2.202 9.599 9.599 0 0 0 3.888.792Zm-2.322-4.224c.708.32 1.478.48 2.31.48q1.261 0 2.311-.472l.017-.008q.459-.209.866-.492.529-.369.97-.864a6.297 6.297 0 0 0 1.212-2.07q.432-1.194.432-2.622t-.432-2.622a6.296 6.296 0 0 0-1.212-2.07q-.441-.495-.97-.863-.407-.284-.866-.493l-.017-.008q-1.05-.472-2.311-.472c-.832 0-1.602.16-2.31.48a5.442 5.442 0 0 0-1.842 1.356 6.214 6.214 0 0 0-1.206 2.07q-.426 1.194-.426 2.622t.426 2.622a6.215 6.215 0 0 0 1.206 2.07 5.442 5.442 0 0 0 1.842 1.356Z" clip-rule="evenodd" fill="#333136" fill-rule="evenodd"/><circle r="12" transform="matrix(0 -1 -1 0 12 12)" fill="url(#a)"/><circle r="12" transform="matrix(0 -1 -1 0 12 12)"/></svg>