<svg width="202.000000" height="202.000000" viewBox="0 0 202 202" fill="none" xmlns="http://www.w3.org/2000/svg" xmlns:xlink="http://www.w3.org/1999/xlink">
	<desc>
			Created with Pixso.
	</desc>
	<defs>
		<linearGradient x1="-101.000000" y1="101.000000" x2="101.000000" y2="101.000000" id="paint_linear_0_10196_0" gradientUnits="userSpaceOnUse">
			<stop stop-color="#5D0202" stop-opacity="0.000000"/>
			<stop offset="1.000000" stop-color="#5D0202" stop-opacity="0.498039"/>
		</linearGradient>
	</defs>
	<g opacity="0.202683">
		<circle id="Oval" r="101.000000" transform="matrix(-1 0 0 1 101 101)" fill="url(#paint_linear_0_10196_0)" fill-opacity="1.000000"/>
		<circle id="Oval" r="101.000000" transform="matrix(-1 0 0 1 101 101)" stroke="#979797" stroke-opacity="0" stroke-width="0.000000"/>
	</g>
	<path id="Path" d="M164.84 138.13C164.84 138.13 187.43 79.17 175.73 70.17C164.02 61.18 114.93 64.81 112.24 68.03C109.55 71.24 93.72 142.22 93.72 142.22L164.84 138.13Z" fill="#231F20" fill-opacity="1.000000" fill-rule="nonzero"/>
	<path id="Shape" d="M93.6859 142.578C93.5865 142.577 93.4921 142.534 93.4253 142.461C93.3558 142.38 93.3302 142.27 93.3566 142.166C94.0016 139.262 109.268 71.0643 111.985 67.8243C113.474 66.0464 126.579 64.3921 140.604 64.2067C148.837 64.0969 168.797 64.4333 175.946 69.9179C180.921 73.7345 180.605 86.3925 175.013 107.617C170.896 123.316 165.222 138.109 165.167 138.253C165.12 138.381 165.001 138.467 164.865 138.473L93.7065 142.591L93.6859 142.578ZM140.617 64.8726L143.197 64.8726C159.15 64.8726 170.862 66.8839 175.507 70.4465C186.54 78.9103 166.032 133.956 164.584 137.793L94.0977 141.857C99.6141 117.214 110.428 70.7279 112.486 68.2499C113.687 66.8427 126.209 65.0648 140.617 64.8726Z" clip-rule="evenodd" fill="#231F20" fill-opacity="1.000000" fill-rule="evenodd"/>
	<path id="Path" d="M73.1 87.18L62.91 121.38C62.91 121.38 83.92 124.09 83.92 123.31C83.92 122.54 88.03 85.69 88.03 85.69L73.1 87.18Z" fill="#FFFFFF" fill-opacity="1.000000" fill-rule="nonzero"/>
	<path id="Shape" d="M82.8656 123.762C79.3182 123.762 69.2527 122.541 62.8785 121.703C62.7791 121.689 62.6904 121.633 62.6353 121.549C62.5801 121.464 62.5637 121.361 62.5903 121.264L72.7726 87.0721C72.8112 86.9372 72.928 86.8393 73.0676 86.825L88.0116 85.3286C88.114 85.3191 88.2151 85.357 88.286 85.4315C88.3607 85.502 88.3966 85.6044 88.3821 85.7061C86.9618 98.4053 84.2653 122.602 84.2653 123.296C84.259 123.408 84.2098 123.514 84.1281 123.591C83.7257 123.743 83.2939 123.802 82.8656 123.762ZM83.5654 123.097C81.9736 123.323 70.6387 122.026 63.3383 121.092L73.342 87.5115L87.6273 86.0768C87.1676 90.2023 83.8262 120.131 83.5654 123.097Z" clip-rule="evenodd" fill="#231F20" fill-opacity="1.000000" fill-rule="evenodd"/>
	<path id="Path" d="M53.8 78.69C53.89 78.79 57.5 77.82 59.37 80.07C61.23 82.31 58.81 84.31 52.92 83.15C47.02 81.99 53.8 78.69 53.8 78.69Z" fill="#FFFFFF" fill-opacity="1.000000" fill-rule="nonzero"/>
	<path id="Shape" d="M56.031 83.8389C54.9637 83.8282 53.9 83.7156 52.8541 83.5026C51.1526 83.1662 50.2743 82.6171 50.1714 81.8139C49.9724 80.2626 53.0326 78.6906 53.65 78.3817C53.7213 78.3577 53.7985 78.3577 53.8696 78.3817L54.0961 78.3817C54.1027 78.3809 54.1095 78.3801 54.1162 78.3793C55.097 78.26 57.9911 77.9081 59.64 79.885C60.381 80.7637 60.5388 81.6629 60.0997 82.418C59.5303 83.3173 58.0551 83.8389 56.031 83.8389ZM50.8712 81.6904C50.7751 80.9284 52.5386 79.7203 53.8765 79.0338C53.9589 79.0338 54.0549 79.0338 54.1853 79.0064C55.139 78.8828 57.6846 78.5671 59.0979 80.2557C59.5806 80.6859 59.7377 81.3749 59.489 81.9718C58.9813 82.8299 56.9778 83.5575 52.9913 82.775C51.228 82.4249 50.8712 81.9444 50.8712 81.6904Z" clip-rule="evenodd" fill="#231F20" fill-opacity="1.000000" fill-rule="evenodd"/>
	<path id="Path" d="M44.73 71.52C44.73 71.52 43.99 70.67 44.46 70.07C44.67 69.82 44.99 69.7 45.31 69.73C45.64 69.76 45.93 69.94 46.09 70.22C46.09 70.22 44.92 70.64 44.73 71.52Z" fill="#FFFFFF" fill-opacity="1.000000" fill-rule="nonzero"/>
	<path id="Shape" d="M44.7372 71.8744C44.6355 71.8754 44.5381 71.833 44.4696 71.7577C44.1266 71.3595 43.6737 70.5084 44.1884 69.8631C44.4215 69.5565 44.7844 69.3763 45.1696 69.3757C45.6437 69.3838 46.0863 69.6154 46.3634 70.0004C46.4398 70.0892 46.4657 70.2108 46.432 70.323C46.4027 70.4343 46.3207 70.5242 46.2124 70.5633C45.938 70.6594 45.2039 71.0438 45.0803 71.5998C45.0533 71.73 44.955 71.8338 44.8264 71.8675L44.7372 71.8744ZM44.751 70.2956C44.8558 70.1634 45.0145 70.0853 45.1832 70.0828L45.1901 70.1102C45.2926 70.0956 45.3971 70.1098 45.4919 70.1514C45.2087 70.3152 44.9576 70.5292 44.751 70.7829C44.6716 70.6302 44.6716 70.4483 44.751 70.2956Z" clip-rule="evenodd" fill="#231F20" fill-opacity="1.000000" fill-rule="evenodd"/>
	<path id="Path" d="M46.35 70.19C45.51 70.26 44.82 70.88 44.68 71.71L59.39 90.87C59.58 88.98 61.04 87.46 62.91 87.2L46.35 70.19Z" fill="#FFFFFF" fill-opacity="1.000000" fill-rule="nonzero"/>
	<path id="Shape" d="M59.3931 91.2251C59.2854 91.224 59.1841 91.1734 59.1187 91.0878L44.4011 71.9292C44.3337 71.8414 44.3109 71.7273 44.3394 71.6203C44.5383 70.6417 45.3615 69.9135 46.3566 69.8356C46.4525 69.8365 46.5441 69.8761 46.6105 69.9454L63.1737 86.9554C63.2676 87.0486 63.2996 87.1874 63.256 87.3123C63.2168 87.4376 63.1108 87.5303 62.9816 87.5526C61.2601 87.7881 59.9241 89.1729 59.7499 90.9024C59.7382 91.0484 59.6368 91.1716 59.496 91.2113L59.3931 91.2251ZM59.2147 90.0512L45.0735 71.6478C45.2224 71.0976 45.6682 70.6781 46.2262 70.5632L62.2268 86.9966C60.7603 87.4217 59.6196 88.5784 59.2147 90.0512Z" clip-rule="evenodd" fill="#231F20" fill-opacity="1.000000" fill-rule="evenodd"/>
	<path id="Path" d="M59.39 90.87L64.42 93.48L65.04 92.9L62.91 87.2C62.91 87.2 59 86.81 59.39 90.87Z" fill="#FFFFFF" fill-opacity="1.000000" fill-rule="nonzero"/>
	<path id="Shape" d="M64.4224 93.8336C64.3647 93.8345 64.308 93.8203 64.2577 93.7924L59.2351 91.184C59.1267 91.1298 59.0541 91.0233 59.0431 90.9025C58.8495 89.7958 59.176 88.6615 59.9281 87.8272C60.7645 87.1077 61.8546 86.754 62.954 86.8456C63.0912 86.8586 63.2087 86.9494 63.2559 87.079L65.3761 92.7765C65.4282 92.9108 65.3928 93.0633 65.2869 93.1609L64.6625 93.7444C64.5958 93.8023 64.5105 93.834 64.4224 93.8336ZM64.3606 93.0511L59.7361 90.6485C59.6136 89.8119 59.8645 88.9637 60.4221 88.3284C61.0514 87.8008 61.8521 87.5224 62.6727 87.5458L64.635 92.804L64.3606 93.0511Z" clip-rule="evenodd" fill="#231F20" fill-opacity="1.000000" fill-rule="evenodd"/>
	<path id="Path" d="M64.42 93.48L65.38 94.51L65.83 93.99L65.04 92.9L64.42 93.48Z" fill="#FFFFFF" fill-opacity="1.000000" fill-rule="nonzero"/>
	<path id="Shape" d="M65.3831 94.8701C65.2853 94.8708 65.1923 94.8281 65.1292 94.7534L64.1617 93.7237C64.0994 93.6539 64.0651 93.5634 64.0657 93.4698C64.071 93.3753 64.1128 93.2867 64.1824 93.2226L64.8068 92.6392C64.8818 92.5711 64.9823 92.5382 65.0831 92.5487C65.184 92.5591 65.2755 92.612 65.3351 92.6941L66.124 93.7924C66.2273 93.9206 66.2273 94.1035 66.124 94.2317L65.6713 94.7465C65.6073 94.8248 65.5116 94.8702 65.4105 94.8701L65.3831 94.8701ZM65.3762 93.9846L64.9233 93.4972L64.9851 93.4423L65.3762 93.9846Z" clip-rule="evenodd" fill="#231F20" fill-opacity="1.000000" fill-rule="evenodd"/>
	<path id="Path" d="M54.73 92.37C55.54 90.73 57.57 87.25 58.04 85.74C59.33 81.62 51.77 77.77 49.33 77.77C46.89 77.77 41.78 86.31 41.78 90.87C41.78 95.43 58.7 130.39 58.7 130.39L74.92 122.96L54.73 92.37Z" fill="#FFFFFF" fill-opacity="1.000000" fill-rule="nonzero"/>
	<path id="Shape" d="M58.7206 130.75C58.5858 130.75 58.4631 130.673 58.405 130.551C57.7189 129.124 41.4507 95.4605 41.4507 90.875C41.4507 86.2896 46.6104 77.4139 49.3344 77.4139C51.2144 77.4139 55.585 79.4183 57.5679 82.0817C58.4592 83.1215 58.7756 84.5366 58.4119 85.8571C57.7577 87.4757 56.9919 89.0469 56.1201 90.5593C55.7565 91.2457 55.4341 91.8635 55.1733 92.3509L75.2701 122.76C75.3268 122.847 75.3442 122.955 75.3181 123.055C75.2883 123.153 75.2184 123.233 75.126 123.275L58.8921 130.716C58.8406 130.747 58.78 130.759 58.7206 130.75ZM42.1643 90.875C42.1643 86.3583 47.1868 78.121 49.3344 78.121C50.9125 78.121 55.0773 79.9263 56.9916 82.5279C57.7444 83.3881 58.0197 84.5669 57.7257 85.6718C57.0848 87.247 56.3375 88.7767 55.4889 90.2504C55.0773 91.0192 54.6998 91.7262 54.4392 92.2479C54.3782 92.3591 54.3782 92.4937 54.4392 92.6049L74.4261 122.808L58.8853 129.934C57.2112 126.44 42.1643 95.076 42.1643 90.875Z" clip-rule="evenodd" fill="#231F20" fill-opacity="1.000000" fill-rule="evenodd"/>
	<path id="Path" d="M141.07 99.29L161.07 94.19C160.38 93.22 152.31 67.6 143.8 63.41C136.36 58.46 118.7 55.17 103.11 56.29C103.11 56.29 98.99 56.14 91.77 59C74.19 65.99 70.81 90.32 70.81 90.32L84.53 95.06C84.53 95.06 81.91 126.54 79.43 142.99C79.43 142.99 109.77 148.93 153.94 141.62C153.98 141.61 141.15 103.95 141.07 99.29Z" fill="#E7816B" fill-opacity="1.000000" fill-rule="nonzero"/>
	<path id="Path" d="M139.42 64.11C136.77 66.86 134.71 70.15 131.78 72.74C125.48 78.31 117.24 82.73 108.6 82.19C98.42 81.56 89.62 74.6 87.41 64.46C86.04 58.11 87.46 52.2 92.38 47.71C95.77 44.61 100.12 42.72 104.57 41.54C116.38 38.37 129.63 40.05 139.71 46.99C141.35 48 142.74 49.38 143.77 51.02C146.29 55.59 143.39 60.28 140.13 63.42C139.91 63.63 139.67 63.87 139.42 64.11Z" fill="#E7816B" fill-opacity="1.000000" fill-rule="nonzero"/>
	<path id="Path" d="M104.68 71.31C104.58 71.31 102.68 73.61 102.59 73.65C103.66 77.71 104.8 83 109.4 83.53C118.73 84.59 120.14 72.15 121.9 66.28C115.44 68.09 110.88 68.82 104.68 71.31Z" fill="#231F20" fill-opacity="1.000000" fill-rule="nonzero"/>
	<path id="Shape" d="M110.496 83.942C110.12 83.939 109.744 83.916 109.371 83.8733C104.781 83.3516 103.484 78.3818 102.434 74.4073L102.256 73.7209C102.222 73.5829 102.276 73.4382 102.393 73.357C102.503 73.2541 103.003 72.6706 103.367 72.245C104.431 71.0231 104.444 71.0163 104.554 70.9682C108.352 69.4993 112.25 68.3041 116.218 67.3919C117.968 66.9525 119.772 66.4995 121.776 65.9366C121.896 65.9031 122.025 65.9373 122.112 66.0258C122.196 66.1162 122.227 66.2434 122.195 66.3622C121.934 67.234 121.68 68.2636 121.406 69.3551C119.985 75.231 117.81 83.9351 110.496 83.942ZM103.072 74.2357L102.949 73.762L102.969 73.762C103.12 73.5973 103.388 73.2953 103.868 72.6775C104.225 72.2587 104.705 71.7096 104.842 71.5723C108.603 70.1163 112.464 68.937 116.397 68.044C117.954 67.6458 119.608 67.234 121.385 66.7466C121.179 67.488 120.973 68.3117 120.76 69.1697L120.756 69.1872C119.192 75.4597 117.055 84.0304 109.426 83.1594C105.302 82.7269 104.122 78.217 103.072 74.2357Z" clip-rule="evenodd" fill="#231F20" fill-opacity="1.000000" fill-rule="evenodd"/>
	<path id="Path" d="M113.71 23.43C112.34 23.37 111.46 23.97 110.28 24.4C107.98 25.21 106.91 23.28 104.93 22.26C98.52 18.92 90.64 20.58 86.11 26.21C84.74 27.83 83.85 29.8 83.55 31.9C83.26 34.28 83.92 36.71 83.51 39.06C83 41.8 81.11 44.08 78.52 45.1C80.71 45.27 82.92 45.06 85.05 44.48C83.81 45.95 82 46.81 80.08 46.85C82.27 48.53 84.96 49.43 87.72 49.41L82.88 50.54C87 53.18 92.01 53.97 96.86 53.75C106.53 53.25 122.7 49.3 122.42 36.78C122.27 31.98 119.63 23.7 113.71 23.43Z" fill="#FFFFFF" fill-opacity="1.000000" fill-rule="nonzero"/>
	<path id="Shape" d="M95.209 54.1641C91.5107 54.1641 86.7765 53.4777 82.6733 50.8555C82.5583 50.7788 82.4993 50.6416 82.5225 50.5054C82.5511 50.3722 82.6517 50.2663 82.7832 50.2308L85.4728 49.6061C83.4254 49.2572 81.4941 48.4136 79.8466 47.1487C79.7284 47.06 79.6802 46.9057 79.7269 46.7656C79.7736 46.6254 79.9047 46.5309 80.0524 46.5309C81.4612 46.5078 82.8214 46.0122 83.9153 45.1237C82.1246 45.4951 80.2904 45.6107 78.4674 45.4669C78.3083 45.4524 78.1803 45.33 78.1586 45.1717C78.1327 45.0113 78.2251 44.8553 78.3782 44.801C80.8721 43.8411 82.6901 41.6559 83.1812 39.0281C83.3462 37.7942 83.36 36.5448 83.2223 35.3076C83.115 34.166 83.115 33.0169 83.2223 31.8754C83.5344 29.7089 84.4471 27.6732 85.8571 25.9994C90.4961 20.2399 98.5521 18.5539 105.11 21.97C105.694 22.2894 106.25 22.6592 106.77 23.0752C107.882 23.9195 108.76 24.5854 110.201 24.0843C110.51 23.9744 110.798 23.8509 111.079 23.7342C111.917 23.3087 112.844 23.0898 113.783 23.0958C119.724 23.3566 122.702 31.4155 122.798 36.7834C122.922 42.474 119.814 46.9565 113.556 50.0935C107.299 53.2305 99.8335 53.9582 96.9175 54.1092C96.3411 54.1504 95.7854 54.1641 95.209 54.1641ZM96.8282 53.4777C93.2672 53.6493 88.183 53.306 83.7506 50.7319L87.785 49.7228C87.9557 49.6821 88.0681 49.5193 88.0458 49.3453C88.028 49.1704 87.8784 49.0387 87.7028 49.0432C85.3339 49.0665 83.0111 48.3882 81.0266 47.0938C82.6934 46.8278 84.2085 45.97 85.2944 44.6775C85.3804 44.5562 85.3804 44.3938 85.2944 44.2725C85.2123 44.1447 85.056 44.086 84.9102 44.1283C83.2604 44.5817 81.5574 44.8126 79.8466 44.8148C81.9241 43.5771 83.3669 41.5031 83.8055 39.1242C83.9814 37.8361 83.9999 36.5314 83.8604 35.2389C83.7574 34.1453 83.7574 33.0445 83.8604 31.9509C84.1647 29.9245 85.0271 28.0229 86.3511 26.4594C90.7822 20.9495 98.4861 19.3374 104.753 22.6084C105.302 22.9073 105.823 23.2541 106.311 23.6449C107.484 24.5373 108.595 25.3816 110.373 24.757C110.695 24.6471 110.997 24.5167 111.292 24.3932C112.039 24.0152 112.863 23.8155 113.7 23.8097C119.203 24.0774 121.941 31.7449 122.057 36.8521C122.174 42.2612 119.196 46.524 113.193 49.5306C106.983 52.6471 99.6826 53.3266 96.8282 53.4777Z" clip-rule="evenodd" fill="#231F20" fill-opacity="1.000000" fill-rule="evenodd"/>
	<path id="Path" d="M101.9 61.83L102.59 73.65C102.59 73.65 107.99 79.83 114.94 76.03C121.89 72.23 121.62 66.21 121.62 66.21L117.06 44.02C117.06 44.02 110.75 42.57 109.15 30.14C103.77 34.4 97.34 37.13 90.54 38.04C90.54 38.04 90.66 51.94 93.11 57.47C95.56 62.99 101.9 61.83 101.9 61.83Z" fill="#FFFFFF" fill-opacity="1.000000" fill-rule="nonzero"/>
	<path id="Shape" d="M110.379 77.6061C105.659 77.6061 102.372 73.9336 102.331 73.8787C102.28 73.822 102.251 73.749 102.249 73.6728L101.563 62.2161C100.115 62.3602 94.9552 62.4975 92.7802 57.5895C90.3307 52.0979 90.1865 38.5956 90.1797 38.0259C90.1809 37.8547 90.3058 37.7095 90.4747 37.6827C97.203 36.7649 103.565 34.0683 108.904 29.871C109 29.7868 109.135 29.763 109.254 29.8092C109.371 29.8547 109.455 29.9595 109.474 30.0838C110.283 36.3716 112.328 39.7283 113.899 41.4444C114.748 42.4695 115.865 43.2393 117.124 43.6684C117.253 43.7022 117.351 43.8059 117.378 43.9362L121.948 66.1494L121.948 66.1591C121.952 66.4579 122.044 72.5381 115.086 76.3362C113.65 77.1517 112.031 77.5887 110.379 77.6061ZM114.784 75.7115C108.52 79.1368 103.607 74.2357 102.921 73.4874L102.249 61.7767C102.241 61.6781 102.194 61.5866 102.118 61.5228C102.04 61.4647 101.94 61.4423 101.844 61.461L101.843 61.4611C101.588 61.5037 95.7355 62.4796 93.425 57.2806C91.2363 52.3313 90.8933 40.3461 90.8933 38.2867C97.432 37.3182 103.623 34.7218 108.897 30.7359C110.469 41.5817 115.628 43.8606 116.767 44.2382L121.289 66.2043L121.289 66.2082C121.292 66.3876 121.38 72.1001 114.784 75.7115Z" clip-rule="evenodd" fill="#231F20" fill-opacity="1.000000" fill-rule="evenodd"/>
	<path id="Path" d="M114.48 50.24C116.1 50.48 117.74 50.08 119.05 49.11C120.86 47.68 121.79 45.42 121.51 43.13C121.47 42.29 121.23 41.47 120.82 40.73C120.42 39.99 119.71 39.46 118.88 39.28C117.87 39.21 116.86 39.48 116.02 40.04C114.68 40.73 114.64 41.49 113.92 42.61C114 42.51 114.06 42.22 114.14 42.12L114.48 50.24Z" fill="#FFFFFF" fill-opacity="1.000000" fill-rule="nonzero"/>
	<path id="Path" d="M115.4 50.66C115.08 50.66 114.75 50.63 114.43 50.58C114.24 50.55 114.11 50.37 114.14 50.18C114.16 50.09 114.2 50.01 114.28 49.96C114.35 49.91 114.44 49.89 114.53 49.9C116.05 50.13 117.6 49.74 118.83 48.83C120.54 47.46 121.42 45.31 121.15 43.14C121.12 42.35 120.91 41.58 120.54 40.89C120.18 40.24 119.56 39.78 118.83 39.61C117.98 39.46 117.13 39.85 116.19 40.34C115.54 40.66 115.03 41.21 114.76 41.88C114.62 42.14 114.46 42.43 114.24 42.76C114.23 42.79 114.21 42.81 114.19 42.83C114.07 42.97 113.87 43 113.72 42.89C113.57 42.78 113.54 42.57 113.64 42.42C113.64 42.42 113.64 42.33 113.69 42.28C113.73 42.16 113.79 42.04 113.86 41.93C113.9 41.89 113.94 41.86 113.99 41.84L114.12 41.59C114.46 40.79 115.07 40.15 115.85 39.76C116.66 39.35 117.78 38.77 118.92 38.97C119.87 39.16 120.68 39.75 121.15 40.59C121.57 41.37 121.8 42.24 121.83 43.13C122.13 45.54 121.14 47.92 119.24 49.42C118.13 50.23 116.78 50.66 115.4 50.66Z" fill="#231F20" fill-opacity="1.000000" fill-rule="nonzero"/>
	<path id="Path" d="M102.26 68.05C105 67.85 107.47 66.31 108.85 63.93C111.27 59.88 110.31 57.3 110.31 57.3C110.31 57.3 107.04 61.46 101.9 61.8L102.26 68.05Z" fill="#231F20" fill-opacity="1.000000" fill-rule="nonzero"/>
	<path id="Shape" d="M102.263 68.3871C102.082 68.3873 101.934 68.2449 101.926 68.0645L101.563 61.8866C101.557 61.7955 101.588 61.7059 101.648 61.6377C101.709 61.5694 101.794 61.528 101.885 61.5228C106.805 61.207 110.009 57.1982 110.043 57.157C110.119 57.0582 110.243 57.0083 110.366 57.0266C110.487 57.0474 110.589 57.1309 110.633 57.2462C110.674 57.356 111.628 60.0332 109.144 64.1724C107.709 66.6448 105.135 68.2384 102.283 68.4215L102.263 68.3871ZM102.585 67.6801L102.263 62.1405C105.274 61.7484 108.051 60.3071 110.105 58.0699C110.229 59.031 110.187 61.0354 108.547 63.7811C107.271 65.9341 105.069 67.3739 102.585 67.6801Z" clip-rule="evenodd" fill="#231F20" fill-opacity="1.000000" fill-rule="evenodd"/>
	<path id="Path" d="M101 43.04C101 43.04 98.42 49.82 99.59 50.63C100.76 51.44 103.22 50.15 103.22 50.15L101 43.04Z" fill="#FFFFFF" fill-opacity="1.000000" fill-rule="nonzero"/>
	<path id="Path" d="M100.6 51.24C100.18 51.26 99.75 51.15 99.39 50.91C98.1 50.02 100.08 44.57 100.67 42.92C100.73 42.74 100.93 42.65 101.11 42.72C101.19 42.75 101.26 42.81 101.3 42.9C101.34 42.98 101.34 43.08 101.3 43.16C100.11 46.31 99.25 49.96 99.78 50.34C100.6 50.91 102.42 50.18 103.05 49.85C103.22 49.76 103.43 49.83 103.52 49.99C103.61 50.16 103.54 50.37 103.37 50.45C102.51 50.91 101.57 51.18 100.6 51.24Z" fill="#231F20" fill-opacity="1.000000" fill-rule="nonzero"/>
	<ellipse id="Oval" rx="0.994933" ry="1.407143" transform="matrix(0.951541 -0.307523 0.307523 0.951541 105.629 41.5331)" fill="#231F20" fill-opacity="1.000000"/>
	<ellipse id="Oval" rx="0.994891" ry="1.407203" transform="matrix(0.999907 -0.0136131 0.0136131 0.999907 96.4426 43.7108)" fill="#231F20" fill-opacity="1.000000"/>
	<path id="Shape" d="M101.817 59.3468C101.158 59.364 100.51 59.1744 99.964 58.8045C97.8027 57.2257 97.6449 53.7386 97.6381 53.5875C97.6342 53.4202 97.7491 53.2735 97.9125 53.2375C106.791 51.2948 106.887 51.3635 107.045 51.4802C107.124 51.5399 107.176 51.6289 107.189 51.7273C107.326 53.1112 107.136 54.5081 106.633 55.8047C106.021 57.4153 104.703 58.6553 103.058 59.1683C102.655 59.2851 102.237 59.3451 101.817 59.3468ZM100.355 58.2416C98.8044 57.1158 98.434 54.6859 98.3516 53.8553L98.3516 53.8484C101.178 53.2306 105.343 52.3382 106.523 52.1254C106.605 53.294 106.427 54.466 106.002 55.5576C105.458 56.9749 104.295 58.0649 102.846 58.5162C102.016 58.8014 101.103 58.7007 100.355 58.2416Z" clip-rule="evenodd" fill="#231F20" fill-opacity="1.000000" fill-rule="evenodd"/>
	<path id="Path" d="M106.31 55.69C105 58.88 101.7 59.64 100.14 58.53C100.49 57.32 101.13 56.05 102.31 55.59C103.62 55.15 105.03 55.18 106.31 55.69Z" fill="#231F20" fill-opacity="1.000000" fill-rule="nonzero"/>
	<path id="Shape" d="M101.816 59.3399C101.158 59.3582 100.511 59.1711 99.9639 58.8045C99.8479 58.72 99.7982 58.5711 99.8405 58.4338C100.307 56.7589 101.11 55.688 102.214 55.2693C103.588 54.8023 105.082 54.8339 106.434 55.3586C106.523 55.391 106.594 55.4578 106.633 55.5439C106.667 55.6299 106.667 55.7256 106.633 55.8116C106.017 57.4184 104.7 58.6549 103.058 59.1683C102.654 59.2825 102.236 59.3402 101.816 59.3399ZM102.846 58.5093C102.097 58.7584 101.281 58.7092 100.568 58.372C101 57.0678 101.617 56.2303 102.461 55.8871C103.562 55.5212 104.751 55.5212 105.851 55.8871C105.268 57.149 104.175 58.1027 102.846 58.5093Z" clip-rule="evenodd" fill="#231F20" fill-opacity="1.000000" fill-rule="evenodd"/>
	<path id="Shape" d="M90.2209 48.5216C89.2535 48.5213 88.4169 47.8471 88.2106 46.9016L87.4901 43.6273C87.2479 42.5166 87.9513 41.4196 89.0613 41.1767L96.7117 39.4949C97.2458 39.3765 97.8052 39.4758 98.2661 39.7707C98.7269 40.0657 99.0515 40.5321 99.1681 41.0669L99.8541 44.3412C100.085 45.4363 99.3995 46.5155 98.3104 46.7712L90.66 48.4461C90.5171 48.4883 90.3698 48.5136 90.2209 48.5216ZM96.8627 40.1608C96.9607 40.1506 97.0596 40.1506 97.1577 40.1608L97.1852 40.1402C97.8167 40.1493 98.3605 40.5884 98.5026 41.2041L99.1886 44.4785C99.3342 45.2039 98.8792 45.9143 98.1594 46.0847L90.509 47.8008C89.7839 47.9465 89.074 47.4912 88.9036 46.7712L88.1831 43.4488C88.0337 42.7189 88.4935 42.0031 89.2191 41.8357L96.8627 40.1608Z" clip-rule="evenodd" fill="#231F20" fill-opacity="1.000000" fill-rule="evenodd"/>
	<path id="Shape" d="M103.854 45.5356C103.46 45.5346 103.074 45.4203 102.743 45.2062C102.284 44.9119 101.961 44.4479 101.844 43.9156L101.158 40.6413C101.04 40.1083 101.139 39.5502 101.432 39.09C101.727 38.6272 102.193 38.3011 102.729 38.1839L110.373 36.509C110.907 36.3906 111.466 36.4898 111.927 36.7848C112.388 37.0797 112.712 37.5461 112.829 38.0809L113.515 41.3552C113.763 42.4575 113.078 43.5541 111.978 43.8127L104.335 45.4876C104.176 45.5189 104.016 45.535 103.854 45.5356ZM110.496 37.1954C110.593 37.1738 110.692 37.1623 110.791 37.1611C111.435 37.1582 111.994 37.6035 112.136 38.2319L112.822 41.5062C112.899 41.8574 112.835 42.2246 112.644 42.529C112.448 42.8294 112.143 43.0413 111.793 43.1194L104.142 44.7943C103.417 44.94 102.707 44.4846 102.537 43.7646L101.817 40.4903C101.742 40.1383 101.808 39.771 102.002 39.4675C102.194 39.1639 102.501 38.951 102.853 38.8772L110.496 37.1954Z" clip-rule="evenodd" fill="#231F20" fill-opacity="1.000000" fill-rule="evenodd"/>
	<path id="Path" d="M98.81 41.49C98.75 41.5 98.69 41.48 98.63 41.45C98.47 41.35 98.41 41.13 98.5 40.97C98.83 40.41 99.88 39.54 101.6 40.23C101.79 40.3 101.88 40.52 101.81 40.71C101.74 40.89 101.53 40.99 101.34 40.92C99.8 40.3 99.18 41.24 99.12 41.35C99.05 41.45 98.93 41.5 98.81 41.49Z" fill="#231F20" fill-opacity="1.000000" fill-rule="nonzero"/>
	<path id="Path" d="M30.46 132.87L171.53 132.87L194.17 174.23L7.83 174.23L30.46 132.87Z" fill="#FFFFFF" fill-opacity="1.000000" fill-rule="nonzero"/>
	<path id="Shape" d="M194.17 174.58L7.8302 174.58C7.71008 174.579 7.59875 174.517 7.53516 174.415C7.47656 174.308 7.47656 174.178 7.53516 174.072L30.1775 132.714C30.2367 132.602 30.3533 132.533 30.4794 132.535L171.527 132.535C171.654 132.533 171.77 132.602 171.829 132.714L194.472 174.072C194.53 174.178 194.53 174.308 194.472 174.415C194.407 174.519 194.292 174.581 194.17 174.58ZM193.587 173.893L8.41345 173.893L30.6715 133.222L171.328 133.222L193.587 173.893Z" clip-rule="evenodd" fill="#D1D3D4" fill-opacity="1.000000" fill-rule="evenodd"/>
	<path id="Path" d="M32.65 106.19L32.95 104.89C33.64 103.58 34.4 102.7 36.17 102.7L103.32 102.7C104.99 102.71 106.46 103.81 106.92 105.41L117.84 142.93C118.42 144.6 117.61 146.44 115.98 147.12L114.79 147.41L32.65 106.19Z" fill="#FFFFFF" fill-opacity="1.000000" fill-rule="nonzero"/>
	<path id="Shape" d="M114.798 147.753C114.746 147.752 114.695 147.74 114.647 147.719L32.5035 106.492C32.3607 106.422 32.2864 106.261 32.3252 106.107L32.6271 104.803C32.6241 104.773 32.6241 104.743 32.6271 104.714C33.3132 103.471 34.1023 102.352 36.147 102.352L103.299 102.352C105.117 102.36 106.715 103.559 107.23 105.304L118.153 142.873C118.79 144.713 117.889 146.732 116.095 147.486L114.867 147.781L114.798 147.753ZM114.867 147.046L33.073 106.011L33.2789 105.016C34.0062 103.739 34.6581 103.052 36.1743 103.052L103.347 103.052C104.86 103.06 106.19 104.058 106.62 105.51L117.536 143.031C117.927 144.39 117.584 146.154 115.93 146.799L114.867 147.046Z" clip-rule="evenodd" fill="#231F20" fill-opacity="1.000000" fill-rule="evenodd"/>
	<path id="Path" d="M114.79 147.41L46.27 147.41C45.31 147.39 44.48 146.76 44.21 145.84L32.68 106.19C32.59 105.88 32.65 105.55 32.84 105.3C33.04 105.04 33.34 104.89 33.66 104.89L104.01 104.89L115.93 145.89C116.04 146.25 115.97 146.64 115.75 146.93C115.52 147.23 115.17 147.41 114.79 147.41Z" fill="#231F20" fill-opacity="1.000000" fill-rule="nonzero"/>
	<path id="Shape" d="M114.798 147.753L46.2742 147.753C45.1577 147.748 44.1766 147.012 43.859 145.941L32.3251 106.292C32.2122 105.882 32.2964 105.441 32.5531 105.101C32.8097 104.761 33.2097 104.56 33.6356 104.556L104.019 104.556C104.168 104.553 104.301 104.652 104.341 104.796L116.266 145.797C116.4 146.259 116.309 146.757 116.02 147.142C115.731 147.526 115.279 147.753 114.798 147.753ZM33.0984 105.508C33.2258 105.339 33.4241 105.239 33.6356 105.235L103.745 105.235L115.615 145.989C115.69 146.243 115.641 146.518 115.484 146.731C115.321 146.944 115.067 147.069 114.798 147.067L46.2742 147.067C45.4602 147.065 44.7438 146.529 44.5107 145.749L32.9838 106.1C32.9287 105.896 32.9711 105.677 33.0984 105.508Z" clip-rule="evenodd" fill="#231F20" fill-opacity="1.000000" fill-rule="evenodd"/>
	<path id="Path" d="M103.3 130.51L99.14 148.23C98.68 150.18 96.94 151.56 94.94 151.56L51.59 151.56C50.28 151.56 49.03 150.95 48.21 149.92C47.39 148.89 47.09 147.54 47.39 146.25L51.07 130.51L47.48 130.51L43.96 145.44C43.43 147.77 43.98 150.22 45.47 152.09C46.95 153.96 49.21 155.05 51.6 155.05L94.97 155.05C98.59 155.05 101.73 152.57 102.57 149.05L106.92 130.51L103.3 130.51Z" fill="#FFFFFF" fill-opacity="1.000000" fill-rule="nonzero"/>
	<path id="Shape" d="M94.9414 155.449L51.5985 155.449C49.0986 155.448 46.736 154.304 45.184 152.344C43.6318 150.383 43.0604 147.82 43.6326 145.385L47.1387 130.448C47.1769 130.294 47.3159 130.186 47.4749 130.188L51.0977 130.188C51.2018 130.189 51.2999 130.237 51.3652 130.318C51.4291 130.399 51.4519 130.506 51.427 130.606L47.7288 146.346C47.4525 147.529 47.7308 148.773 48.4845 149.725C49.2382 150.676 50.3848 151.232 51.5985 151.234L94.9689 151.234C96.8156 151.237 98.4202 149.965 98.8387 148.165L103.004 130.448C103.039 130.295 103.176 130.187 103.333 130.188L106.956 130.188C107.059 130.19 107.157 130.237 107.222 130.318C107.286 130.399 107.312 130.505 107.292 130.606L102.935 149.14C102.072 152.854 98.7523 155.474 94.9414 155.449ZM44.2844 145.543L47.7151 130.874L50.6586 130.874L47.0632 146.188C46.7361 147.575 47.0607 149.035 47.9446 150.152C48.8285 151.269 50.1744 151.921 51.5985 151.92L94.9552 151.92C97.1218 151.93 99.0059 150.436 99.4905 148.323L103.607 130.874L106.523 130.874L102.269 148.975C101.482 152.371 98.4534 154.772 94.9689 154.762L51.5985 154.762C49.3046 154.769 47.1339 153.724 45.7078 151.926C44.2816 150.129 43.7571 147.777 44.2844 145.543Z" clip-rule="evenodd" fill="#231F20" fill-opacity="1.000000" fill-rule="evenodd"/>
	<path id="Path" d="M159.19 94.38C159.19 94.38 165.33 121.64 160.3 128.6C155.28 135.56 120.21 134.46 120.21 134.46C120.21 134.46 114.52 141.29 109.58 140.84C104.64 140.38 107.52 131.03 113.33 127.14L112.53 123.9L143.45 118.93L139.34 99.35L159.19 94.38Z" fill="#FFFFFF" fill-opacity="1.000000" fill-rule="nonzero"/>
	<path id="Path" d="M110.03 141.2C109.86 141.2 109.69 141.2 109.52 141.2C108.2 141.13 107.1 140.19 106.83 138.9C106.05 135.86 108.54 130.06 112.91 127.01L112.17 124C112.14 123.91 112.16 123.81 112.21 123.73C112.26 123.65 112.34 123.59 112.44 123.58L143.01 118.67L138.96 99.45C138.94 99.36 138.96 99.27 139.01 99.19C139.06 99.12 139.14 99.06 139.23 99.05C139.32 99.03 139.41 99.04 139.48 99.09C139.56 99.14 139.61 99.22 139.63 99.31L143.75 118.89C143.77 118.98 143.75 119.08 143.69 119.16C143.64 119.24 143.56 119.29 143.47 119.3L112.91 124.21L113.6 127.09C113.64 127.23 113.58 127.38 113.46 127.46C109.26 130.27 106.75 135.94 107.47 138.75C107.66 139.75 108.51 140.49 109.52 140.53C114.22 140.97 119.82 134.35 119.86 134.27C119.92 134.19 120.03 134.15 120.13 134.15C120.48 134.15 155.12 135.16 159.97 128.42C164.81 121.69 158.87 94.79 158.81 94.49C158.78 94.37 158.82 94.24 158.92 94.16C159.01 94.07 159.14 94.05 159.26 94.08C159.38 94.12 159.47 94.22 159.5 94.34C159.75 95.46 165.6 121.8 160.54 128.83C155.6 135.7 123.23 134.93 120.3 134.84C119.52 135.74 114.63 141.2 110.03 141.2Z" fill="#231F20" fill-opacity="1.000000" fill-rule="nonzero"/>
	<path id="Path" d="M122.4 80.89C122.34 80.89 122.29 80.87 122.25 80.85C122.16 80.81 122.09 80.74 122.06 80.65C122.03 80.56 122.04 80.46 122.08 80.38C127.06 70.08 139.85 63.16 139.98 63.09C140.06 63.04 140.16 63.03 140.25 63.06C140.34 63.09 140.41 63.15 140.45 63.23C140.5 63.32 140.51 63.41 140.48 63.5C140.46 63.6 140.39 63.67 140.31 63.71C140.19 63.78 127.6 70.58 122.72 80.69C122.66 80.81 122.53 80.89 122.4 80.89Z" fill="#231F20" fill-opacity="1.000000" fill-rule="nonzero"/>
	<path id="Path" d="M101.25 80.4C101.2 80.41 101.15 80.41 101.1 80.4C89.15 74.91 87.7 62.84 87.68 62.73C87.66 62.53 87.8 62.36 88 62.33C88.09 62.32 88.19 62.35 88.26 62.41C88.33 62.47 88.38 62.55 88.39 62.64C88.39 62.76 89.82 74.44 101.43 79.69C101.6 79.78 101.68 79.98 101.61 80.16C101.55 80.31 101.41 80.41 101.25 80.4Z" fill="#231F20" fill-opacity="1.000000" fill-rule="nonzero"/>
	<path id="Path" d="M46.79 95.96C46.64 95.92 46.53 95.78 46.53 95.62C46.53 95.46 46.64 95.32 46.79 95.28C51.96 95.12 54.48 92.19 54.5 92.17C54.56 92.1 54.65 92.05 54.74 92.04C54.83 92.03 54.93 92.06 55 92.12C55.15 92.24 55.17 92.47 55.04 92.62C54.94 92.75 52.3 95.82 46.81 95.98L46.79 95.96Z" fill="#231F20" fill-opacity="1.000000" fill-rule="nonzero"/>
	<path id="Path" d="M139.3 99.7C139.13 99.7 138.99 99.59 138.95 99.43C138.95 99.31 135.72 86.66 135.27 79.07C135.27 78.98 135.3 78.89 135.36 78.82C135.42 78.75 135.51 78.7 135.6 78.7C135.8 78.69 135.97 78.83 135.98 79.03C136.43 86.55 139.61 99.13 139.64 99.26C139.69 99.45 139.57 99.64 139.38 99.69L139.3 99.7Z" fill="#231F20" fill-opacity="1.000000" fill-rule="nonzero"/>
	<path id="Path" d="M83.99 101.96C83.9 101.95 83.81 101.91 83.75 101.84C83.69 101.77 83.66 101.67 83.66 101.58L85.37 74.91C85.37 74.82 85.41 74.73 85.48 74.67C85.56 74.6 85.65 74.57 85.74 74.58C85.84 74.58 85.92 74.63 85.99 74.7C86.05 74.77 86.08 74.86 86.07 74.95L84.34 101.62C84.34 101.81 84.18 101.96 83.99 101.96Z" fill="#231F20" fill-opacity="1.000000" fill-rule="nonzero"/>
	<path id="Path" d="M144.74 87.04C144.61 87.04 144.49 86.97 144.43 86.85L141.11 80.68C141.08 80.59 141.08 80.49 141.11 80.39C141.14 80.3 141.21 80.23 141.3 80.18L151.59 75.32C151.67 75.27 151.77 75.27 151.86 75.3C151.95 75.33 152.02 75.39 152.06 75.48C152.15 75.66 152.07 75.87 151.9 75.95L141.92 80.66L144.93 86.24L155.03 83.15C155.16 83.11 155.29 83.14 155.38 83.23C155.48 83.32 155.52 83.45 155.49 83.57C155.46 83.7 155.36 83.8 155.24 83.83L144.85 87.05L144.74 87.04Z" fill="#231F20" fill-opacity="1.000000" fill-rule="nonzero"/>
	<ellipse id="Oval" cx="153.660522" cy="160.274200" rx="16.940584" ry="5.100254" fill="#FFFFFF" fill-opacity="1.000000"/>
	<path id="Shape" d="M136.377 160.274C136.377 163.329 143.972 165.718 153.661 165.718C163.349 165.718 170.944 163.329 170.944 160.274C170.944 157.22 163.349 154.831 153.661 154.831C143.972 154.831 136.377 157.22 136.377 160.274ZM137.063 160.274C137.063 157.975 143.732 155.517 153.661 155.517C163.589 155.517 170.258 157.975 170.258 160.274C170.258 162.574 163.589 165.031 153.661 165.031C143.732 165.031 137.063 162.574 137.063 160.274Z" clip-rule="evenodd" fill="#D1D3D4" fill-opacity="1.000000" fill-rule="evenodd"/>
	<path id="Path" d="M140.89 145.7L140.48 145.78C139.26 145.96 138.14 146.59 137.35 147.54C136.45 148.92 136.41 150.7 137.25 152.12C139.05 155.36 143.42 156.24 146.8 156.58C147.28 156.65 147.77 156.62 148.23 156.47C148.69 156.31 149.01 155.87 149.02 155.38C148.96 154.98 148.7 154.64 148.33 154.47C147.98 154.31 147.6 154.2 147.21 154.15C145.11 153.81 142.9 153.56 140.98 152.59C139.86 152.02 138.3 150.72 139.12 149.32C139.4 148.88 139.81 148.53 140.3 148.32C142.23 147.4 144.06 148.1 145.96 148.66C146.1 148.71 146.24 148.73 146.39 148.72C146.77 148.62 147 148.25 146.95 147.87C146.88 147.03 146.05 146.49 145.27 146.18C143.87 145.65 142.37 145.49 140.89 145.7Z" fill="#FFFFFF" fill-opacity="1.000000" fill-rule="nonzero"/>
	<path id="Shape" d="M147.376 156.959C147.176 156.958 146.977 156.946 146.779 156.924C141.626 156.437 138.415 154.927 136.953 152.291C136.045 150.753 136.096 148.83 137.084 147.342C137.925 146.322 139.112 145.648 140.418 145.447L140.844 145.372C142.389 145.141 143.968 145.314 145.427 145.873C146.113 146.127 147.231 146.724 147.321 147.843C147.392 148.41 147.026 148.939 146.47 149.072C146.275 149.084 146.079 149.059 145.894 148.996L145.4 148.845C143.712 148.33 142.12 147.85 140.48 148.632C140.055 148.812 139.694 149.116 139.444 149.504C139.263 149.79 139.216 150.141 139.314 150.465C139.69 151.276 140.349 151.923 141.166 152.284C142.87 153.026 144.677 153.503 146.525 153.698L147.3 153.822C147.726 153.868 148.141 153.987 148.528 154.172C149.094 154.385 149.454 154.943 149.415 155.547C149.375 156.15 148.946 156.657 148.357 156.794C148.042 156.908 147.71 156.964 147.376 156.959ZM140.555 146.12L140.947 146.051L140.947 146.065C142.374 145.851 143.832 146.01 145.18 146.525C145.599 146.676 146.58 147.129 146.635 147.898C146.648 148.104 146.545 148.385 146.381 148.385C146.282 148.387 146.185 148.371 146.093 148.337L145.599 148.186C143.863 147.657 142.065 147.115 140.185 148.014C139.636 148.25 139.172 148.648 138.854 149.154C138.575 149.606 138.503 150.155 138.655 150.664C139.083 151.658 139.869 152.454 140.857 152.895C142.622 153.673 144.497 154.174 146.415 154.378L147.19 154.501C147.539 154.537 147.88 154.63 148.199 154.776C148.454 154.893 148.634 155.13 148.679 155.407C148.656 155.75 148.428 156.045 148.103 156.156C147.694 156.279 147.262 156.307 146.84 156.238C141.935 155.778 138.895 154.378 137.557 151.961C136.777 150.657 136.807 149.022 137.633 147.747C138.377 146.868 139.416 146.289 140.555 146.12Z" clip-rule="evenodd" fill="#231F20" fill-opacity="1.000000" fill-rule="evenodd"/>
	<path id="Path" d="M142.47 142.23C142.47 142.23 145.64 158.06 145.9 159.01C146.16 159.97 153.66 163.89 159.63 160.04L164.85 143.86L142.47 142.23Z" fill="#FFFFFF" fill-opacity="1.000000" fill-rule="nonzero"/>
	<path id="Shape" d="M153.791 162.052C151.997 162.037 150.221 161.698 148.549 161.05C147.231 160.542 145.736 159.718 145.571 159.107C145.317 158.153 142.271 142.955 142.14 142.303C142.115 142.199 142.142 142.088 142.213 142.008C142.284 141.927 142.39 141.886 142.497 141.898L164.872 143.559C164.978 143.564 165.075 143.619 165.135 143.707C165.194 143.795 165.208 143.905 165.174 144.006L159.952 160.185C159.927 160.259 159.876 160.323 159.808 160.363C158.01 161.502 155.918 162.089 153.791 162.052ZM146.237 158.929C146.01 158.084 143.417 145.186 142.902 142.612L164.412 144.177L159.362 159.821C155.753 162.073 151.815 161.366 149.756 160.741C147.568 160.075 146.333 159.155 146.237 158.929Z" clip-rule="evenodd" fill="#231F20" fill-opacity="1.000000" fill-rule="evenodd"/>
	<ellipse id="Oval" rx="4.859996" ry="11.218257" transform="matrix(0.0410037 -0.999159 0.999159 0.0410037 153.696 142.697)" fill="#231F20" fill-opacity="1.000000"/>
	<path id="Shape" d="M154.566 147.918L153.475 147.918C146.991 147.657 142.01 145.173 142.134 142.248C142.257 139.324 147.424 137.265 153.901 137.532C160.378 137.8 165.359 140.278 165.236 143.202C165.181 144.644 163.863 145.948 161.592 146.799C159.337 147.592 156.956 147.971 154.566 147.918ZM142.813 142.283C142.909 139.949 147.403 138.164 152.844 138.164L153.901 138.185C159.781 138.425 164.687 140.697 164.584 143.147C164.536 144.28 163.369 145.372 161.38 146.134C158.853 147.019 156.176 147.395 153.503 147.239C147.616 146.998 142.717 144.726 142.813 142.283Z" clip-rule="evenodd" fill="#231F20" fill-opacity="1.000000" fill-rule="evenodd"/>
	<path id="Shape" d="M126.846 98.2542L90.5432 98.2542C90.3538 98.2542 90.2002 98.1006 90.2002 97.911L90.2002 87.1888C90.2039 87.0008 90.3553 86.8492 90.5432 86.8456L126.846 86.8456C127.036 86.8456 127.19 86.9992 127.19 87.1888L127.19 97.9316C127.179 98.1131 127.028 98.2545 126.846 98.2542ZM126.503 97.5678L90.8864 97.5678L90.8864 87.532L126.503 87.532L126.503 97.5678Z" clip-rule="evenodd" fill="#FFFFFF" fill-opacity="1.000000" fill-rule="evenodd"/>
	<rect id="Rectangle" x="7.830200" y="174.236328" width="186.332703" height="7.187034" fill="#FFFFFF" fill-opacity="1.000000"/>
	<path id="Shape" d="M7.8302 181.767L194.17 181.767C194.359 181.767 194.513 181.613 194.513 181.423L194.513 174.236C194.509 174.048 194.358 173.897 194.17 173.893L7.8302 173.893C7.64233 173.897 7.49084 174.048 7.48718 174.236L7.48718 181.423C7.48718 181.613 7.64075 181.767 7.8302 181.767ZM193.827 181.08L8.17334 181.08L8.17334 174.58L193.827 174.58L193.827 181.08Z" clip-rule="evenodd" fill="#D1D3D4" fill-opacity="1.000000" fill-rule="evenodd"/>
	<path id="Path" d="M164.84 107.11C164.65 107.1 164.5 106.95 164.5 106.76C164.5 105.97 165 87.36 167.06 80.92C169.11 74.47 172.96 71.79 173.11 71.68C173.27 71.58 173.49 71.62 173.59 71.78C173.7 71.93 173.66 72.15 173.5 72.25C173.46 72.25 169.7 74.86 167.71 81.12C165.71 87.39 165.2 106.58 165.19 106.78C165.19 106.87 165.15 106.95 165.08 107.02C165.02 107.08 164.93 107.11 164.84 107.11Z" fill="#FFFFFF" fill-opacity="1.000000" fill-rule="nonzero"/>
</svg>
