<svg width="202" height="202" fill="none" xmlns="http://www.w3.org/2000/svg"><defs><linearGradient x1="-101" y1="101" x2="101" y2="101" id="a" gradientUnits="userSpaceOnUse"><stop stop-color="#5D0202" stop-opacity="0"/><stop offset="1" stop-color="#5D0202" stop-opacity=".498"/></linearGradient></defs><g opacity=".203" transform="matrix(-1 0 0 1 101 101)"><circle r="101" fill="url(#a)"/><circle r="101"/></g><path d="M164.84 138.13s22.59-58.96 10.89-67.96c-11.71-8.99-60.8-5.36-63.49-2.14-2.69 3.21-18.52 74.19-18.52 74.19l71.12-4.09Z" fill="#231F20"/><path d="M93.686 142.578a.359.359 0 0 1-.26-.117.329.329 0 0 1-.07-.295c.646-2.904 15.912-71.102 18.629-74.342 1.489-1.778 14.594-3.432 28.619-3.617 8.233-.11 28.193.226 35.342 5.71 4.975 3.817 4.659 16.475-.933 37.7-4.117 15.699-9.791 30.492-9.846 30.636a.336.336 0 0 1-.302.22l-71.159 4.118-.02-.013Zm46.931-77.705h2.58c15.953 0 27.665 2.01 32.31 5.573 11.033 8.464-9.475 63.51-10.923 67.347l-70.486 4.064c5.516-24.643 16.33-71.13 18.388-73.607 1.201-1.407 13.723-3.185 28.131-3.377Z" clip-rule="evenodd" fill="#231F20" fill-rule="evenodd"/><path d="m73.1 87.18-10.19 34.2s21.01 2.71 21.01 1.93c0-.77 4.11-37.62 4.11-37.62L73.1 87.18Z" fill="#FFF"/><path d="M82.866 123.762c-3.548 0-13.613-1.221-19.987-2.059a.349.349 0 0 1-.289-.439l10.183-34.192a.343.343 0 0 1 .295-.247l14.944-1.496a.336.336 0 0 1 .274.103c.075.07.11.172.096.274-1.42 12.7-4.117 36.896-4.117 37.59a.44.44 0 0 1-.137.295 2.829 2.829 0 0 1-1.262.171Zm.7-.665c-1.592.226-12.927-1.071-20.228-2.005l10.004-33.58 14.285-1.435c-.46 4.125-3.8 34.054-4.062 37.02Z" clip-rule="evenodd" fill="#231F20" fill-rule="evenodd"/><path d="M53.8 78.69c.09.1 3.7-.87 5.57 1.38 1.86 2.24-.56 4.24-6.45 3.08-5.9-1.16.88-4.46.88-4.46Z" fill="#FFF"/><path d="M56.031 83.839a16.761 16.761 0 0 1-3.177-.336c-1.701-.337-2.58-.886-2.683-1.69-.199-1.55 2.862-3.122 3.479-3.431a.344.344 0 0 1 .22 0h.226l.02-.003c.981-.119 3.875-.47 5.524 1.506.741.879.899 1.778.46 2.533-.57.9-2.045 1.42-4.069 1.42Zm-5.16-2.149c-.096-.762 1.668-1.97 3.005-2.656.083 0 .179 0 .31-.028.953-.123 3.499-.439 4.912 1.25.483.43.64 1.119.391 1.716-.508.858-2.511 1.586-6.498.803-1.763-.35-2.12-.83-2.12-1.085Z" clip-rule="evenodd" fill="#231F20" fill-rule="evenodd"/><path d="M44.73 71.52s-.74-.85-.27-1.45c.21-.25.53-.37.85-.34.33.03.62.21.78.49 0 0-1.17.42-1.36 1.3Z" fill="#FFF"/><path d="M44.737 71.874a.357.357 0 0 1-.267-.116c-.343-.398-.796-1.25-.282-1.895.233-.306.596-.487.982-.487.474.008.916.24 1.193.624.077.09.103.21.069.323a.35.35 0 0 1-.22.24c-.274.096-1.008.48-1.132 1.037a.35.35 0 0 1-.254.268l-.089.006Zm.014-1.578a.562.562 0 0 1 .432-.213l.007.027a.556.556 0 0 1 .302.041 2.697 2.697 0 0 0-.741.632.528.528 0 0 1 0-.487Z" clip-rule="evenodd" fill="#231F20" fill-rule="evenodd"/><path d="M46.35 70.19c-.84.07-1.53.69-1.67 1.52l14.71 19.16a4.121 4.121 0 0 1 3.52-3.67L46.35 70.19Z" fill="#FFF"/><path d="M59.393 91.225a.35.35 0 0 1-.274-.137L44.4 71.929a.357.357 0 0 1-.062-.309 2.237 2.237 0 0 1 2.018-1.784c.096 0 .187.04.254.11l16.563 17.01a.343.343 0 0 1 .082.356.35.35 0 0 1-.274.24 3.76 3.76 0 0 0-3.232 3.35.35.35 0 0 1-.254.31l-.103.013Zm-.178-1.174L45.073 71.648a1.51 1.51 0 0 1 1.153-1.085l16 16.434a4.393 4.393 0 0 0-3.011 3.054Z" clip-rule="evenodd" fill="#231F20" fill-rule="evenodd"/><path d="m59.39 90.87 5.03 2.61.62-.58-2.13-5.7s-3.91-.39-3.52 3.67Z" fill="#FFF"/><path d="M64.422 93.834a.329.329 0 0 1-.164-.042l-5.023-2.608a.35.35 0 0 1-.192-.281 3.653 3.653 0 0 1 .885-3.076 4.116 4.116 0 0 1 3.026-.981.357.357 0 0 1 .302.233l2.12 5.698a.35.35 0 0 1-.09.384l-.624.583a.364.364 0 0 1-.24.09Zm-.061-.783-4.625-2.403a2.884 2.884 0 0 1 .686-2.32 3.354 3.354 0 0 1 2.25-.782l1.963 5.258-.274.247Z" clip-rule="evenodd" fill="#231F20" fill-rule="evenodd"/><path d="m64.42 93.48.96 1.03.45-.52-.79-1.09-.62.58Z" fill="#FFF"/><path d="M65.383 94.87a.33.33 0 0 1-.254-.117l-.967-1.03a.378.378 0 0 1-.096-.253.364.364 0 0 1 .116-.247l.625-.584a.356.356 0 0 1 .528.055l.789 1.098a.35.35 0 0 1 0 .44l-.453.514a.336.336 0 0 1-.26.124h-.028Zm-.007-.885-.453-.488.062-.055.391.543Z" clip-rule="evenodd" fill="#231F20" fill-rule="evenodd"/><path d="M54.73 92.37c.81-1.64 2.84-5.12 3.31-6.63 1.29-4.12-6.27-7.97-8.71-7.97-2.44 0-7.55 8.54-7.55 13.1 0 4.56 16.92 39.52 16.92 39.52l16.22-7.43-20.19-30.59Z" fill="#FFF"/><path d="M58.72 130.75a.349.349 0 0 1-.315-.199c-.686-1.427-16.954-35.09-16.954-39.676 0-4.585 5.16-13.461 7.883-13.461 1.88 0 6.251 2.004 8.234 4.668a4.12 4.12 0 0 1 .844 3.775 37.715 37.715 0 0 1-2.292 4.702c-.363.687-.686 1.305-.947 1.792L75.27 122.76a.371.371 0 0 1 .048.295.354.354 0 0 1-.192.22l-16.234 7.441a.258.258 0 0 1-.171.034ZM42.165 90.875c0-4.517 5.023-12.754 7.17-12.754 1.578 0 5.743 1.805 7.658 4.407a3.433 3.433 0 0 1 .734 3.144 37.485 37.485 0 0 1-2.237 4.578c-.412.77-.79 1.476-1.05 1.998a.371.371 0 0 0 0 .357l19.987 30.203-15.54 7.126c-1.675-3.494-16.722-34.858-16.722-39.059Z" clip-rule="evenodd" fill="#231F20" fill-rule="evenodd"/><path d="m141.07 99.29 20-5.1c-.69-.97-8.76-26.59-17.27-30.78-7.44-4.95-25.1-8.24-40.69-7.12 0 0-4.12-.15-11.34 2.71-17.58 6.99-20.96 31.32-20.96 31.32l13.72 4.74s-2.62 31.48-5.1 47.93c0 0 30.34 5.94 74.51-1.37.04-.01-12.79-37.67-12.87-42.33Z" fill="#E7816B"/><path d="M139.42 64.11c-2.65 2.75-4.71 6.04-7.64 8.63-6.3 5.57-14.54 9.99-23.18 9.45-10.18-.63-18.98-7.59-21.19-17.73-1.37-6.35.05-12.26 4.97-16.75 3.39-3.1 7.74-4.99 12.19-6.17 11.81-3.17 25.06-1.49 35.14 5.45 1.64 1.01 3.03 2.39 4.06 4.03 2.52 4.57-.38 9.26-3.64 12.4-.22.21-.46.45-.71.69Z" fill="#E7816B"/><path d="M104.68 71.31c-.1 0-2 2.3-2.09 2.34 1.07 4.06 2.21 9.35 6.81 9.88 9.33 1.06 10.74-11.38 12.5-17.25-6.46 1.81-11.02 2.54-17.22 5.03Z" fill="#231F20"/><path d="M110.496 83.942a10.644 10.644 0 0 1-1.125-.069c-4.59-.521-5.887-5.491-6.937-9.466l-.178-.686a.343.343 0 0 1 .137-.364c.11-.103.61-.686.974-1.112 1.064-1.222 1.077-1.229 1.187-1.277a85.343 85.343 0 0 1 11.664-3.576c1.75-.44 3.554-.892 5.558-1.455.12-.034.249 0 .336.089.084.09.115.217.083.336-.261.872-.515 1.902-.789 2.993-1.421 5.876-3.596 14.58-10.91 14.587Zm-7.424-9.706-.123-.474h.02c.151-.165.419-.467.899-1.085.357-.418.837-.967.974-1.105a82.761 82.761 0 0 1 11.555-3.528c1.557-.398 3.211-.81 4.988-1.297a93.313 93.313 0 0 0-.625 2.423l-.004.017c-1.564 6.273-3.701 14.843-11.33 13.972-4.124-.432-5.304-4.942-6.354-8.923Z" clip-rule="evenodd" fill="#231F20" fill-rule="evenodd"/><path d="M113.71 23.43c-1.37-.06-2.25.54-3.43.97-2.3.81-3.37-1.12-5.35-2.14-6.41-3.34-14.29-1.68-18.82 3.95a11.285 11.285 0 0 0-2.56 5.69c-.29 2.38.37 4.81-.04 7.16a8.087 8.087 0 0 1-4.99 6.04c2.19.17 4.4-.04 6.53-.62a6.68 6.68 0 0 1-4.97 2.37c2.19 1.68 4.88 2.58 7.64 2.56l-4.84 1.13c4.12 2.64 9.13 3.43 13.98 3.21 9.67-.5 25.84-4.45 25.56-16.97-.15-4.8-2.79-13.08-8.71-13.35Z" fill="#FFF"/><path d="M95.209 54.164c-3.698 0-8.433-.686-12.536-3.309a.35.35 0 0 1-.15-.35.363.363 0 0 1 .26-.274l2.69-.625a12.758 12.758 0 0 1-5.626-2.457.343.343 0 0 1 .205-.618 6.29 6.29 0 0 0 3.863-1.407c-1.79.371-3.625.487-5.448.343a.343.343 0 0 1-.308-.295.336.336 0 0 1 .22-.371 7.701 7.701 0 0 0 4.802-5.773 15.3 15.3 0 0 0 .041-3.72 18.338 18.338 0 0 1 0-3.433A11.713 11.713 0 0 1 85.857 26a15.516 15.516 0 0 1 19.253-4.029c.584.32 1.14.69 1.66 1.105 1.112.845 1.99 1.51 3.431 1.01.309-.11.597-.234.878-.35a5.89 5.89 0 0 1 2.704-.64c5.941.262 8.919 8.32 9.015 13.688.124 5.691-2.984 10.173-9.242 13.31-6.257 3.137-13.722 3.865-16.638 4.016a23.66 23.66 0 0 1-1.709.055Zm1.62-.686c-3.562.171-8.646-.172-13.078-2.746l4.034-1.01a.343.343 0 0 0 .26-.377.336.336 0 0 0-.342-.302 12.004 12.004 0 0 1-6.676-1.95 7.019 7.019 0 0 0 4.267-2.416.35.35 0 0 0 0-.404.343.343 0 0 0-.384-.145c-1.65.454-3.353.685-5.063.687a8.395 8.395 0 0 0 3.959-5.69c.175-1.289.194-2.594.054-3.886a17.532 17.532 0 0 1 0-3.288 11.033 11.033 0 0 1 2.491-5.492 14.816 14.816 0 0 1 18.402-3.85c.549.298 1.07.645 1.558 1.036 1.173.892 2.284 1.737 4.062 1.112.322-.11.624-.24.919-.364a5.416 5.416 0 0 1 2.408-.583c5.503.267 8.241 7.935 8.357 13.042.117 5.41-2.861 9.672-8.864 12.679-6.21 3.116-13.51 3.796-16.365 3.947Z" clip-rule="evenodd" fill="#231F20" fill-rule="evenodd"/><path d="m101.9 61.83.69 11.82s5.4 6.18 12.35 2.38c6.95-3.8 6.68-9.82 6.68-9.82l-4.56-22.19s-6.31-1.45-7.91-13.88a38.128 38.128 0 0 1-18.61 7.9s.12 13.9 2.57 19.43c2.45 5.52 8.79 4.36 8.79 4.36Z" fill="#FFF"/><path d="M110.379 77.606c-4.72 0-8.007-3.672-8.048-3.727a.32.32 0 0 1-.082-.206l-.686-11.457c-1.448.144-6.608.282-8.783-4.627-2.45-5.491-2.594-18.993-2.6-19.563a.35.35 0 0 1 .295-.343 38.166 38.166 0 0 0 18.429-7.812.343.343 0 0 1 .35-.062c.117.046.201.15.22.275.809 6.288 2.854 9.644 4.425 11.36a7.207 7.207 0 0 0 3.225 2.224.35.35 0 0 1 .254.268l4.57 22.213v.01c.004.299.096 6.38-6.862 10.177a9.737 9.737 0 0 1-4.707 1.27Zm4.405-1.894c-6.264 3.425-11.177-1.476-11.863-2.225l-.672-11.71a.37.37 0 0 0-.131-.254.348.348 0 0 0-.274-.062h-.001c-.255.043-6.108 1.019-8.418-4.18-2.189-4.95-2.532-16.935-2.532-18.994a39.446 39.446 0 0 0 18.004-7.551c1.572 10.846 6.731 13.125 7.87 13.502l4.522 21.966v.004c.003.18.091 5.892-6.505 9.504Z" clip-rule="evenodd" fill="#231F20" fill-rule="evenodd"/><path d="M114.48 50.24c1.62.24 3.26-.16 4.57-1.13a6.59 6.59 0 0 0 2.46-5.98c-.04-.84-.28-1.66-.69-2.4-.4-.74-1.11-1.27-1.94-1.45-1.01-.07-2.02.2-2.86.76-1.34.69-1.38 1.45-2.1 2.57.08-.1.14-.39.22-.49l.34 8.12Z" fill="#FFF"/><path d="M115.4 50.66c-.32 0-.65-.03-.97-.08a.35.35 0 0 1-.29-.4c.02-.09.06-.17.14-.22.07-.05.16-.07.25-.06 1.52.23 3.07-.16 4.3-1.07a6.294 6.294 0 0 0 2.32-5.69 5.18 5.18 0 0 0-.61-2.25c-.36-.65-.98-1.11-1.71-1.28-.85-.15-1.7.24-2.64.73-.65.32-1.16.87-1.43 1.54-.14.26-.3.55-.52.88-.01.03-.03.05-.05.07-.12.14-.32.17-.47.06a.347.347 0 0 1-.08-.47s0-.09.05-.14c.04-.12.1-.24.17-.35a.38.38 0 0 1 .13-.09l.13-.25c.34-.8.95-1.44 1.73-1.83.81-.41 1.93-.99 3.07-.79.95.19 1.76.78 2.23 1.62.42.78.65 1.65.68 2.54.3 2.41-.69 4.79-2.59 6.29a6.517 6.517 0 0 1-3.84 1.24ZM102.26 68.05c2.74-.2 5.21-1.74 6.59-4.12 2.42-4.05 1.46-6.63 1.46-6.63s-3.27 4.16-8.41 4.5l.36 6.25Z" fill="#231F20"/><path d="M102.263 68.387a.337.337 0 0 1-.337-.323l-.363-6.177a.343.343 0 0 1 .322-.364c4.92-.316 8.124-4.325 8.158-4.366a.344.344 0 0 1 .323-.13.35.35 0 0 1 .267.22c.041.109.995 2.786-1.489 6.925a8.568 8.568 0 0 1-6.861 4.25l-.02-.035Zm.322-.707-.322-5.54a12.91 12.91 0 0 0 7.842-4.07c.124.961.082 2.965-1.558 5.711a8.08 8.08 0 0 1-5.962 3.9Z" clip-rule="evenodd" fill="#231F20" fill-rule="evenodd"/><path d="M101 43.04s-2.58 6.78-1.41 7.59c1.17.81 3.63-.48 3.63-.48L101 43.04Z" fill="#FFF"/><path d="M100.6 51.24c-.42.02-.85-.09-1.21-.33-1.29-.89.69-6.34 1.28-7.99.06-.18.26-.27.44-.2.08.03.15.09.19.18.04.08.04.18 0 .26-1.19 3.15-2.05 6.8-1.52 7.18.82.57 2.64-.16 3.27-.49.17-.09.38-.02.47.14.09.17.02.38-.15.46-.86.46-1.8.73-2.77.79Z" fill="#231F20"/><ellipse rx=".995" ry="1.407" transform="rotate(-17.91 184.599 -314.394)" fill="#231F20"/><ellipse rx=".995" ry="1.407" transform="rotate(-.781 3259.184 -7062.278)" fill="#231F20"/><path d="M101.817 59.347a3.157 3.157 0 0 1-1.853-.543c-2.161-1.578-2.32-5.065-2.326-5.217a.35.35 0 0 1 .274-.35c8.879-1.942 8.975-1.873 9.133-1.757a.37.37 0 0 1 .144.247 8.86 8.86 0 0 1-.556 4.078 5.611 5.611 0 0 1-3.575 3.363 4.525 4.525 0 0 1-1.241.179Zm-1.462-1.105c-1.55-1.126-1.921-3.556-2.003-4.387v-.007c2.826-.617 6.991-1.51 8.171-1.723a7.93 7.93 0 0 1-.521 3.433 4.96 4.96 0 0 1-3.156 2.958 2.936 2.936 0 0 1-2.491-.274Z" clip-rule="evenodd" fill="#231F20" fill-rule="evenodd"/><path d="M106.31 55.69c-1.31 3.19-4.61 3.95-6.17 2.84.35-1.21.99-2.48 2.17-2.94 1.31-.44 2.72-.41 4 .1Z" fill="#231F20"/><path d="M101.816 59.34a3.168 3.168 0 0 1-1.852-.536.336.336 0 0 1-.123-.37c.466-1.675 1.269-2.746 2.373-3.165a6.173 6.173 0 0 1 4.22.09c.089.032.16.099.199.185a.364.364 0 0 1 0 .268 5.627 5.627 0 0 1-3.575 3.356 4.554 4.554 0 0 1-1.242.172Zm1.03-.83c-.749.248-1.565.2-2.278-.138.432-1.304 1.049-2.142 1.893-2.485a5.372 5.372 0 0 1 3.39 0 4.884 4.884 0 0 1-3.005 2.622ZM90.22 48.522a2.058 2.058 0 0 1-2.01-1.62l-.72-3.275a2.06 2.06 0 0 1 1.571-2.45l7.65-1.682a2.058 2.058 0 0 1 2.457 1.572l.686 3.274a2.06 2.06 0 0 1-1.544 2.43l-7.65 1.675c-.143.042-.29.068-.44.076Zm6.643-8.361c.098-.01.197-.01.295 0l.027-.02c.632.008 1.175.447 1.318 1.063l.686 3.274a1.373 1.373 0 0 1-1.03 1.607L90.51 47.8a1.372 1.372 0 0 1-1.605-1.03l-.72-3.322c-.15-.73.31-1.446 1.035-1.613l7.644-1.675ZM103.854 45.536a2.056 2.056 0 0 1-1.111-.33 2.057 2.057 0 0 1-.899-1.29l-.686-3.275a2.06 2.06 0 0 1 1.571-2.457l7.644-1.675a2.057 2.057 0 0 1 2.456 1.572l.686 3.274a2.06 2.06 0 0 1-1.537 2.458l-7.643 1.675a2.53 2.53 0 0 1-.481.048Zm6.642-8.34a1.373 1.373 0 0 1 1.64 1.037l.686 3.273c.077.351.013.719-.178 1.023-.196.3-.501.512-.851.59l-7.651 1.675a1.372 1.372 0 0 1-1.605-1.03l-.72-3.274a1.369 1.369 0 0 1 .185-1.023 1.33 1.33 0 0 1 .851-.59l7.643-1.682Z" clip-rule="evenodd" fill="#231F20" fill-rule="evenodd"/><path d="M98.81 41.49a.297.297 0 0 1-.18-.04.369.369 0 0 1-.13-.48c.33-.56 1.38-1.43 3.1-.74.19.07.28.29.21.48a.37.37 0 0 1-.47.21c-1.54-.62-2.16.32-2.22.43-.07.1-.19.15-.31.14Z" fill="#231F20"/><path d="M30.46 132.87h141.07l22.64 41.36H7.83l22.63-41.36Z" fill="#FFF"/><path d="M194.17 174.58H7.83a.35.35 0 0 1-.295-.165.357.357 0 0 1 0-.343l22.642-41.358a.335.335 0 0 1 .302-.179h141.048a.334.334 0 0 1 .302.179l22.643 41.358a.36.36 0 0 1 0 .343.353.353 0 0 1-.302.165Zm-.583-.687H8.413l22.259-40.671h140.656l22.259 40.671Z" clip-rule="evenodd" fill="#D1D3D4" fill-rule="evenodd"/><path d="m32.65 106.19.3-1.3c.69-1.31 1.45-2.19 3.22-2.19h67.15c1.67.01 3.14 1.11 3.6 2.71l10.92 37.52c.58 1.67-.23 3.51-1.86 4.19l-1.19.29-82.14-41.22Z" fill="#FFF"/><path d="M114.798 147.753a.395.395 0 0 1-.151-.034l-82.144-41.227a.337.337 0 0 1-.178-.385l.302-1.304a.441.441 0 0 1 0-.089c.686-1.243 1.475-2.362 3.52-2.362h67.152a4.117 4.117 0 0 1 3.931 2.952l10.923 37.569a3.694 3.694 0 0 1-2.058 4.613l-1.228.295-.069-.028Zm.069-.707-81.794-41.035.206-.995c.727-1.277 1.38-1.964 2.895-1.964h67.173a3.432 3.432 0 0 1 3.273 2.458l10.916 37.521c.391 1.359.048 3.123-1.606 3.768l-1.063.247Z" clip-rule="evenodd" fill="#231F20" fill-rule="evenodd"/><path d="M114.79 147.41H46.27c-.96-.02-1.79-.65-2.06-1.57l-11.53-39.65c-.09-.31-.03-.64.16-.89.2-.26.5-.41.82-.41h70.35l11.92 41c.11.36.04.75-.18 1.04-.23.3-.58.48-.96.48Z" fill="#231F20"/><path d="M114.798 147.753H46.274a2.531 2.531 0 0 1-2.415-1.812l-11.534-39.649a1.374 1.374 0 0 1 1.31-1.736h70.384a.328.328 0 0 1 .322.24l11.925 41.001a1.53 1.53 0 0 1-1.468 1.956Zm-81.7-42.245a.688.688 0 0 1 .538-.273h70.109l11.87 40.754a.847.847 0 0 1-.131.742.856.856 0 0 1-.686.336H46.274a1.846 1.846 0 0 1-1.763-1.318L32.984 106.1a.687.687 0 0 1 .114-.592Z" clip-rule="evenodd" fill="#231F20" fill-rule="evenodd"/><path d="m103.3 130.51-4.16 17.72a4.32 4.32 0 0 1-4.2 3.33H51.59c-1.31 0-2.56-.61-3.38-1.64-.82-1.03-1.12-2.38-.82-3.67l3.68-15.74h-3.59l-3.52 14.93a7.87 7.87 0 0 0 1.51 6.65 7.817 7.817 0 0 0 6.13 2.96h43.37c3.62 0 6.76-2.48 7.6-6l4.35-18.54h-3.62Z" fill="#FFF"/><path d="M94.941 155.449H51.598a8.187 8.187 0 0 1-7.965-10.064l3.506-14.937a.342.342 0 0 1 .336-.26h3.623a.348.348 0 0 1 .267.13.336.336 0 0 1 .062.288l-3.698 15.74a3.984 3.984 0 0 0 3.87 4.888h43.37a3.966 3.966 0 0 0 3.87-3.069l4.165-17.717a.335.335 0 0 1 .329-.26h3.623a.35.35 0 0 1 .336.418l-4.357 18.534a8.153 8.153 0 0 1-7.994 6.309Zm-50.657-9.906 3.431-14.669h2.944l-3.596 15.314a4.663 4.663 0 0 0 4.535 5.732h43.357a4.632 4.632 0 0 0 4.535-3.597l4.117-17.449h2.916l-4.254 18.101a7.472 7.472 0 0 1-7.3 5.787h-43.37a7.497 7.497 0 0 1-7.314-9.219Z" clip-rule="evenodd" fill="#231F20" fill-rule="evenodd"/><path d="M159.19 94.38s6.14 27.26 1.11 34.22c-5.02 6.96-40.09 5.86-40.09 5.86s-5.69 6.83-10.63 6.38c-4.94-.46-2.06-9.81 3.75-13.7l-.8-3.24 30.92-4.97-4.11-19.58 19.85-4.97Z" fill="#FFF"/><path d="M110.03 141.2h-.51a2.896 2.896 0 0 1-2.69-2.3c-.78-3.04 1.71-8.84 6.08-11.89l-.74-3.01a.323.323 0 0 1 .04-.27c.05-.08.13-.14.23-.15l30.57-4.91-4.05-19.22c-.02-.09 0-.18.05-.26.05-.07.13-.13.22-.14.09-.02.18-.01.25.04.08.05.13.13.15.22l4.12 19.58c.02.09 0 .19-.06.27-.05.08-.13.13-.22.14l-30.56 4.91.69 2.88c.04.14-.02.29-.14.37-4.2 2.81-6.71 8.48-5.99 11.29.19 1 1.04 1.74 2.05 1.78 4.7.44 10.3-6.18 10.34-6.26.06-.08.17-.12.27-.12.35 0 34.99 1.01 39.84-5.73 4.84-6.73-1.1-33.63-1.16-33.93-.03-.12.01-.25.11-.33.09-.09.22-.11.34-.08.12.04.21.14.24.26.25 1.12 6.1 27.46 1.04 34.49-4.94 6.87-37.31 6.1-40.24 6.01-.78.9-5.67 6.36-10.27 6.36ZM122.4 80.89c-.06 0-.11-.02-.15-.04a.34.34 0 0 1-.19-.2.36.36 0 0 1 .02-.27c4.98-10.3 17.77-17.22 17.9-17.29a.339.339 0 0 1 .47.14c.05.09.06.18.03.27-.02.1-.09.17-.17.21-.12.07-12.71 6.87-17.59 16.98-.06.12-.19.2-.32.2ZM101.25 80.4c-.05.01-.1.01-.15 0-11.95-5.49-13.4-17.56-13.42-17.67-.02-.2.12-.37.32-.4a.36.36 0 0 1 .39.31c0 .12 1.43 11.8 13.04 17.05.17.09.25.29.18.47-.06.15-.2.25-.36.24ZM46.79 95.96a.354.354 0 0 1-.26-.34c0-.16.11-.3.26-.34 5.17-.16 7.69-3.09 7.71-3.11.06-.07.15-.12.24-.13a.353.353 0 0 1 .3.58c-.1.13-2.74 3.2-8.23 3.36l-.02-.02Z" fill="#231F20"/><path d="M139.3 99.7c-.17 0-.31-.11-.35-.27 0-.12-3.23-12.77-3.68-20.36 0-.09.03-.18.09-.25a.33.33 0 0 1 .24-.12c.2-.01.37.13.38.33.45 7.52 3.63 20.1 3.66 20.23.05.19-.07.38-.26.43l-.08.01ZM83.99 101.96a.37.37 0 0 1-.24-.12.41.41 0 0 1-.09-.26l1.71-26.67c0-.09.04-.18.11-.24.08-.07.17-.1.26-.09.1 0 .18.05.25.12.06.07.09.16.08.25l-1.73 26.67c0 .19-.16.34-.35.34ZM144.74 87.04c-.13 0-.25-.07-.31-.19l-3.32-6.17a.478.478 0 0 1 0-.29c.03-.09.1-.16.19-.21l10.29-4.86c.08-.05.18-.05.27-.02.09.03.16.09.2.18.09.18.01.39-.16.47l-9.98 4.71 3.01 5.58 10.1-3.09c.13-.04.26-.01.35.08a.348.348 0 0 1-.14.6l-10.39 3.22-.11-.01Z" fill="#231F20"/><ellipse cx="153.661" cy="160.274" rx="16.941" ry="5.1" fill="#FFF"/><path d="M136.377 160.274c0 3.055 7.595 5.444 17.284 5.444 9.688 0 17.283-2.389 17.283-5.444 0-3.054-7.595-5.443-17.283-5.443-9.689 0-17.284 2.389-17.284 5.443Zm.686 0c0-2.299 6.669-4.757 16.598-4.757 9.928 0 16.597 2.458 16.597 4.757 0 2.3-6.669 4.757-16.597 4.757-9.929 0-16.598-2.457-16.598-4.757Z" clip-rule="evenodd" fill="#D1D3D4" fill-rule="evenodd"/><path d="m140.89 145.7-.41.08c-1.22.18-2.34.81-3.13 1.76-.9 1.38-.94 3.16-.1 4.58 1.8 3.24 6.17 4.12 9.55 4.46.48.07.97.04 1.43-.11.46-.16.78-.6.79-1.09-.06-.4-.32-.74-.69-.91-.35-.16-.73-.27-1.12-.32-2.1-.34-4.31-.59-6.23-1.56-1.12-.57-2.68-1.87-1.86-3.27.28-.44.69-.79 1.18-1 1.93-.92 3.76-.22 5.66.34.14.05.28.07.43.06.38-.1.61-.47.56-.85-.07-.84-.9-1.38-1.68-1.69-1.4-.53-2.9-.69-4.38-.48Z" fill="#FFF"/><path d="M147.376 156.959a5.659 5.659 0 0 1-.597-.035c-5.153-.487-8.364-1.997-9.826-4.633a4.663 4.663 0 0 1 .131-4.949 5.382 5.382 0 0 1 3.334-1.895l.426-.075a9.065 9.065 0 0 1 4.583.501c.686.254 1.804.851 1.894 1.97a1.12 1.12 0 0 1-.851 1.229 1.501 1.501 0 0 1-.576-.076l-.494-.151c-1.688-.515-3.28-.995-4.92-.213a2.3 2.3 0 0 0-1.036.872 1.166 1.166 0 0 0-.13.961 3.683 3.683 0 0 0 1.852 1.819 18.209 18.209 0 0 0 5.359 1.414l.775.124c.426.046.841.165 1.228.35a1.374 1.374 0 0 1-.171 2.622 2.76 2.76 0 0 1-.981.165Zm-6.821-10.839.392-.069v.014a8.38 8.38 0 0 1 4.233.46c.419.151 1.4.604 1.455 1.373.013.206-.09.487-.254.487a.782.782 0 0 1-.288-.048l-.494-.151c-1.736-.529-3.534-1.071-5.414-.172a2.948 2.948 0 0 0-1.331 1.14 1.86 1.86 0 0 0-.199 1.51 4.31 4.31 0 0 0 2.202 2.231 18.68 18.68 0 0 0 5.558 1.483l.775.123c.349.036.69.129 1.009.275a.843.843 0 0 1 .48.631.853.853 0 0 1-.576.749 2.81 2.81 0 0 1-1.263.082c-4.905-.46-7.945-1.86-9.283-4.277a3.987 3.987 0 0 1 .076-4.214 4.741 4.741 0 0 1 2.922-1.627Z" clip-rule="evenodd" fill="#231F20" fill-rule="evenodd"/><path d="M142.47 142.23s3.17 15.83 3.43 16.78c.26.96 7.76 4.88 13.73 1.03l5.22-16.18-22.38-1.63Z" fill="#FFF"/><path d="M153.791 162.052a14.849 14.849 0 0 1-5.242-1.002c-1.318-.508-2.813-1.332-2.978-1.943-.254-.954-3.3-16.152-3.431-16.804a.33.33 0 0 1 .357-.405l22.375 1.661a.338.338 0 0 1 .302.447l-5.222 16.179a.329.329 0 0 1-.144.178 10.89 10.89 0 0 1-6.017 1.689Zm-7.554-3.123c-.227-.845-2.82-13.743-3.335-16.317l21.51 1.565-5.05 15.644c-3.609 2.252-7.547 1.545-9.606.92-2.188-.666-3.423-1.586-3.519-1.812Z" clip-rule="evenodd" fill="#231F20" fill-rule="evenodd"/><ellipse rx="4.86" ry="11.218" transform="rotate(-87.65 151.185 -8.718)" fill="#231F20"/><path d="M154.566 147.918h-1.091c-6.484-.261-11.465-2.745-11.341-5.67.123-2.924 5.29-4.983 11.767-4.716 6.477.268 11.458 2.746 11.335 5.67-.055 1.442-1.373 2.746-3.644 3.597a19.855 19.855 0 0 1-7.026 1.119Zm-11.753-5.635c.096-2.334 4.59-4.119 10.031-4.119l1.057.021c5.88.24 10.786 2.512 10.683 4.962-.048 1.133-1.215 2.225-3.204 2.987a20.26 20.26 0 0 1-7.877 1.105c-5.887-.241-10.786-2.513-10.69-4.956Z" clip-rule="evenodd" fill="#231F20" fill-rule="evenodd"/><path d="M126.846 98.254H90.543a.343.343 0 0 1-.343-.343V87.189a.35.35 0 0 1 .343-.343h36.303c.19 0 .344.153.344.343v10.743a.344.344 0 0 1-.344.322Zm-.343-.686H90.886V87.532h35.617v10.036Z" clip-rule="evenodd" fill="#FFF" fill-rule="evenodd"/><path fill="#FFF" d="M7.83 174.236h186.333v7.187H7.83z"/><path d="M7.83 181.767h186.34a.344.344 0 0 0 .343-.344v-7.187a.35.35 0 0 0-.343-.343H7.83a.35.35 0 0 0-.343.343v7.187c0 .19.154.344.343.344Zm185.997-.687H8.173v-6.5h185.654v6.5Z" clip-rule="evenodd" fill="#D1D3D4" fill-rule="evenodd"/><path d="M164.84 107.11a.352.352 0 0 1-.34-.35c0-.79.5-19.4 2.56-25.84 2.05-6.45 5.9-9.13 6.05-9.24.16-.1.38-.06.48.1.11.15.07.37-.09.47-.04 0-3.8 2.61-5.79 8.87-2 6.27-2.51 25.46-2.52 25.66a.34.34 0 0 1-.35.33Z" fill="#FFF"/></svg>