<svg width="202.000000" height="202.000000" viewBox="0 0 202 202" fill="none" xmlns="http://www.w3.org/2000/svg" xmlns:xlink="http://www.w3.org/1999/xlink">
	<desc>
			Created with Pixso.
	</desc>
	<defs>
		<linearGradient x1="-101.000000" y1="101.000000" x2="101.000000" y2="101.000000" id="paint_linear_0_10322_0" gradientUnits="userSpaceOnUse">
			<stop stop-color="#5D0202" stop-opacity="0.000000"/>
			<stop offset="1.000000" stop-color="#5D0202" stop-opacity="0.498039"/>
		</linearGradient>
	</defs>
	<g opacity="0.202683">
		<circle id="Oval Copy 2" r="101.000000" transform="matrix(-6.12323e-17 1 1 6.12323e-17 101 101)" fill="url(#paint_linear_0_10322_0)" fill-opacity="1.000000"/>
		<circle id="Oval Copy 2" r="101.000000" transform="matrix(-6.12323e-17 1 1 6.12323e-17 101 101)" stroke="#979797" stroke-opacity="0" stroke-width="0.000000"/>
	</g>
	<path id="Path" d="M192.03 166.45L9.96 166.45C9.77 166.45 9.61 166.29 9.61 166.09C9.61 165.9 9.77 165.74 9.96 165.74L192.03 165.74C192.22 165.74 192.38 165.9 192.38 166.09C192.38 166.29 192.22 166.45 192.03 166.45Z" fill="#D1D3D4" fill-opacity="1.000000" fill-rule="nonzero"/>
	<rect id="Rectangle" x="136.144043" y="104.140503" width="40.642769" height="70.057892" fill="#FFFFFF" fill-opacity="1.000000"/>
	<path id="Shape" d="M176.787 174.554L136.144 174.554C135.949 174.554 135.79 174.395 135.79 174.198L135.79 104.141C135.79 103.944 135.949 103.785 136.144 103.785L176.787 103.785C176.982 103.785 177.141 103.944 177.141 104.141L177.141 174.184C177.145 174.281 177.109 174.375 177.042 174.445C176.975 174.514 176.883 174.554 176.787 174.554ZM176.433 173.843L136.498 173.843L136.498 104.496L176.433 104.496L176.433 173.843Z" clip-rule="evenodd" fill="#231F20" fill-opacity="1.000000" fill-rule="evenodd"/>
	<rect id="Rectangle" x="24.172852" y="104.140503" width="40.642769" height="70.057892" fill="#FFFFFF" fill-opacity="1.000000"/>
	<path id="Shape" d="M64.8157 174.554L24.173 174.554C23.9775 174.554 23.8191 174.395 23.8191 174.198L23.8191 104.141C23.8191 103.944 23.9775 103.785 24.173 103.785L64.8157 103.785C65.0111 103.785 65.1696 103.944 65.1696 104.141L65.1696 174.184C65.1735 174.281 65.1378 174.375 65.071 174.445C65.0043 174.514 64.9121 174.554 64.8157 174.554ZM64.4619 173.843L24.5267 173.843L24.5267 104.496L64.4619 104.496L64.4619 173.843Z" clip-rule="evenodd" fill="#231F20" fill-opacity="1.000000" fill-rule="evenodd"/>
	<path id="Path" d="M143.7 83.82L151.75 100.04L129.99 100.04L143.7 83.82Z" fill="#231F20" fill-opacity="1.000000" fill-rule="nonzero"/>
	<path id="Shape" d="M151.756 100.403L130.015 100.403C129.876 100.403 129.75 100.323 129.69 100.197C129.633 100.071 129.655 99.9237 129.746 99.8206L143.462 83.5993C143.536 83.5058 143.655 83.4597 143.773 83.4785C143.891 83.4918 143.995 83.5638 144.049 83.6703L152.088 99.8916C152.149 99.9972 152.149 100.127 152.088 100.233C152.02 100.35 151.89 100.416 151.756 100.403ZM151.182 99.6927L130.758 99.6927L143.631 84.4732L151.182 99.6927Z" clip-rule="evenodd" fill="#231F20" fill-opacity="1.000000" fill-rule="evenodd"/>
	<path id="Path" d="M81.9 100.04L133.71 100.04L152.51 72.39L103.6 72.39L81.9 100.04Z" fill="#231F20" fill-opacity="1.000000" fill-rule="nonzero"/>
	<path id="Shape" d="M133.717 100.403L81.8922 100.403C81.757 100.403 81.6338 100.324 81.5751 100.202C81.5164 100.08 81.5323 99.9342 81.6162 99.8276L103.314 72.174C103.38 72.0883 103.482 72.0384 103.59 72.0389L152.499 72.0389C152.629 72.043 152.747 72.116 152.81 72.2308C152.881 72.3438 152.881 72.4873 152.81 72.6003L134.014 100.247C133.948 100.347 133.836 100.406 133.717 100.403ZM133.554 99.6926L82.6354 99.6926L103.774 72.7495L151.869 72.7495L133.554 99.6926Z" clip-rule="evenodd" fill="#231F20" fill-opacity="1.000000" fill-rule="evenodd"/>
	<path id="Path" d="M105.16 75.08L89.67 95.22L128.12 95.22L142.67 75.08L105.16 75.08Z" fill="#FFFFFF" fill-opacity="1.000000" fill-rule="nonzero"/>
	<path id="Shape" d="M128.126 95.5786L89.6768 95.5786C89.5415 95.5789 89.4178 95.5016 89.3584 95.3797C89.2914 95.2632 89.2914 95.1196 89.3584 95.0031L104.85 74.8596C104.916 74.774 105.018 74.7241 105.126 74.7247L142.633 74.7247C142.766 74.7224 142.887 74.7972 142.945 74.9165C143.015 75.0295 143.015 75.173 142.945 75.286L128.395 95.4294C128.333 95.5185 128.234 95.5736 128.126 95.5786ZM127.906 94.8681L90.3987 94.8681L105.338 75.421L141.982 75.421L127.906 94.8681Z" clip-rule="evenodd" fill="#231F20" fill-opacity="1.000000" fill-rule="evenodd"/>
	<path id="Path" d="M116.17 91.55C116.02 91.55 115.88 91.45 115.84 91.31C113.97 85.8 111.38 79.76 110.44 79.62C109.32 79.62 102.1 85.61 95.69 91.47C95.59 91.55 95.46 91.58 95.34 91.54C95.22 91.51 95.13 91.41 95.1 91.28C95.07 91.16 95.11 91.03 95.21 90.94C97.43 88.92 108.48 78.92 110.51 78.92L110.58 78.92C112.4 79.2 115.6 88.3 116.54 91.08C116.57 91.17 116.57 91.27 116.53 91.36C116.48 91.44 116.41 91.5 116.32 91.53C116.27 91.55 116.22 91.56 116.17 91.55Z" fill="#D1D3D4" fill-opacity="1.000000" fill-rule="nonzero"/>
	<path id="Path" d="M127.72 92.29C127.56 92.29 127.42 92.18 127.38 92.03C126.13 87.59 124.36 82.85 123.52 82.6C122.69 82.35 118.81 85.87 115.65 89.25C115.52 89.39 115.29 89.4 115.15 89.26C115.01 89.13 115 88.9 115.14 88.76C116.75 87.03 122.13 81.44 123.73 81.92C125.33 82.41 127.62 90.27 128.06 91.87C128.11 92.06 128 92.26 127.82 92.31L127.72 92.29Z" fill="#D1D3D4" fill-opacity="1.000000" fill-rule="nonzero"/>
	<path id="Shape" d="M137.538 85.1269C137.538 85.6598 138.224 86.079 139.095 86.079C139.965 86.079 140.652 85.6598 140.652 85.1269C140.652 84.594 139.944 84.1819 139.095 84.1819C138.246 84.1819 137.538 84.594 137.538 85.1269ZM137.68 85.1269C137.68 84.7077 138.345 84.3595 139.095 84.3595L139.095 84.3808C139.845 84.3808 140.475 84.7077 140.475 85.1269C140.475 85.5461 139.88 85.9014 139.095 85.9014C138.309 85.9014 137.68 85.5461 137.68 85.1269Z" clip-rule="evenodd" fill="#A7A9AC" fill-opacity="1.000000" fill-rule="evenodd"/>
	<path id="Path" d="M145.28 78.02L142.13 78.02C142.09 78.01 142.05 77.98 142.05 77.93C142.05 77.88 142.09 77.84 142.13 77.84L145.28 77.84C145.3 77.84 145.32 77.85 145.34 77.87C145.35 77.88 145.36 77.91 145.36 77.93C145.36 77.98 145.32 78.02 145.28 78.02Z" fill="#A7A9AC" fill-opacity="1.000000" fill-rule="nonzero"/>
	<path id="Path" d="M133.71 100.4C133.64 100.4 133.56 100.38 133.5 100.33C133.34 100.22 133.31 100 133.42 99.84L143.46 86.01C143.51 85.93 143.6 85.88 143.69 85.87C143.78 85.85 143.88 85.88 143.95 85.93C144.11 86.05 144.14 86.27 144.03 86.43L134 100.28C133.92 100.36 133.82 100.4 133.71 100.4Z" fill="#FFFFFF" fill-opacity="1.000000" fill-rule="nonzero"/>
	<path id="Shape" d="M114.616 78.6469C114.616 79.5102 115.313 80.2101 116.173 80.2101C117.033 80.2101 117.73 79.5102 117.73 78.6469C117.73 77.7836 117.033 77.0837 116.173 77.0837C115.313 77.0837 114.616 77.7836 114.616 78.6469ZM115.324 78.6469C115.324 78.176 115.704 77.7943 116.173 77.7943C116.399 77.7924 116.616 77.8816 116.776 78.0419C116.935 78.2022 117.024 78.4202 117.022 78.6469C117.022 79.1178 116.642 79.4995 116.173 79.4995C115.704 79.4995 115.324 79.1178 115.324 78.6469Z" clip-rule="evenodd" fill="#D1D3D4" fill-opacity="1.000000" fill-rule="evenodd"/>
	<rect id="Rectangle" x="18.773193" y="100.651855" width="159.740311" height="6.799737" fill="#FFFFFF" fill-opacity="1.000000"/>
	<path id="Shape" d="M18.7733 107.807L178.521 107.807C178.716 107.807 178.875 107.648 178.875 107.452L178.875 100.652C178.871 100.457 178.714 100.3 178.521 100.297L18.7733 100.297C18.5795 100.3 18.4232 100.457 18.4194 100.652L18.4194 107.452C18.4194 107.648 18.5779 107.807 18.7733 107.807ZM178.139 107.096L19.1271 107.096L19.1271 101L178.139 101L178.139 107.096Z" clip-rule="evenodd" fill="#231F20" fill-opacity="1.000000" fill-rule="evenodd"/>
	<path id="Path" d="M78.85 137.43C79 137.94 70.06 170.15 70.06 170.15L82.55 172.17L97.31 127.66L78.85 137.43Z" fill="#FFFFFF" fill-opacity="1.000000" fill-rule="nonzero"/>
	<path id="Shape" d="M82.5575 172.529L82.5009 172.529L70.0101 170.511C69.9093 170.496 69.8193 170.439 69.7625 170.354C69.713 170.266 69.6979 170.162 69.72 170.063C73.2089 157.515 78.4033 138.537 78.5024 137.471C78.4924 137.329 78.5676 137.195 78.6935 137.13L97.1572 127.361C97.2863 127.295 97.4412 127.312 97.5535 127.403C97.6588 127.5 97.7001 127.649 97.6597 127.787L82.8901 172.294C82.8413 172.436 82.7072 172.531 82.5575 172.529ZM82.3311 171.775L70.5267 169.864L70.5126 169.864C75.877 150.524 78.7855 139.717 79.1748 137.677L96.7255 128.398L82.3311 171.775Z" clip-rule="evenodd" fill="#231F20" fill-opacity="1.000000" fill-rule="evenodd"/>
	<path id="Path" d="M69.3 168.76L67.4 174.77L97.32 177.09C95.91 174.25 93.48 172.05 90.52 170.95C87.41 169.85 84.07 168.55 84.07 168.55L82.55 172.17L69.3 168.76Z" fill="#231F20" fill-opacity="1.000000" fill-rule="nonzero"/>
	<path id="Shape" d="M97.3201 177.453L67.4059 175.129C67.2979 175.121 67.1995 175.064 67.1387 174.974C67.078 174.884 67.0616 174.771 67.0945 174.667L68.9982 168.656C69.0558 168.478 69.2418 168.375 69.4227 168.422L82.3735 171.754L83.7889 168.415C83.8235 168.329 83.8907 168.26 83.9757 168.224C84.0607 168.188 84.1565 168.188 84.2418 168.223C84.2772 168.223 87.6176 169.537 90.689 170.617C93.7433 171.754 96.2479 174.022 97.688 176.955C97.7485 177.063 97.7485 177.195 97.688 177.303C97.6101 177.427 97.4619 177.487 97.3201 177.453ZM96.7114 176.699L67.8729 174.454L69.5431 169.21L82.4656 172.522C82.6379 172.563 82.8149 172.473 82.8831 172.308L84.2631 169.012C85.176 169.36 87.8865 170.397 90.413 171.285C93.0804 172.292 95.3101 174.208 96.7114 176.699Z" clip-rule="evenodd" fill="#231F20" fill-opacity="1.000000" fill-rule="evenodd"/>
	<path id="Path" d="M48.31 137.86L46.18 171.79C46.18 171.79 39.01 172.04 37.21 173.31C35.41 174.57 33.95 180.3 33.95 180.3L36.18 180.3C36.18 180.3 37.49 176.03 38.92 175.52C40.35 175.01 48.47 174.81 48.47 174.81C48.47 174.81 52.39 176.33 53.02 178.94C53.52 180.99 53.37 181.47 53.37 181.47L55.85 181.47C55.85 180.3 55.68 179.14 55.36 178.02C54.86 176.6 53 174.9 53 174.9C53 174.9 57.1 174.98 58.46 174.98C59.83 174.98 61.25 177.6 61.25 177.6L63.92 177.6C63.92 177.6 61.13 172.88 59.33 172.55C57.52 172.21 52.89 171.4 52.89 171.4L51.63 139.78L48.31 137.86Z" fill="#231F20" fill-opacity="1.000000" fill-rule="nonzero"/>
	<path id="Shape" d="M55.8845 181.837L53.4076 181.837C53.2947 181.835 53.1885 181.783 53.1174 181.694C53.0529 181.601 53.0345 181.483 53.0679 181.375C53.0712 180.581 52.9493 179.792 52.707 179.037C52.1763 176.813 48.928 175.385 48.4608 175.186C46.1609 175.236 40.202 175.449 39.0909 175.897C38.171 176.238 37.0599 178.867 36.5787 180.437C36.5327 180.587 36.3955 180.69 36.239 180.693L33.9814 180.693C33.8728 180.689 33.7714 180.637 33.7054 180.55C33.6395 180.463 33.6161 180.351 33.6417 180.245C33.6984 180.011 35.1562 174.376 37.0387 173.055C38.7018 171.889 44.4412 171.555 45.8849 171.491L47.9655 137.869C47.9751 137.748 48.0439 137.639 48.1494 137.578C48.2556 137.521 48.3831 137.521 48.4891 137.578L51.8436 139.518C51.9492 139.577 52.0162 139.688 52.0205 139.809L53.2732 171.143C54.3064 171.321 57.9015 171.946 59.4301 172.237C61.3267 172.593 63.9664 176.955 64.2566 177.453C64.3197 177.563 64.3197 177.698 64.2566 177.808C64.1932 177.921 64.0745 177.991 63.9452 177.993L61.2771 177.993C61.1479 177.991 61.0292 177.921 60.9658 177.808C60.4562 176.87 59.324 175.378 58.4889 175.378C57.5264 175.378 55.191 175.335 53.903 175.314C54.672 176.06 55.2875 176.951 55.7147 177.936C56.0542 179.089 56.2281 180.286 56.2313 181.488C56.2275 181.679 56.0745 181.833 55.8845 181.837ZM55.5095 181.126L53.7756 181.126C53.7131 180.357 53.5757 179.595 53.3651 178.852C52.7 176.096 48.7651 174.547 48.5953 174.483L48.4608 174.483C48.1282 174.483 40.1313 174.703 38.7867 175.193C37.442 175.683 36.2815 178.945 35.9559 179.947L34.4414 179.947C34.944 178.142 36.1753 174.497 37.4491 173.602C38.8503 172.642 44.2643 172.252 46.2316 172.181C46.4136 172.174 46.5605 172.029 46.5713 171.847L48.6307 138.452L51.3199 140.008L52.5583 171.427C52.563 171.598 52.6877 171.741 52.8556 171.768C52.9122 171.776 57.5051 172.571 59.2815 172.905C60.4703 173.126 62.3529 175.754 63.3011 177.254L61.4753 177.254C61.0931 176.593 59.8335 174.639 58.4818 174.639C57.1301 174.639 53.0679 174.554 53.0255 174.554C52.8781 174.557 52.7458 174.646 52.6858 174.781C52.6351 174.918 52.6714 175.072 52.7777 175.172C52.799 175.193 54.5824 176.813 55.0424 178.142C55.329 179.111 55.486 180.115 55.5095 181.126Z" clip-rule="evenodd" fill="#231F20" fill-opacity="1.000000" fill-rule="evenodd"/>
	<path id="Path" d="M89.23 116.21C89.23 116.21 117.49 117.73 119.28 121.77C121.06 125.81 107.95 170.27 107.95 170.27C107.95 170.27 121.79 175.07 119.52 176.08C117.26 177.09 94.61 175.07 94.61 175.07L105.35 133.86L77.38 131.97L89.23 116.21Z" fill="#FFFFFF" fill-opacity="1.000000" fill-rule="nonzero"/>
	<path id="Shape" d="M115.968 176.728C109.33 176.728 96.4283 175.598 94.6096 175.435C94.5049 175.426 94.4092 175.371 94.3478 175.285C94.2887 175.198 94.2706 175.089 94.2982 174.987L104.914 134.224L77.3702 132.363C77.243 132.348 77.1315 132.271 77.073 132.157C77.0179 132.037 77.0343 131.897 77.1155 131.794L88.9692 116.006C89.0321 115.905 89.1483 115.849 89.2665 115.864C89.3373 115.864 96.4283 116.248 103.647 117.129C118.431 118.919 119.329 120.959 119.626 121.634C121.375 125.605 109.719 165.686 108.431 170.056C112.189 171.37 120.115 174.319 120.171 175.776C120.176 176.068 119.989 176.327 119.711 176.415C118.485 176.7 117.224 176.806 115.968 176.728ZM119.407 175.762C117.659 176.543 101.651 175.342 95.0837 174.76L105.713 133.997C105.734 133.894 105.713 133.787 105.657 133.698C105.592 133.614 105.494 133.562 105.388 133.556L78.0708 131.702L89.3939 116.589C97.3342 117.022 117.532 118.706 118.947 121.925C120.363 125.144 111.247 157.856 107.624 170.184C107.568 170.366 107.664 170.561 107.844 170.624C113.123 172.451 118.94 174.902 119.407 175.762Z" clip-rule="evenodd" fill="#231F20" fill-opacity="1.000000" fill-rule="evenodd"/>
	<path id="Path" d="M79.64 90.95C79.64 90.95 94.16 109.14 100.37 108.63C106.57 108.13 124.35 85.7 124.35 85.7C127.56 81.85 131.16 76.96 128.86 71.66C128.63 71.15 128.23 70.6 127.68 70.64C127.45 70.68 127.23 70.77 127.04 70.9L125.06 72.13C125.12 71.58 124.43 71.19 123.9 71.34C123.38 71.54 122.95 71.92 122.68 72.4C120.62 75.34 119.29 78.14 119.4 81.77L98.62 92.43L90.38 83.27L79.64 90.95Z" fill="#FFFFFF" fill-opacity="1.000000" fill-rule="nonzero"/>
	<path id="Path" d="M100.12 109C93.67 109 79.95 91.94 79.36 91.17C79.26 91.01 79.29 90.81 79.44 90.69C79.58 90.58 79.79 90.59 79.91 90.73C80.05 90.91 94.01 108.29 100.1 108.29L100.34 108.29C106.32 107.81 123.88 85.72 124.05 85.49C127.37 81.53 130.72 76.88 128.52 71.81C128.43 71.61 128.14 70.98 127.7 71.01C127.52 71.04 127.35 71.12 127.21 71.22L125.21 72.44C125.1 72.51 124.95 72.51 124.84 72.44C124.72 72.36 124.66 72.23 124.67 72.1C124.68 71.99 124.64 71.89 124.55 71.83C124.38 71.7 124.17 71.65 123.97 71.69C123.53 71.88 123.17 72.21 122.94 72.62C121.2 75.11 119.61 77.94 119.73 81.78C119.73 81.91 119.66 82.04 119.54 82.1L98.76 92.76C98.62 92.83 98.44 92.8 98.33 92.68L90.1 83.51C90.03 83.44 89.99 83.35 89.99 83.26C89.99 83.16 90.03 83.07 90.1 83C90.24 82.87 90.46 82.87 90.6 83L98.65 91.94L119 81.53C118.94 77.6 120.56 74.71 122.34 72.18C122.66 71.62 123.16 71.19 123.75 70.97C124.19 70.86 124.65 70.97 124.99 71.26C125.09 71.34 125.17 71.44 125.23 71.55L126.82 70.58C127.06 70.41 127.34 70.3 127.63 70.26C128.24 70.22 128.79 70.67 129.14 71.49C131.7 77.39 127.07 82.93 124.58 85.91C123.88 86.82 106.66 108.46 100.37 108.97L100.12 109Z" fill="#231F20" fill-opacity="1.000000" fill-rule="nonzero"/>
	<path id="Path" d="M32.1 87.84C32.1 87.84 24.62 104.86 27.39 106.68C30.17 108.5 47.05 106.68 47.05 106.68L45.59 84.65L32.1 87.84Z" fill="#FFFFFF" fill-opacity="1.000000" fill-rule="nonzero"/>
	<path id="Path" d="M33.81 107.8C30.79 107.8 28.15 107.59 27.19 106.95C26.71 106.64 25.24 105.68 28.37 96.46C29.88 92.02 31.75 87.74 31.78 87.7C31.82 87.57 31.93 87.48 32.06 87.46C32.2 87.44 32.33 87.5 32.41 87.61C32.48 87.72 32.49 87.87 32.42 87.99C29.59 94.46 25.75 105.17 27.58 106.35C29.7 107.77 41.73 106.84 46.69 106.35L45.27 84.67C45.26 84.48 45.41 84.31 45.6 84.29C45.8 84.28 45.97 84.43 45.98 84.62L47.44 106.65C47.46 106.84 47.32 107.01 47.13 107.03C46.63 107.06 39.5 107.8 33.81 107.8Z" fill="#231F20" fill-opacity="1.000000" fill-rule="nonzero"/>
	<path id="Path" d="M38.19 116.68C38.19 116.68 34.54 124.84 38.44 129.99C42.33 135.13 96.47 135.75 96.47 135.75L100.35 116.22L77.71 113.12L76.39 106.36L38.19 116.68Z" fill="#FFFFFF" fill-opacity="1.000000" fill-rule="nonzero"/>
	<path id="Shape" d="M96.4847 136.107C96.3503 136.107 82.7838 135.944 68.8848 135.155C50.1663 134.089 39.8198 132.419 38.1355 130.181C34.1583 124.938 37.6968 116.866 37.8524 116.525C37.8954 116.426 37.9817 116.352 38.0861 116.326L76.3014 106.002C76.3973 105.973 76.5013 105.988 76.5845 106.045C76.6653 106.096 76.7217 106.178 76.7401 106.272L78.007 112.788L100.377 115.843C100.475 115.855 100.563 115.91 100.618 115.992C100.674 116.07 100.695 116.168 100.674 116.262L96.8315 135.816C96.8009 135.984 96.6552 136.106 96.4847 136.107ZM38.7229 129.776C35.2836 125.243 37.994 118.117 38.454 116.987L76.167 106.805L77.4054 113.2C77.4341 113.348 77.5533 113.462 77.7026 113.484L99.9525 116.525L96.1946 135.404C77.4479 135.176 41.7094 133.713 38.7229 129.776Z" clip-rule="evenodd" fill="#231F20" fill-opacity="1.000000" fill-rule="evenodd"/>
	<path id="Path" d="M60.37 47.97C59.82 47.64 59.34 47.2 58.96 46.68C58.43 45.91 58.04 45.06 57.83 44.15C55.91 37.19 55.89 28.27 62.07 23.51C65.77 20.67 70.61 19.81 75.05 21.2C78.05 22.18 80.6 26.32 81.94 29.01C83.03 31.19 83.78 33.57 85.08 35.63C86.38 37.69 88.45 39.49 90.89 39.61C88.94 40.71 86.59 40.85 84.52 40C85.49 41.31 87.14 41.93 88.73 41.58C87.32 42.71 85.29 42.67 83.51 42.29C81.72 41.91 79.97 41.35 78.14 41.58C75.31 41.9 73.47 43.99 71.25 45.5C68.44 47.35 63.59 49.84 60.37 47.97Z" fill="#FFFFFF" fill-opacity="1.000000" fill-rule="nonzero"/>
	<path id="Shape" d="M63.0463 48.9965C62.0564 49.0178 61.079 48.7725 60.2156 48.286C59.6111 47.9243 59.088 47.4404 58.6798 46.8649C58.1216 46.0563 57.7184 45.1503 57.491 44.1934C56.5568 40.7828 54.094 29.1728 61.8433 23.176C65.6326 20.2594 70.5986 19.3767 75.1549 20.8099C78.3678 21.8544 80.9792 26.2455 82.2318 28.7678C82.6565 29.6205 83.0386 30.5086 83.3995 31.3684C83.9445 32.7492 84.5975 34.0844 85.3528 35.3615C86.0604 36.4628 87.9854 39.0349 90.8799 39.177C91.0367 39.1827 91.1703 39.2934 91.2053 39.4471C91.2468 39.6012 91.1763 39.7635 91.0355 39.8378C89.4647 40.7167 87.637 41.0159 85.8694 40.6834C86.6985 41.1951 87.6932 41.3633 88.6436 41.1523C88.8062 41.1104 88.9757 41.189 89.0494 41.3404C89.1232 41.4919 89.0807 41.6745 88.9479 41.7776C87.681 42.7794 85.8269 43.0494 83.4349 42.5876C83.0103 42.5094 82.5857 42.4099 82.161 42.3105C80.8679 41.9351 79.5209 41.7814 78.1768 41.8557C76.174 42.0831 74.6879 43.2768 73.1097 44.4776C72.5719 44.8968 72.0199 45.3231 71.4467 45.721C69.7977 46.872 66.2593 48.9965 63.0463 48.9965ZM62.2607 23.7657C64.7109 21.8838 67.7106 20.865 70.7955 20.8668C72.2051 20.86 73.6069 21.0758 74.9497 21.5063C78.0353 22.5081 80.6466 27.1549 81.6232 29.1089C82.0691 29.9402 82.4159 30.8213 82.7767 31.6668C83.3348 33.0836 84.007 34.4523 84.7866 35.7594C85.8645 37.6478 87.61 39.0604 89.6768 39.717C88.0546 40.2973 86.2766 40.2594 84.6804 39.6105C84.5356 39.5454 84.3652 39.5896 84.27 39.717C84.1757 39.8434 84.1757 40.017 84.27 40.1434C84.9769 41.0947 86.0254 41.7319 87.1927 41.9197C86.0149 42.1952 84.7897 42.1952 83.6118 41.9197C83.1943 41.8415 82.7767 41.7421 82.3593 41.6497C80.9812 41.2495 79.5448 41.0908 78.113 41.1807C75.9121 41.4294 74.2703 42.7084 72.6851 43.9447C72.1614 44.3568 71.6165 44.7831 71.0645 45.1597C69.4651 46.2468 63.9805 49.6573 60.5693 47.6678C60.0514 47.3623 59.6011 46.9537 59.246 46.467C58.7374 45.7319 58.3702 44.9077 58.1632 44.037C57.2502 40.726 54.8654 29.4997 62.2607 23.7657Z" clip-rule="evenodd" fill="#231F20" fill-opacity="1.000000" fill-rule="evenodd"/>
	<path id="Path" d="M79.55 42.91C79.55 42.91 81.48 48.98 80.47 49.84C79.46 50.7 77.36 49.35 77.36 49.35L79.55 42.91Z" fill="#FFFFFF" fill-opacity="1.000000" fill-rule="nonzero"/>
	<path id="Path" d="M79.62 50.48C78.75 50.41 77.92 50.12 77.19 49.65C77.07 49.58 77.01 49.46 77.01 49.33C77.01 49.19 77.09 49.08 77.21 49.02C77.32 48.96 77.46 48.97 77.57 49.05C78.07 49.36 79.62 50.14 80.26 49.57C80.75 49.15 80.12 45.84 79.21 43.02C79.16 42.84 79.26 42.64 79.45 42.58C79.63 42.51 79.83 42.62 79.89 42.8C80.36 44.28 81.81 49.2 80.72 50.11C80.41 50.37 80.02 50.5 79.62 50.48Z" fill="#231F20" fill-opacity="1.000000" fill-rule="nonzero"/>
	<path id="Path" d="M80.73 35.95C82.38 38.31 80.73 41.85 80.02 44.26C79.04 47.65 77.99 51.02 76.86 54.36C76.15 56.49 70.57 54.95 69.78 54.03L68.26 62.78L56.54 58.7L60.31 48.1C60.31 48.1 64.08 49.19 67.48 45.42C70.88 41.64 73.24 32.02 73.24 32.02C73.24 32.02 79.12 33.64 80.73 35.95Z" fill="#FFFFFF" fill-opacity="1.000000" fill-rule="nonzero"/>
	<path id="Shape" d="M68.2622 63.136L68.1489 63.136L56.4154 59.0789C56.3254 59.0509 56.2511 58.9865 56.2102 58.9013C56.1783 58.8117 56.1783 58.7138 56.2102 58.6242L59.9539 47.9805C60.0144 47.8053 60.201 47.7084 60.3785 47.7603C60.3811 47.7609 60.3846 47.7618 60.3893 47.7629C60.6478 47.8271 64.0505 48.6718 67.1936 45.181C70.3923 41.6284 72.8551 32.0434 72.8551 31.9439C72.8762 31.8509 72.9353 31.771 73.0178 31.7237C73.104 31.6881 73.2007 31.6881 73.2867 31.7237C73.5344 31.7947 79.3163 33.4076 80.9794 35.7879C82.4425 37.9066 81.5144 40.7273 80.7457 43.0638L80.7317 43.1063C80.5831 43.561 80.4415 43.9945 80.3213 44.3995C79.3446 47.7745 78.2831 51.1779 77.1508 54.5103C76.8684 55.1774 76.2424 55.6338 75.5231 55.6968C73.619 55.9089 71.6952 55.5479 69.996 54.6595L68.5807 62.8447C68.5646 62.9474 68.5017 63.0367 68.4108 63.0863C68.3661 63.1151 68.3151 63.1321 68.2622 63.136ZM67.9862 62.3118L56.9886 58.4892L60.5059 48.4992C61.532 48.6982 64.745 48.9468 67.7102 45.6571C70.7957 42.2324 72.9895 34.2887 73.4637 32.4768C74.7517 32.8605 79.1394 34.3384 80.4132 36.1573C81.6711 37.9535 80.8037 40.6086 80.1003 42.7615L80.0736 42.8434C79.9249 43.3123 79.7764 43.7529 79.656 44.165C78.6865 47.5329 77.6179 50.9221 76.4927 54.2402C76.3652 54.6239 75.9972 54.8797 75.3887 55.0005C73.5911 55.3558 70.5267 54.3895 70.0172 53.7997C69.9279 53.6963 69.7874 53.6536 69.6559 53.69C69.5244 53.7264 69.4254 53.8354 69.4016 53.9702L67.9862 62.3118Z" clip-rule="evenodd" fill="#231F20" fill-opacity="1.000000" fill-rule="evenodd"/>
	<path id="Path" d="M77.49 51.8C77.49 51.8 74.41 52.68 73.78 49.56L77.49 51.8Z" fill="#FFFFFF" fill-opacity="1.000000" fill-rule="nonzero"/>
	<path id="Path" d="M76.54 52.27C75.94 52.28 75.34 52.13 74.81 51.83C74.05 51.33 73.53 50.53 73.4 49.63C73.36 49.44 73.49 49.25 73.68 49.21C73.87 49.17 74.06 49.3 74.1 49.49C74.2 50.19 74.58 50.82 75.16 51.22C75.85 51.56 76.63 51.65 77.37 51.46C77.49 51.42 77.63 51.46 77.72 51.55C77.81 51.64 77.85 51.78 77.81 51.91C77.78 52.03 77.68 52.13 77.56 52.17C77.22 52.24 76.88 52.28 76.54 52.27Z" fill="#231F20" fill-opacity="1.000000" fill-rule="nonzero"/>
	<path id="Path" d="M72.45 43.26C72.6 42.38 72.5 41.48 72.16 40.66C71.99 39.99 71.72 39.36 71.37 38.77C71 38.18 70.39 37.79 69.7 37.69C69.08 37.68 68.49 37.94 68.08 38.4C67.67 38.85 67.36 39.38 67.19 39.97C66.36 42.53 66.94 45.34 68.72 47.35L68.59 47.09L72.45 43.26Z" fill="#FFFFFF" fill-opacity="1.000000" fill-rule="nonzero"/>
	<path id="Path" d="M68.72 47.71C68.63 47.7 68.53 47.66 68.46 47.59C66.59 45.47 65.98 42.52 66.85 39.83C67.04 39.19 67.37 38.61 67.83 38.13C68.32 37.6 69.01 37.32 69.73 37.34C70.53 37.43 71.24 37.88 71.66 38.57C72.04 39.18 72.32 39.85 72.5 40.55C72.86 41.44 72.96 42.4 72.8 43.34C72.75 43.53 72.55 43.65 72.36 43.6C72.17 43.55 72.06 43.35 72.11 43.17C72.23 42.35 72.13 41.52 71.82 40.76C71.67 40.13 71.41 39.53 71.07 38.97C70.77 38.47 70.25 38.13 69.66 38.05C69.15 38.04 68.66 38.25 68.31 38.63C67.94 39.03 67.66 39.52 67.5 40.05C66.76 42.33 67.19 44.84 68.65 46.74C68.75 46.77 68.84 46.83 68.89 46.92L69.01 47.18C69.1 47.34 69.05 47.54 68.9 47.63C68.85 47.68 68.79 47.7 68.72 47.71Z" fill="#231F20" fill-opacity="1.000000" fill-rule="nonzero"/>
	<ellipse id="Oval" rx="1.257393" ry="0.500000" transform="matrix(0.218314 -0.975879 0.975879 0.218314 79.2966 39.9852)" fill="#231F20" fill-opacity="1.000000"/>
	<path id="Path" d="M69.77 54.03C68.23 53.03 66.76 51.93 65.36 50.74C65.36 50.74 64.66 56.89 68.85 58.31L69.77 54.03Z" fill="#231F20" fill-opacity="1.000000" fill-rule="nonzero"/>
	<path id="Shape" d="M68.8566 58.6669C68.8192 58.6737 68.7809 58.6737 68.7434 58.6669C64.3416 57.1819 64.9856 50.9861 65.0138 50.7232C65.0293 50.5935 65.1132 50.4822 65.2333 50.4319C65.3551 50.3853 65.4923 50.407 65.5941 50.4888C66.9832 51.6682 68.4437 52.7598 69.9677 53.7572C70.089 53.8376 70.1503 53.9832 70.1234 54.1266L69.2034 58.3898C69.1818 58.4883 69.1202 58.5733 69.0336 58.6243C68.9788 58.6523 68.9181 58.6669 68.8566 58.6669ZM68.6018 57.8285C65.8843 56.6206 65.6862 52.9898 65.6862 51.4693C66.8694 52.4427 68.1024 53.3534 69.3802 54.1977L68.6018 57.8285Z" clip-rule="evenodd" fill="#231F20" fill-opacity="1.000000" fill-rule="evenodd"/>
	<path id="Path" d="M36 119.38C36 119.38 36.64 75.89 43.13 65.88C49.63 55.87 66.49 53.61 74.53 59.58C82.57 65.55 78.7 111.16 78.7 111.16C78.7 111.16 53.06 119.38 36 119.38Z" fill="#E7816B" fill-opacity="1.000000" fill-rule="nonzero"/>
	<path id="Path" d="M68.92 57.02C73.19 58.76 77.19 61.13 80.78 64.05C86.34 68.69 98.08 88.64 98.08 88.64L82.6 98.05L68.7 80.84L68.92 57.02Z" fill="#E7816B" fill-opacity="1.000000" fill-rule="nonzero"/>
	<path id="Path" d="M49.83 59.73C49.83 59.73 41.73 60.64 37.44 69.58C35.12 74.42 29.17 90.07 29.17 90.07L47.05 92.13L49.83 59.73Z" fill="#E7816B" fill-opacity="1.000000" fill-rule="nonzero"/>
	<path id="Path" d="M81.43 96.97C81.32 96.97 81.22 96.91 81.15 96.82L67.34 77.94C67.29 77.86 67.26 77.77 67.28 77.68C67.29 77.58 67.34 77.5 67.41 77.44C67.57 77.33 67.79 77.36 67.91 77.52L81.72 96.4C81.8 96.51 81.81 96.65 81.75 96.77C81.69 96.89 81.57 96.97 81.43 96.97Z" fill="#231F20" fill-opacity="1.000000" fill-rule="nonzero"/>
	<path id="Path" d="M122.65 75.63L126.1 64.86L127.18 65.18L125.01 75.79C125.01 75.79 123.48 77.27 122.65 75.63Z" fill="#231F20" fill-opacity="1.000000" fill-rule="nonzero"/>
	<path id="Shape" d="M123.717 76.764L123.476 76.764C122.963 76.6555 122.536 76.299 122.337 75.8119C122.302 75.7254 122.302 75.6284 122.337 75.5419L125.769 64.7632C125.833 64.5827 126.023 64.4809 126.208 64.5287L127.284 64.8414C127.46 64.8931 127.568 65.0723 127.531 65.2535L125.359 75.9114C125.344 75.9793 125.31 76.0413 125.26 76.089C124.839 76.4864 124.293 76.7249 123.717 76.764ZM123.568 76.0464C123.323 75.9864 123.118 75.8195 123.009 75.5916L126.314 65.3103L126.746 65.4311L124.658 75.6129C124.365 75.8944 123.974 76.05 123.568 76.0464Z" clip-rule="evenodd" fill="#231F20" fill-opacity="1.000000" fill-rule="evenodd"/>
	<path id="Path" d="M57.34 51.26C50.98 49.84 43.9 50.83 38.75 54.81C36.57 56.41 34.93 58.64 34.06 61.21C33.22 63.82 33.71 66.68 35.38 68.87C40.26 74.76 50.98 74.73 57.61 72.8C62.14 71.49 75.53 65.11 71.84 58.85C69.18 54.36 62.12 52.29 57.34 51.26Z" fill="#E7816B" fill-opacity="1.000000" fill-rule="nonzero"/>
	<path id="Path" d="M49.23 73.33C45.01 73.21 40.89 72.02 37.25 69.87C37.17 69.83 37.11 69.75 37.09 69.65C37.07 69.56 37.09 69.46 37.14 69.38C37.25 69.22 37.46 69.17 37.63 69.28C37.71 69.33 46.47 74.8 54.75 71.64C58.73 70.13 61.12 67.44 63.41 64.85C65.94 62.01 68.32 59.32 72.44 58.95C72.53 58.94 72.63 58.97 72.7 59.03C72.77 59.09 72.81 59.18 72.82 59.27C72.83 59.37 72.8 59.46 72.74 59.53C72.68 59.6 72.6 59.65 72.5 59.66C68.67 60 66.47 62.5 63.94 65.34C61.69 67.88 59.14 70.75 55 72.33C53.16 73.01 51.2 73.35 49.23 73.33Z" fill="#231F20" fill-opacity="1.000000" fill-rule="nonzero"/>
	<path id="Path" d="M36.64 103.84C36.54 103.83 36.46 103.79 36.39 103.72C36.33 103.65 36.29 103.56 36.3 103.47C36.81 92.22 39.13 76.03 39.13 75.87C39.16 75.68 39.34 75.55 39.53 75.57C39.72 75.6 39.85 75.78 39.83 75.97C39.83 76.13 37.49 92.31 37 103.5C36.99 103.69 36.83 103.84 36.64 103.84Z" fill="#231F20" fill-opacity="1.000000" fill-rule="nonzero"/>
	<path id="Path" d="M90.91 174.31L105.95 174.31C105.95 174.31 107.58 170.66 111.11 170.15C111.11 170.15 124.82 175.97 122.81 177.16C120.79 178.36 89.85 178.23 89.85 178.23L90.91 174.31Z" fill="#231F20" fill-opacity="1.000000" fill-rule="nonzero"/>
	<path id="Shape" d="M93.0103 178.597L89.8468 178.597C89.7389 178.597 89.6368 178.547 89.5708 178.462C89.5016 178.373 89.4779 178.257 89.5071 178.149L90.5687 174.234C90.6107 174.077 90.7535 173.969 90.9154 173.971L105.734 173.971C106.152 173.154 107.858 170.269 111.063 169.807C111.124 169.79 111.187 169.79 111.247 169.807C114.078 171.001 123.278 175.037 123.37 176.799C123.38 177.071 123.235 177.325 122.995 177.453C121.275 178.49 101.212 178.597 93.0103 178.597ZM122.634 176.863C121.233 177.694 102.72 177.922 90.314 177.886L91.1843 174.674L105.954 174.674C106.093 174.676 106.221 174.596 106.279 174.468C106.294 174.433 107.85 171.044 111.063 170.518C116.64 172.891 122.634 175.982 122.634 176.863Z" clip-rule="evenodd" fill="#231F20" fill-opacity="1.000000" fill-rule="evenodd"/>
	<path id="Path" d="M79.54 139.36C89.12 137.34 95.54 132.84 91.77 126.77C88.01 120.71 60.97 124.64 55.68 120.14C50.39 115.65 52.28 91.79 46.48 87.71C40.68 83.62 15.8 79.49 13.02 84.65C10.24 89.81 13.02 127.35 21.12 135.68C29.23 144.02 70.2 141.3 79.54 139.36Z" fill="#231F20" fill-opacity="1.000000" fill-rule="nonzero"/>
	<path id="Shape" d="M51.4614 141.749L49.8621 141.749C39.1051 141.656 25.3405 140.569 20.8467 135.965C12.8356 127.666 9.70764 90.1148 12.7153 84.5088C13.2319 83.5495 14.4137 82.8461 16.2538 82.3772C23.9463 80.544 41.7307 83.8835 46.6844 87.3509C49.8054 89.5464 50.775 97.0282 51.7162 104.261C52.5725 110.869 53.4572 117.697 55.927 119.808C58.2765 121.811 65.495 122.103 72.4799 122.387C81.0784 122.735 89.974 123.097 92.1042 126.522C93.3356 128.512 93.5762 130.43 92.8119 132.206C91.3965 135.489 86.7399 138.125 79.6417 139.624C74.7657 140.704 62.8481 141.749 51.4614 141.749ZM16.3953 83.1019C18.1176 82.7446 19.8739 82.5802 21.6322 82.6116C30.1174 82.6116 42.4313 85.2903 46.2528 87.9974C49.1261 90.0082 50.0814 97.3693 50.9944 104.418C51.9072 111.466 52.7706 118.124 55.4457 120.412C57.9792 122.579 64.9996 122.863 72.4303 123.161C80.8661 123.502 89.5494 123.851 91.4814 126.963C92.5854 128.746 92.8048 130.444 92.1395 132.007C90.8586 135.034 86.2445 137.592 79.4719 139.013C70.0808 140.967 29.3177 143.639 21.3845 135.461C13.5857 127.417 10.5922 89.9443 13.338 84.8498C13.7485 84.0753 14.7817 83.4856 16.3953 83.1019Z" clip-rule="evenodd" fill="#231F20" fill-opacity="1.000000" fill-rule="evenodd"/>
	<path id="Path" d="M97.31 119.73L97.26 119.73L74.44 115.72C74.25 115.69 74.12 115.51 74.15 115.31C74.18 115.11 74.37 114.98 74.56 115.01L97.38 119.02C97.57 119.04 97.72 119.21 97.7 119.41C97.68 119.61 97.51 119.75 97.31 119.73Z" fill="#D1D3D4" fill-opacity="1.000000" fill-rule="nonzero"/>
	<path id="Path" d="M163.1 166.36L162.39 166.29C162.39 166.08 164.62 145.51 157.53 136.37L158.09 135.94C161.14 139.88 162.92 146.2 163.35 154.73C163.55 158.61 163.46 162.5 163.1 166.36Z" fill="#231F20" fill-opacity="1.000000" fill-rule="nonzero"/>
	<path id="Path" d="M160.65 168.99C160.64 168.75 160.67 168.51 160.72 168.28C162.42 157.51 159.55 152.49 156.85 150.18L157.31 149.64C160.14 152.07 163.17 157.3 161.42 168.39C161.38 168.66 161.35 168.84 161.35 168.91L160.65 168.99Z" fill="#231F20" fill-opacity="1.000000" fill-rule="nonzero"/>
	<path id="Path" d="M156.98 145.61C156.41 145.27 155.76 145.08 155.1 145.06C153.91 144.88 152.7 145.22 151.77 145.97C151.53 146.2 151.33 146.58 151.54 146.83C151.66 146.95 151.82 147.02 151.99 147.04C152.93 147.31 153.67 148.05 153.94 149C153.45 148.64 153.03 148.17 152.52 147.81C152.05 147.42 151.45 147.22 150.83 147.26C150.17 147.42 149.58 147.81 149.18 148.37C148.73 148.86 148.35 149.42 148.06 150.02C147.75 150.63 147.67 151.32 147.8 151.99C148.45 151.8 149.13 151.76 149.79 151.85C150.26 151.9 150.71 152.08 151.08 152.39C151.19 152.47 151.27 152.59 151.31 152.73C151.33 153.01 151.14 153.27 150.86 153.33C150.59 153.4 150.31 153.4 150.04 153.33C149.46 153.21 148.88 153.13 148.29 153.08C148.07 153.06 147.85 153.07 147.63 153.13C147.11 153.42 146.83 154 146.92 154.59C146.91 154.83 147 155.07 147.17 155.24C147.46 155.46 147.88 155.3 148.22 155.16C148.81 154.91 149.45 154.78 150.09 154.76C150.16 154.75 150.23 154.77 150.3 154.8C150.37 154.85 150.42 154.93 150.43 155.01C150.44 155.1 150.42 155.19 150.36 155.26C150.24 155.39 150.08 155.48 149.9 155.52C149.42 155.67 148.92 155.79 148.42 155.87C148.13 155.91 147.79 155.98 147.65 156.24C147.59 156.35 147.57 156.48 147.57 156.61C147.54 157.57 147.82 158.52 148.36 159.32C148.45 159.46 148.56 159.59 148.7 159.68C148.89 159.79 149.11 159.85 149.33 159.86C151.02 160.03 152.72 159.79 154.28 159.14C154.37 159.12 154.44 159.06 154.49 159C154.58 158.83 154.43 158.64 154.31 158.5C153.78 157.85 153.9 156.92 154.05 156.1C154.06 155.95 154.13 155.79 154.24 155.68C154.44 155.54 154.72 155.58 154.87 155.78C155.02 155.97 155.1 156.2 155.11 156.44C155.21 157.28 155.14 158.14 154.91 158.95C155.72 158.76 156.52 158.49 157.28 158.14C157.89 157.9 158.48 157.58 159 157.18C159.54 156.78 159.91 156.2 160.06 155.55C160.09 155.43 160.08 155.3 160.02 155.19C159.97 155.11 159.9 155.05 159.81 155C159.07 154.52 158.49 153.84 158.14 153.03C158.07 152.86 158.03 152.62 158.19 152.54C158.26 152.52 158.33 152.52 158.4 152.54C159.29 152.69 159.74 153.69 160.48 154.22C160.53 154.27 160.61 154.3 160.68 154.31C160.77 154.31 160.86 154.27 160.92 154.2C161.22 153.92 161.42 153.56 161.5 153.16C161.71 152.38 161.67 151.55 161.37 150.8C161.06 150.04 160.42 149.47 159.64 149.24C159.28 149.16 158.91 149.14 158.54 149.19C158.41 149.19 157.73 149.43 157.64 149.35C157.55 149.26 157.91 148.75 157.99 148.58C158.45 147.53 157.84 146.18 156.98 145.61Z" fill="#231F20" fill-opacity="1.000000" fill-rule="nonzero"/>
	<path id="Path" d="M167.67 139.18C166.55 139.17 165.49 139.72 164.84 140.65C164.41 141.39 164.24 142.26 164.35 143.11C164.46 143.95 164.66 144.78 164.96 145.57C165.51 144.57 166.52 143.91 167.66 143.8C168.81 143.71 167.47 144.82 167.27 145.06C166.62 145.82 166 146.61 165.38 147.41C165.2 147.61 165.08 147.85 165.03 148.12C165.03 148.4 165.12 148.68 165.28 148.92C165.75 149.99 166.48 150.92 167.4 151.64C167.65 151.86 168.01 151.92 168.32 151.79C168.46 151.67 168.57 151.51 168.63 151.34C168.97 150.62 169.41 149.96 169.94 149.38C170.07 149.23 170.27 149.08 170.43 149.18C170.6 149.29 170.57 149.45 170.55 149.61L170.41 151.19C170.31 151.76 170.34 152.35 170.51 152.91C170.88 153.92 172.01 154.42 173.07 154.62C173.35 154.7 173.66 154.7 173.94 154.62C174.51 154.42 174.74 153.74 174.84 153.15C174.95 152.37 175.28 151.63 175.77 151.02C175.9 152.05 176.23 153.05 176.74 153.95C177 154.44 177.35 154.87 177.78 155.21C178.24 155.53 178.76 155.75 179.32 155.85C180.25 156.02 181.2 156.07 182.15 156C182.8 156.01 183.45 155.93 184.09 155.75C184.72 155.58 185.27 155.16 185.61 154.6C186.17 153.59 185.74 152.29 185.02 151.39C184.3 150.5 183.32 149.83 182.57 148.96C183.51 149.21 184.38 149.67 185.13 150.29C185.3 150.5 185.56 150.62 185.83 150.62C185.96 150.59 186.07 150.53 186.16 150.43C187.28 149.31 185.99 147.41 185.39 146.41C185.08 145.69 184.52 145.11 183.81 144.77C183.39 144.66 182.95 144.66 182.54 144.77C181.9 144.88 178.74 146.32 180.09 144.42C180.82 143.57 181.9 143.1 183.02 143.14C183.56 143.19 184.39 143.63 184.38 142.6C184.34 142.24 184.2 141.89 183.97 141.6C183.53 140.94 183.06 140.31 182.55 139.7C182.42 139.52 182.24 139.39 182.02 139.33C181.83 139.32 181.65 139.37 181.49 139.48C180.2 140.26 178.77 140.8 177.28 141.05C176.95 141.05 176.47 140.95 176.53 140.61C176.56 140.49 176.64 140.39 176.75 140.32C177.65 139.61 178.99 139.92 179.91 139.26C180.19 139.09 180.37 138.8 180.41 138.47C180.41 137.99 180.02 137.62 179.64 137.32C178.69 136.49 177.52 135.95 176.27 135.75C174.4 135.61 172.73 136.83 171.47 138.23C171.06 138.71 170.77 139.95 170.12 139.87C169.72 139.72 169.32 139.56 168.93 139.36C168.53 139.24 168.1 139.17 167.67 139.18Z" fill="#231F20" fill-opacity="1.000000" fill-rule="nonzero"/>
	<path id="Path" d="M158.66 129.35C158.58 128.63 158.25 127.96 157.73 127.46C156.78 126.59 155.36 126.55 154.09 126.74C153.14 126.95 152.21 127.23 151.31 127.58C150.39 127.84 150.12 128.05 150.94 128.79C151.51 129.31 153.06 131.16 152.35 132.05C151.64 132.94 150.46 130.67 150 130.3C149.39 129.71 148.6 129.37 147.76 129.34C147.03 129.46 146.35 129.82 145.83 130.36C145.28 130.85 144.76 131.37 144.26 131.92C144.18 132 144.12 132.09 144.08 132.19C143.97 132.61 144.53 132.85 144.94 132.91C146.14 133.13 147.48 133.75 147.72 134.94C146.49 135.25 145.33 134 144.07 134.13C143.14 134.36 142.38 135.03 142.05 135.93C141.71 136.73 141.6 137.61 141.74 138.47C142.81 138.1 143.95 138 145.06 138.18C145.19 138.19 145.33 138.25 145.42 138.35C145.53 138.55 145.46 138.79 145.26 138.9C145.07 139 144.85 139.03 144.64 139.01L142.59 139.01C142.39 138.99 142.18 139.03 142.01 139.14C141.87 139.29 141.79 139.48 141.79 139.68C141.65 140.62 141.64 141.57 141.75 142.52C141.77 143.11 142 143.67 142.39 144.1C142.72 144.34 143.09 144.5 143.49 144.56C144.52 144.81 145.58 144.95 146.65 144.96C146.17 144.3 146.06 143.44 146.33 142.67C146.75 141.67 147.48 142.25 147.51 143.15C147.51 143.58 147.43 144 147.42 144.42C147.41 144.5 147.43 144.58 147.46 144.66C147.5 144.71 147.56 144.76 147.63 144.78C148.19 145.09 148.84 145.18 149.47 145.03C149.64 144.99 149.81 144.92 149.95 144.81C150.28 144.41 150.39 143.88 150.25 143.39L149.96 140.82C149.93 140.7 149.95 140.57 150.03 140.47C150.16 140.34 150.39 140.47 150.52 140.57C151.05 141.04 151.33 141.73 151.28 142.44C151.28 142.85 151.11 143.24 151.09 143.63C151.03 144.04 151.19 144.45 151.51 144.71C151.85 144.87 152.24 144.89 152.6 144.76C153.07 144.69 153.51 144.47 153.84 144.12C154.12 143.67 154.21 143.12 154.07 142.61C153.93 142.11 153.83 141.59 153.78 141.07C153.78 140.02 154.85 138.51 155.03 140.36C155.03 140.96 155 141.57 154.92 142.16C154.9 142.24 154.9 142.32 154.92 142.4C155.02 142.52 155.17 142.6 155.32 142.59C156.16 142.66 156.99 142.5 157.74 142.12C158.25 141.87 158.7 141.5 159.05 141.05C159.32 140.68 159.54 140.29 159.71 139.87C160.57 138.04 161.93 136.61 160.34 134.66C159.8 133.99 158.78 133.81 158.28 133.13C157.67 132.32 158.6 131.04 158.64 130.02C158.66 129.8 158.67 129.57 158.66 129.35Z" fill="#231F20" fill-opacity="1.000000" fill-rule="nonzero"/>
	<path id="Path" d="M153.56 164.23L171.6 164.23L170.19 177.83C169.98 179.9 168.24 181.47 166.17 181.47L158.96 181.47C156.89 181.47 155.15 179.9 154.94 177.83L153.56 164.23Z" fill="#FFFFFF" fill-opacity="1.000000" fill-rule="nonzero"/>
	<path id="Shape" d="M166.2 181.851L158.96 181.851C156.7 181.855 154.805 180.137 154.579 177.879L153.164 164.279C153.157 164.178 153.19 164.079 153.256 164.002C153.327 163.924 153.427 163.88 153.532 163.882L171.578 163.882C171.681 163.88 171.78 163.924 171.847 164.002C171.918 164.076 171.952 164.178 171.939 164.279L170.524 177.879C170.303 180.117 168.439 181.829 166.2 181.851ZM155.308 177.808L153.964 164.613L171.203 164.613L169.851 177.808C169.662 179.69 168.083 181.121 166.2 181.119L158.96 181.119C157.076 181.121 155.497 179.69 155.308 177.808Z" clip-rule="evenodd" fill="#231F20" fill-opacity="1.000000" fill-rule="evenodd"/>
	<path id="Path" d="M165.08 164.48C165.08 164.35 163.67 151.34 170.04 140.85L170.65 141.22C164.41 151.49 165.8 164.27 165.81 164.4L165.08 164.48Z" fill="#231F20" fill-opacity="1.000000" fill-rule="nonzero"/>
	<path id="Path" d="M148.69 139.79C148.6 139.79 148.52 139.75 148.45 139.69C148.39 139.62 148.35 139.53 148.35 139.44C148.35 139.34 148.39 139.25 148.45 139.19C152.15 135.28 157.96 132.9 158.21 132.79C158.39 132.72 158.6 132.81 158.67 132.99C158.74 133.17 158.66 133.38 158.47 133.45C158.42 133.45 152.55 135.87 148.96 139.67C148.89 139.75 148.8 139.79 148.69 139.79Z" fill="#FFFFFF" fill-opacity="1.000000" fill-rule="nonzero"/>
	<path id="Path" d="M151.19 157.89C151.06 157.89 150.95 157.83 150.88 157.72C150.82 157.62 150.82 157.49 150.87 157.38C152.22 154.84 153.92 152.52 155.93 150.48C155.99 150.42 156.08 150.38 156.17 150.38C156.27 150.38 156.36 150.42 156.42 150.48C156.56 150.62 156.56 150.84 156.42 150.98C154.47 152.97 152.82 155.23 151.51 157.7C151.45 157.82 151.32 157.89 151.19 157.89Z" fill="#FFFFFF" fill-opacity="1.000000" fill-rule="nonzero"/>
	<path id="Path" d="M181.28 152.86C181.16 152.86 181.05 152.8 180.98 152.71C180.81 152.44 176.73 146.31 171.9 142.69C171.74 142.57 171.71 142.35 171.83 142.19C171.95 142.04 172.17 142.01 172.32 142.12C177.15 145.78 181.13 151.66 181.57 152.31C181.67 152.47 181.63 152.69 181.47 152.8C181.41 152.84 181.34 152.86 181.28 152.86Z" fill="#FFFFFF" fill-opacity="1.000000" fill-rule="nonzero"/>
	<rect id="Rectangle" x="136.441162" y="29.449951" width="42.964001" height="30.282631" fill="#FFFFFF" fill-opacity="1.000000"/>
	<path id="Shape" d="M136.441 60.0879L179.398 60.0879C179.594 60.0879 179.752 59.9288 179.752 59.7326L179.752 29.45C179.752 29.2538 179.594 29.0947 179.398 29.0947L136.441 29.0947C136.246 29.0947 136.087 29.2538 136.087 29.45L136.087 59.7326C136.087 59.9288 136.246 60.0879 136.441 60.0879ZM179.044 59.3773L136.795 59.3773L136.795 29.8053L179.044 29.8053L179.044 59.3773Z" clip-rule="evenodd" fill="#D1D3D4" fill-opacity="1.000000" fill-rule="evenodd"/>
	<path id="Path" d="M164.16 88.48C163.99 88.47 163.84 88.35 163.81 88.18L162.07 76.84L159.03 78.19C158.94 78.23 158.84 78.23 158.75 78.19C158.67 78.16 158.6 78.09 158.56 78C158.52 77.92 158.52 77.82 158.55 77.73C158.59 77.65 158.66 77.58 158.74 77.54L162.22 76.03C162.32 75.98 162.43 75.98 162.53 76.03C162.63 76.09 162.69 76.18 162.71 76.29L164.53 88.05C164.54 88.14 164.52 88.24 164.46 88.32C164.41 88.39 164.32 88.44 164.23 88.45L164.16 88.48Z" fill="#231F20" fill-opacity="1.000000" fill-rule="nonzero"/>
	<path id="Path" d="M170.17 100.65L161.31 100.65L160.82 81.5L170.65 81.5L170.17 100.65Z" fill="#FFFFFF" fill-opacity="1.000000" fill-rule="nonzero"/>
	<path id="Shape" d="M170.17 101L161.309 101C161.12 101 160.963 100.85 160.956 100.659L160.446 81.5174C160.444 81.4224 160.48 81.3306 160.545 81.2616C160.612 81.1917 160.703 81.1508 160.8 81.1479L170.623 81.1479C170.819 81.1591 170.973 81.3203 170.977 81.5174L170.495 100.702C170.469 100.865 170.334 100.989 170.17 101ZM169.844 100.29L161.677 100.29L161.189 81.8514L170.304 81.8514L169.844 100.29Z" clip-rule="evenodd" fill="#231F20" fill-opacity="1.000000" fill-rule="evenodd"/>
	<rect id="Rectangle" x="159.929565" y="79.563477" width="11.620308" height="1.939737" fill="#FFFFFF" fill-opacity="1.000000"/>
	<path id="Shape" d="M159.93 81.8584L171.55 81.8584C171.745 81.8584 171.904 81.6993 171.904 81.5031L171.904 79.5634C171.904 79.3672 171.745 79.2081 171.55 79.2081L159.93 79.2081C159.734 79.2081 159.576 79.3672 159.576 79.5634L159.576 81.5031C159.576 81.6993 159.734 81.8584 159.93 81.8584ZM171.196 81.1479L160.283 81.1479L160.283 79.9187L171.196 79.9187L171.196 81.1479Z" clip-rule="evenodd" fill="#231F20" fill-opacity="1.000000" fill-rule="evenodd"/>
	<path id="Shape" d="M165.931 94.1861C164.188 94.3354 162.533 93.3966 161.76 91.8212C160.988 90.2457 161.257 88.356 162.437 87.0605C163.618 85.765 165.469 85.3289 167.1 85.9617C168.732 86.5946 169.81 88.167 169.816 89.9229C169.912 92.176 168.174 94.0825 165.931 94.1861ZM162.416 88.329C163.079 87.0204 164.476 86.2561 165.931 86.4059C167.784 86.509 169.205 88.0976 169.108 89.9585C169.101 91.4268 168.194 92.7391 166.827 93.2608C165.46 93.7825 163.914 93.4061 162.937 92.3136C161.96 91.2211 161.753 89.6377 162.416 88.329Z" clip-rule="evenodd" fill="#D1D3D4" fill-opacity="1.000000" fill-rule="evenodd"/>
	<path id="Shape" d="M149.052 53.7358C148.185 53.7303 147.324 53.5815 146.505 53.2953C145.433 52.9572 144.397 52.5145 143.412 51.9737C143.171 51.8387 142.938 51.6824 142.704 51.526C141.51 50.7506 140.687 49.5137 140.433 48.1084C140.341 47.5981 140.426 47.0716 140.673 46.6163C141.066 46.0765 141.607 45.6639 142.23 45.4297C142.644 45.2576 143.027 45.0175 143.363 44.7192C144.064 43.9659 143.799 42.8709 143.519 41.7106L143.511 41.6782C143.433 41.3797 143.363 41.0884 143.306 40.8042C142.945 38.9643 143.44 37.0595 144.651 35.6316C145.977 34.1445 147.93 33.3817 149.909 33.5782C152.655 33.8908 154.82 35.2195 155.853 37.216C156.771 39.1113 156.662 41.3461 155.563 43.1418C155.18 43.6834 154.964 44.3256 154.94 44.9892C155.084 45.5746 155.391 46.1068 155.825 46.5239C156.329 47.0379 156.686 47.6784 156.858 48.3784C157.028 49.5437 156.264 50.6592 154.523 51.7889C152.93 52.9651 151.027 53.6424 149.052 53.7358ZM146.731 52.6203C145.703 52.2956 144.71 51.8696 143.766 51.3484L143.766 51.3839C143.547 51.255 143.334 51.1151 143.129 50.9647C142.097 50.3008 141.379 49.2439 141.14 48.0374C141.072 47.6846 141.124 47.319 141.289 47C141.615 46.5824 142.052 46.2648 142.549 46.0834C143.043 45.8711 143.495 45.5728 143.886 45.2024C144.855 44.1656 144.509 42.7527 144.205 41.5098L144.205 41.5076C144.134 41.2234 144.063 40.9392 144.006 40.6692C143.688 39.0451 144.123 37.3637 145.188 36.1005C146.359 34.7824 148.088 34.1063 149.838 34.2816C152.343 34.5729 154.311 35.7595 155.23 37.5429C156.041 39.2486 155.923 41.2522 154.919 42.8505C154.472 43.502 154.238 44.2764 154.247 45.0674C154.402 45.7923 154.763 46.4563 155.287 46.9787C155.704 47.3963 156.007 47.9152 156.165 48.485C156.271 49.3447 155.634 50.2258 154.148 51.1992C152.06 52.5279 149.718 53.6434 146.731 52.6203Z" clip-rule="evenodd" fill="#D1D3D4" fill-opacity="1.000000" fill-rule="evenodd"/>
	<path id="Shape" d="M168.323 53.5298C166.507 53.5052 164.712 53.1313 163.036 52.4284L162.682 52.2863C161.177 51.4221 159.313 51.4937 157.877 52.4711C157.103 52.8722 156.273 53.1526 155.414 53.3024C153.465 53.4738 151.562 52.6453 150.354 51.0997C149.328 49.9491 148.655 48.5255 148.415 47C148.121 45.116 149.082 43.2589 150.786 42.4171C152.428 41.7066 154.176 42.1969 155.875 42.68C157.092 43.1174 158.382 43.3152 159.675 43.2626C160.666 43.096 161.623 42.7646 162.505 42.2821C163.084 41.9929 163.68 41.739 164.289 41.5219C167.12 40.5769 172.59 41.5219 174.742 43.895C175.922 45.1361 176.366 46.9092 175.909 48.5632C175.257 50.7214 173.586 52.4175 171.444 53.0963C170.433 53.4048 169.379 53.551 168.323 53.5298ZM160.658 50.9719L160.489 50.9719C159.481 51.0454 158.501 51.3362 157.615 51.8245C156.908 52.1931 156.149 52.4541 155.365 52.599C153.242 52.869 151.671 51.4763 150.921 50.6308C149.975 49.5822 149.351 48.2821 149.123 46.8863C148.873 45.3207 149.652 43.7708 151.055 43.0424C152.459 42.4189 154.011 42.8622 155.648 43.3297L155.662 43.3337C156.969 43.7993 158.353 44.0068 159.739 43.9447C160.798 43.7575 161.819 43.395 162.76 42.8719C163.314 42.6001 163.883 42.3628 164.466 42.1613C167.056 41.2874 172.229 42.204 174.168 44.3355C175.184 45.4028 175.568 46.9263 175.18 48.35C174.586 50.2721 173.088 51.7782 171.175 52.3787C168.558 53.1008 165.772 52.8821 163.298 51.7605L162.958 51.6184C162.235 51.2698 161.457 51.0509 160.658 50.9719Z" clip-rule="evenodd" fill="#D1D3D4" fill-opacity="1.000000" fill-rule="evenodd"/>
	<path id="Shape" d="M167.318 48.2079C166.362 48.2688 165.432 47.877 164.806 47.1492C164.461 46.8033 164.064 46.5132 163.631 46.2895C163.112 46.0433 162.554 45.8917 161.982 45.8418C160.953 45.8131 159.983 45.3485 159.314 44.5629C158.568 43.5907 158.281 42.3401 158.528 41.1382C158.831 39.5638 159.782 38.1909 161.147 37.3582C164.876 35.1555 171.798 37.4505 174.055 40.7047C174.855 41.8558 175.768 44.1366 172.923 46.4458C171.427 47.5593 169.625 48.1799 167.764 48.2221L167.318 48.2079ZM161.508 37.9337C162.509 37.3937 163.634 37.1289 164.77 37.1663C168.068 37.1663 171.96 38.8929 173.475 41.0813C174.6 42.7368 174.282 44.3924 172.477 45.8632C171.087 46.8649 169.431 47.4266 167.721 47.476C166.819 47.6592 165.889 47.3352 165.294 46.6305C164.46 45.722 163.309 45.1722 162.081 45.0958C161.233 45.0865 160.43 44.7142 159.873 44.0726C159.25 43.2675 159.014 42.2269 159.229 41.2305C159.494 39.859 160.321 38.6626 161.508 37.9337Z" clip-rule="evenodd" fill="#D1D3D4" fill-opacity="1.000000" fill-rule="evenodd"/>
	<path id="Path" d="M59.31 45.62C59.31 45.62 61.6 43.76 59.31 41.35L55.62 41.35C55.62 41.35 56.42 44.46 55.62 45.62L59.31 45.62Z" fill="#231F20" fill-opacity="1.000000" fill-rule="nonzero"/>
	<path id="Shape" d="M59.3169 45.9768L55.6299 45.9768C55.4969 45.9753 55.3752 45.902 55.3114 45.785C55.2441 45.6711 55.2441 45.5294 55.3114 45.4155C55.8846 44.5842 55.467 42.275 55.2548 41.4579C55.2324 41.3493 55.2555 41.2363 55.3185 41.1453C55.3875 41.0593 55.4916 41.0096 55.6016 41.0103L59.2886 41.0103C59.3837 41.0134 59.4742 41.0513 59.5433 41.1168C60.2653 41.7772 60.6721 42.7156 60.6615 43.696C60.5724 44.5499 60.1624 45.3376 59.515 45.8987C59.4584 45.9441 59.3893 45.9714 59.3169 45.9768ZM59.1754 45.2663L56.1819 45.2663C56.3962 44.0892 56.3528 42.8793 56.0544 41.7208L59.14 41.7208C59.6627 42.2234 59.957 42.9196 59.9539 43.6463C59.8945 44.2621 59.6185 44.8365 59.1754 45.2663Z" clip-rule="evenodd" fill="#231F20" fill-opacity="1.000000" fill-rule="evenodd"/>
	<path id="Path" d="M57.31 44.21C57.42 43.37 57.12 42.53 56.51 41.94C56.24 41.59 55.93 41.27 55.58 40.99C54.92 40.56 54.18 40.26 53.4 40.12C51.68 39.71 49.67 40.24 47.91 40.27C46.03 40.31 44.15 39.96 42.41 39.25C41.8 39.05 41.27 38.69 40.84 38.22C40.4 40.8 40.46 43.64 41.94 45.81C43.19 47.44 44.92 48.64 46.89 49.24C49.56 50.32 52.59 49.88 54.84 48.08C55.85 47.32 56.63 46.29 57.09 45.11C57.19 44.81 57.27 44.51 57.31 44.21Z" fill="#FFFFFF" fill-opacity="1.000000" fill-rule="nonzero"/>
	<path id="Shape" d="M49.9613 50.1689C48.8646 50.158 47.778 49.9585 46.7483 49.5792C44.7145 48.962 42.9248 47.7194 41.6317 46.0266C40.3083 44.0868 39.9261 41.4508 40.4852 38.2108C40.5106 38.0733 40.6125 37.9626 40.7471 37.9266C40.8821 37.8927 41.0242 37.943 41.108 38.0545C41.4967 38.4749 41.9829 38.7923 42.5234 38.9781C44.245 39.64 46.0804 39.9516 47.9231 39.8947C48.5034 39.8947 49.105 39.8166 49.7419 39.7455C50.9852 39.5286 52.2565 39.5286 53.4998 39.7455C54.3276 39.8931 55.1172 40.2073 55.8209 40.6692C56.1821 40.9712 56.5117 41.3092 56.8047 41.6782C57.4817 42.3415 57.8047 43.2882 57.6752 44.2289C57.6221 44.5594 57.5343 44.8834 57.4133 45.1953C56.925 46.4368 56.1075 47.5204 55.0496 48.3287C53.6121 49.5065 51.8168 50.1558 49.9613 50.1689ZM42.2191 45.6074C41.0797 43.9234 40.7117 41.7208 41.0797 38.9497C41.4363 39.2178 41.8236 39.442 42.2333 39.6176C44.0331 40.3383 45.9574 40.6933 47.8948 40.6621C48.5034 40.6479 49.1545 40.5768 49.7772 40.5129C50.9481 40.3107 52.1449 40.3107 53.3157 40.5129C54.0481 40.6422 54.7478 40.915 55.3751 41.3158C55.6962 41.5636 55.9902 41.8446 56.2527 42.1542C56.7896 42.6671 57.0522 43.4053 56.9603 44.1437C56.9095 44.4254 56.8313 44.7015 56.7268 44.9679C56.2917 46.0926 55.5574 47.0757 54.6038 47.81C52.4456 49.5208 49.5404 49.941 46.989 48.9113C45.0925 48.341 43.4235 47.1849 42.2191 45.6074Z" clip-rule="evenodd" fill="#231F20" fill-opacity="1.000000" fill-rule="evenodd"/>
	<rect id="Rectangle" x="101.000000" y="25.691284" width="30.048615" height="19.923159" fill="#FFFFFF" fill-opacity="1.000000"/>
	<path id="Shape" d="M101 45.9769L131.049 45.9769C131.242 45.9731 131.399 45.8162 131.402 45.6216L131.402 25.6842C131.399 25.4896 131.242 25.3328 131.049 25.329L101 25.329C100.805 25.329 100.646 25.488 100.646 25.6842L100.646 45.6216C100.646 45.8178 100.805 45.9769 101 45.9769ZM130.723 45.2663L101.326 45.2663L101.354 26.0466L130.723 26.0466L130.723 45.2663Z" clip-rule="evenodd" fill="#D1D3D4" fill-opacity="1.000000" fill-rule="evenodd"/>
	<rect id="Rectangle" x="101.000000" y="45.621582" width="30.048615" height="3.943421" fill="#FFFFFF" fill-opacity="1.000000"/>
	<path id="Shape" d="M101 49.9203L131.049 49.9203C131.244 49.9203 131.402 49.7612 131.402 49.565L131.402 45.6216C131.402 45.4254 131.244 45.2664 131.049 45.2664L101 45.2664C100.805 45.2664 100.646 45.4254 100.646 45.6216L100.646 49.565C100.646 49.7612 100.805 49.9203 101 49.9203ZM130.723 49.2098L101.326 49.2098L101.354 45.9769L130.723 45.9769L130.723 49.2098Z" clip-rule="evenodd" fill="#D1D3D4" fill-opacity="1.000000" fill-rule="evenodd"/>
	<path id="Path" d="M104.43 40.98C104.3 40.98 104.17 40.91 104.11 40.78C104.05 40.66 104.07 40.51 104.16 40.4C104.5 39.98 112.65 29.94 120.25 30.54C123.28 30.78 125.35 32.37 125.79 34.8C126.19 36.94 125.12 39.09 123.16 40.03C121.04 41.02 119.07 41.01 117.7 39.99C116.48 39.02 115.92 37.44 116.24 35.91C116.3 34.59 117.19 33.44 118.45 33.07C119.76 32.72 121.15 33.12 122.08 34.1C122.51 34.57 122.6 35.27 122.31 35.84C121.77 36.88 121.14 37.43 120.41 37.46C119.26 37.46 118.41 36.15 118.38 36.09C118.33 36.01 118.31 35.91 118.33 35.82C118.36 35.73 118.42 35.65 118.5 35.6C118.58 35.55 118.67 35.53 118.76 35.56C118.85 35.58 118.93 35.64 118.98 35.72C119.16 36.01 119.75 36.78 120.39 36.75C121.04 36.71 121.4 36.04 121.68 35.51C121.84 35.19 121.78 34.8 121.53 34.55C120.78 33.78 119.68 33.48 118.65 33.75C117.66 34.06 116.97 34.96 116.94 36C116.66 37.27 117.12 38.58 118.11 39.41C119.27 40.27 121 40.26 122.86 39.41C124.53 38.59 125.43 36.74 125.06 34.92C124.68 32.83 122.86 31.46 120.17 31.25C112.97 30.65 104.79 40.74 104.71 40.85C104.64 40.93 104.54 40.98 104.43 40.98Z" fill="#D1D3D4" fill-opacity="1.000000" fill-rule="nonzero"/>
	<path id="Shape" d="M104.595 64.145L116.173 64.145C116.368 64.145 116.527 63.9859 116.527 63.7897L116.527 54.5529C116.527 54.3567 116.368 54.1976 116.173 54.1976L104.595 54.1976C104.4 54.1976 104.241 54.3567 104.241 54.5529L104.241 63.7897C104.241 63.9859 104.4 64.145 104.595 64.145ZM115.819 63.4345L104.949 63.4345L104.949 54.9082L115.819 54.9082L115.819 63.4345Z" clip-rule="evenodd" fill="#D1D3D4" fill-opacity="1.000000" fill-rule="evenodd"/>
	<path id="Path" d="M110.38 56.23C110.18 56.23 110.03 56.07 110.03 55.88L110.03 53.67C110.03 53.47 110.18 53.31 110.38 53.31C110.57 53.31 110.73 53.47 110.73 53.67L110.73 55.86C110.74 55.96 110.7 56.05 110.63 56.12C110.57 56.19 110.48 56.23 110.38 56.23Z" fill="#D1D3D4" fill-opacity="1.000000" fill-rule="nonzero"/>
</svg>
