<svg width="202" height="202" fill="none" xmlns="http://www.w3.org/2000/svg"><defs><linearGradient x1="-101" y1="101" x2="101" y2="101" id="a" gradientUnits="userSpaceOnUse"><stop stop-color="#5D0202" stop-opacity="0"/><stop offset="1" stop-color="#5D0202" stop-opacity=".498"/></linearGradient></defs><g opacity=".203" transform="matrix(0 1 1 0 101 101)"><circle r="101" fill="url(#a)"/><circle r="101"/></g><path d="M192.03 166.45H9.96a.354.354 0 0 1 0-.71h182.07a.354.354 0 0 1 0 .71Z" fill="#D1D3D4"/><path fill="#FFF" d="M136.144 104.141h40.643v70.058h-40.643z"/><path d="M176.787 174.554h-40.643a.355.355 0 0 1-.354-.356v-70.057c0-.197.159-.356.354-.356h40.643c.195 0 .354.159.354.356v70.043a.356.356 0 0 1-.354.37Zm-.354-.711h-39.935v-69.347h39.935v69.347Z" clip-rule="evenodd" fill="#231F20" fill-rule="evenodd"/><path fill="#FFF" d="M24.173 104.141h40.643v70.058H24.173z"/><path d="M64.816 174.554H24.173a.355.355 0 0 1-.354-.356v-70.057c0-.197.159-.356.354-.356h40.643c.195 0 .354.159.354.356v70.043a.357.357 0 0 1-.354.37Zm-.354-.711H24.527v-69.347h39.935v69.347Z" clip-rule="evenodd" fill="#231F20" fill-rule="evenodd"/><path d="m143.7 83.82 8.05 16.22h-21.76l13.71-16.22Z" fill="#231F20"/><path d="M151.756 100.403h-21.741a.35.35 0 0 1-.269-.582l13.716-16.222a.33.33 0 0 1 .311-.12.354.354 0 0 1 .276.191l8.039 16.222a.341.341 0 0 1-.332.511Zm-.574-.71h-20.424l12.873-15.22 7.551 15.22Z" clip-rule="evenodd" fill="#231F20" fill-rule="evenodd"/><path d="M81.9 100.04h51.81l18.8-27.65H103.6l-21.7 27.65Z" fill="#231F20"/><path d="M133.717 100.403H81.892a.357.357 0 0 1-.276-.575l21.698-27.654a.346.346 0 0 1 .276-.135h48.909c.13.004.248.077.311.192a.347.347 0 0 1 0 .37l-18.796 27.646a.346.346 0 0 1-.297.156Zm-.163-.71H82.635l21.139-26.944h48.095l-18.315 26.944Z" clip-rule="evenodd" fill="#231F20" fill-rule="evenodd"/><path d="M105.16 75.08 89.67 95.22h38.45l14.55-20.14h-37.51Z" fill="#FFF"/><path d="M128.126 95.579h-38.45a.354.354 0 0 1-.318-.2.378.378 0 0 1 0-.376L104.85 74.86a.346.346 0 0 1 .276-.135h37.507a.34.34 0 0 1 .312.192c.07.112.07.256 0 .369l-14.55 20.143a.347.347 0 0 1-.269.15Zm-.22-.71H90.399l14.939-19.448h36.644l-14.076 19.447Z" clip-rule="evenodd" fill="#231F20" fill-rule="evenodd"/><path d="M116.17 91.55c-.15 0-.29-.1-.33-.24-1.87-5.51-4.46-11.55-5.4-11.69-1.12 0-8.34 5.99-14.75 11.85-.1.08-.23.11-.35.07a.336.336 0 0 1-.24-.26c-.03-.12.01-.25.11-.34 2.22-2.02 13.27-12.02 15.3-12.02h.07c1.82.28 5.02 9.38 5.96 12.16.03.09.03.19-.01.28-.05.08-.12.14-.21.17-.05.02-.1.03-.15.02Z" fill="#D1D3D4"/><path d="M127.72 92.29c-.16 0-.3-.11-.34-.26-1.25-4.44-3.02-9.18-3.86-9.43-.83-.25-4.71 3.27-7.87 6.65a.35.35 0 0 1-.5.01.35.35 0 0 1-.01-.5c1.61-1.73 6.99-7.32 8.59-6.84 1.6.49 3.89 8.35 4.33 9.95.05.19-.06.39-.24.44l-.1-.02Z" fill="#D1D3D4"/><path d="M137.538 85.127c0 .533.686.952 1.557.952.87 0 1.557-.42 1.557-.952 0-.533-.708-.945-1.557-.945s-1.557.412-1.557.945Zm.142 0c0-.42.665-.767 1.415-.767v.02c.75 0 1.38.328 1.38.747 0 .42-.595.774-1.38.774-.786 0-1.415-.355-1.415-.774Z" clip-rule="evenodd" fill="#A7A9AC" fill-rule="evenodd"/><path d="M145.28 78.02h-3.15c-.04-.01-.08-.04-.08-.09 0-.05.04-.09.08-.09h3.15c.02 0 .04.01.06.03.01.01.02.04.02.06 0 .05-.04.09-.08.09Z" fill="#A7A9AC"/><path d="M133.71 100.4c-.07 0-.15-.02-.21-.07a.35.35 0 0 1-.08-.49l10.04-13.83c.05-.08.14-.13.23-.14.09-.02.19.01.26.06.16.12.19.34.08.5L134 100.28a.4.4 0 0 1-.29.12Z" fill="#FFF"/><path d="M114.616 78.647a1.56 1.56 0 0 0 1.557 1.563c.86 0 1.557-.7 1.557-1.563a1.56 1.56 0 0 0-1.557-1.563c-.86 0-1.557.7-1.557 1.563Zm.708 0a.85.85 0 0 1 1.452-.605.85.85 0 0 1 .246.605.85.85 0 0 1-.849.852.85.85 0 0 1-.849-.852Z" clip-rule="evenodd" fill="#D1D3D4" fill-rule="evenodd"/><path fill="#FFF" d="M18.773 100.652h159.74v6.8H18.773z"/><path d="M18.773 107.807h159.748a.355.355 0 0 0 .354-.355v-6.8a.361.361 0 0 0-.354-.355H18.773a.36.36 0 0 0-.354.355v6.8c0 .196.159.355.354.355Zm159.366-.711H19.127V101H178.14v6.096Z" clip-rule="evenodd" fill="#231F20" fill-rule="evenodd"/><path d="M78.85 137.43c.15.51-8.79 32.72-8.79 32.72l12.49 2.02 14.76-44.51-18.46 9.77Z" fill="#FFF"/><path d="M82.558 172.529H82.5l-12.49-2.018a.362.362 0 0 1-.248-.157.412.412 0 0 1-.043-.291c3.489-12.548 8.683-31.526 8.782-32.592a.355.355 0 0 1 .192-.341l18.463-9.769a.365.365 0 0 1 .397.042.378.378 0 0 1 .106.384l-14.77 44.507a.347.347 0 0 1-.332.235Zm-.227-.754-11.804-1.911h-.014c5.364-19.34 8.272-30.147 8.662-32.187l17.55-9.279-14.394 43.377Z" clip-rule="evenodd" fill="#231F20" fill-rule="evenodd"/><path d="m69.3 168.76-1.9 6.01 29.92 2.32a12.444 12.444 0 0 0-6.8-6.14c-3.11-1.1-6.45-2.4-6.45-2.4l-1.52 3.62-13.25-3.41Z" fill="#231F20"/><path d="m97.32 177.453-29.914-2.324a.354.354 0 0 1-.312-.462l1.904-6.011a.353.353 0 0 1 .425-.234l12.95 3.332 1.416-3.339a.346.346 0 0 1 .453-.192c.035 0 3.376 1.314 6.447 2.394a12.76 12.76 0 0 1 6.999 6.338c.06.108.06.24 0 .348a.34.34 0 0 1-.368.15Zm-.609-.754-28.838-2.245 1.67-5.244 12.923 3.312a.361.361 0 0 0 .417-.214l1.38-3.296c.913.348 3.623 1.385 6.15 2.273a12.153 12.153 0 0 1 6.298 5.414Z" clip-rule="evenodd" fill="#231F20" fill-rule="evenodd"/><path d="m48.31 137.86-2.13 33.93s-7.17.25-8.97 1.52c-1.8 1.26-3.26 6.99-3.26 6.99h2.23s1.31-4.27 2.74-4.78c1.43-.51 9.55-.71 9.55-.71s3.92 1.52 4.55 4.13c.5 2.05.35 2.53.35 2.53h2.48c0-1.17-.17-2.33-.49-3.45-.5-1.42-2.36-3.12-2.36-3.12s4.1.08 5.46.08c1.37 0 2.79 2.62 2.79 2.62h2.67s-2.79-4.72-4.59-5.05c-1.81-.34-6.44-1.15-6.44-1.15l-1.26-31.62-3.32-1.92Z" fill="#231F20"/><path d="M55.885 181.837h-2.477a.38.38 0 0 1-.29-.143.37.37 0 0 1-.05-.319 7.548 7.548 0 0 0-.361-2.338c-.53-2.224-3.779-3.652-4.246-3.851-2.3.05-8.259.263-9.37.711-.92.341-2.031 2.97-2.512 4.54a.362.362 0 0 1-.34.256h-2.258a.363.363 0 0 1-.34-.448c.057-.234 1.515-5.869 3.398-7.19 1.663-1.166 7.402-1.5 8.846-1.564l2.08-33.622a.37.37 0 0 1 .184-.291.359.359 0 0 1 .34 0l3.355 1.94c.105.059.172.17.176.291l1.253 31.334c1.033.178 4.628.803 6.157 1.094 1.897.356 4.536 4.718 4.827 5.216a.363.363 0 0 1-.311.54h-2.669a.363.363 0 0 1-.311-.185c-.51-.938-1.642-2.43-2.477-2.43-.963 0-3.298-.043-4.586-.064a8.196 8.196 0 0 1 1.812 2.622 12.7 12.7 0 0 1 .516 3.552.355.355 0 0 1-.346.349Zm-.375-.711h-1.734c-.063-.769-.2-1.531-.41-2.274-.666-2.756-4.6-4.305-4.77-4.369h-.135c-.333 0-8.33.22-9.674.71-1.345.49-2.505 3.752-2.831 4.754H34.44c.503-1.805 1.734-5.45 3.008-6.345 1.401-.96 6.815-1.35 8.783-1.421a.355.355 0 0 0 .34-.334l2.059-33.395 2.689 1.556 1.238 31.419c.005.171.13.314.298.341.056.008 4.65.803 6.425 1.137 1.19.221 3.072 2.849 4.02 4.349h-1.826c-.382-.661-1.642-2.615-2.993-2.615-1.352 0-5.414-.085-5.456-.085a.381.381 0 0 0-.34.227.364.364 0 0 0 .092.391c.021.021 1.804 1.641 2.264 2.97.287.969.444 1.973.468 2.984Z" clip-rule="evenodd" fill="#231F20" fill-rule="evenodd"/><path d="M89.23 116.21s28.26 1.52 30.05 5.56c1.78 4.04-11.33 48.5-11.33 48.5s13.84 4.8 11.57 5.81c-2.26 1.01-24.91-1.01-24.91-1.01l10.74-41.21-27.97-1.89 11.85-15.76Z" fill="#FFF"/><path d="M115.968 176.728c-6.638 0-19.54-1.13-21.358-1.293a.36.36 0 0 1-.262-.15.362.362 0 0 1-.05-.298l10.616-40.763-27.544-1.861a.384.384 0 0 1-.297-.206.35.35 0 0 1 .043-.363l11.853-15.788a.306.306 0 0 1 .297-.142c.071 0 7.162.384 14.381 1.265 14.784 1.79 15.682 3.83 15.979 4.505 1.749 3.971-9.907 44.052-11.195 48.422 3.758 1.314 11.684 4.263 11.74 5.72a.658.658 0 0 1-.46.639 12.98 12.98 0 0 1-3.743.313Zm3.439-.966c-1.748.781-17.756-.42-24.323-1.002l10.629-40.763a.409.409 0 0 0-.056-.299.367.367 0 0 0-.269-.142l-27.317-1.854 11.323-15.113c7.94.433 28.138 2.117 29.553 5.336 1.416 3.219-7.7 35.931-11.323 48.259a.355.355 0 0 0 .22.44c5.279 1.827 11.096 4.278 11.563 5.138Z" clip-rule="evenodd" fill="#231F20" fill-rule="evenodd"/><path d="M79.64 90.95s14.52 18.19 20.73 17.68c6.2-.5 23.98-22.93 23.98-22.93 3.21-3.85 6.81-8.74 4.51-14.04-.23-.51-.63-1.06-1.18-1.02-.23.04-.45.13-.64.26l-1.98 1.23c.06-.55-.63-.94-1.16-.79-.52.2-.95.58-1.22 1.06-2.06 2.94-3.39 5.74-3.28 9.37L98.62 92.43l-8.24-9.16-10.74 7.68Z" fill="#FFF"/><path d="M100.12 109c-6.45 0-20.17-17.06-20.76-17.83a.36.36 0 0 1 .08-.48c.14-.11.35-.1.47.04.14.18 14.1 17.56 20.19 17.56h.24c5.98-.48 23.54-22.57 23.71-22.8 3.32-3.96 6.67-8.61 4.47-13.68-.09-.2-.38-.83-.82-.8-.18.03-.35.11-.49.21l-2 1.22c-.11.07-.26.07-.37 0a.373.373 0 0 1-.17-.34.281.281 0 0 0-.12-.27.72.72 0 0 0-.58-.14c-.44.19-.8.52-1.03.93-1.74 2.49-3.33 5.32-3.21 9.16 0 .13-.07.26-.19.32L98.76 92.76c-.14.07-.32.04-.43-.08l-8.23-9.17a.358.358 0 0 1-.11-.25c0-.1.04-.19.11-.26a.37.37 0 0 1 .5 0l8.05 8.94L119 81.53c-.06-3.93 1.56-6.82 3.34-9.35.32-.56.82-.99 1.41-1.21.44-.11.9 0 1.24.29.1.08.18.18.24.29l1.59-.97c.24-.17.52-.28.81-.32.61-.04 1.16.41 1.51 1.23 2.56 5.9-2.07 11.44-4.56 14.42-.7.91-17.92 22.55-24.21 23.06l-.25.03Z" fill="#231F20"/><path d="M32.1 87.84s-7.48 17.02-4.71 18.84c2.78 1.82 19.66 0 19.66 0l-1.46-22.03-13.49 3.19Z" fill="#FFF"/><path d="M33.81 107.8c-3.02 0-5.66-.21-6.62-.85-.48-.31-1.95-1.27 1.18-10.49 1.51-4.44 3.38-8.72 3.41-8.76.04-.13.15-.22.28-.24.14-.02.27.04.35.15.07.11.08.26.01.38-2.83 6.47-6.67 17.18-4.84 18.36 2.12 1.42 14.15.49 19.11 0l-1.42-21.68a.37.37 0 0 1 .33-.38c.2-.01.37.14.38.33l1.46 22.03c.02.19-.12.36-.31.38-.5.03-7.63.77-13.32.77Z" fill="#231F20"/><path d="M38.19 116.68s-3.65 8.16.25 13.31c3.89 5.14 58.03 5.76 58.03 5.76l3.88-19.53-22.64-3.1-1.32-6.76-38.2 10.32Z" fill="#FFF"/><path d="M96.485 136.107c-.135 0-13.701-.163-27.6-.952-18.719-1.066-29.065-2.736-30.75-4.974-3.977-5.243-.438-13.315-.283-13.656a.347.347 0 0 1 .234-.199l38.215-10.324a.33.33 0 0 1 .284.043c.08.051.137.133.155.227l1.267 6.516 22.37 3.055a.341.341 0 0 1 .241.149c.056.078.077.176.056.27l-3.843 19.554a.354.354 0 0 1-.346.291Zm-57.762-6.331c-3.44-4.533-.729-11.659-.269-12.789l37.713-10.182 1.238 6.395a.356.356 0 0 0 .298.284l22.25 3.041-3.758 18.879c-18.747-.228-54.486-1.691-57.472-5.628Z" clip-rule="evenodd" fill="#231F20" fill-rule="evenodd"/><path d="M60.37 47.97c-.55-.33-1.03-.77-1.41-1.29-.53-.77-.92-1.62-1.13-2.53-1.92-6.96-1.94-15.88 4.24-20.64 3.7-2.84 8.54-3.7 12.98-2.31 3 .98 5.55 5.12 6.89 7.81 1.09 2.18 1.84 4.56 3.14 6.62 1.3 2.06 3.37 3.86 5.81 3.98a7.315 7.315 0 0 1-6.37.39 4.136 4.136 0 0 0 4.21 1.58c-1.41 1.13-3.44 1.09-5.22.71-1.79-.38-3.54-.94-5.37-.71-2.83.32-4.67 2.41-6.89 3.92-2.81 1.85-7.66 4.34-10.88 2.47Z" fill="#FFF"/><path d="M63.046 48.996a5.524 5.524 0 0 1-2.83-.71 5.083 5.083 0 0 1-1.536-1.421 7.93 7.93 0 0 1-1.189-2.672c-.934-3.41-3.397-15.02 4.352-21.017a14.623 14.623 0 0 1 13.312-2.366c3.213 1.044 5.824 5.436 7.077 7.958.424.852.807 1.74 1.168 2.6a28.135 28.135 0 0 0 1.953 3.994c.707 1.1 2.632 3.673 5.527 3.815.157.006.29.116.325.27a.341.341 0 0 1-.17.39 7.673 7.673 0 0 1-5.166.846c.83.512 1.824.68 2.775.47a.356.356 0 0 1 .304.625c-1.267 1.001-3.121 1.271-5.513.81-.425-.079-.85-.178-1.274-.278a11.929 11.929 0 0 0-3.984-.454c-2.003.227-3.49 1.42-5.067 2.622-.538.419-1.09.845-1.663 1.243-1.65 1.151-5.188 3.276-8.4 3.276Zm-.785-25.23c2.45-1.882 5.45-2.901 8.535-2.9 1.41-.006 2.81.21 4.154.64 3.085 1.002 5.697 5.649 6.673 7.603.446.831.793 1.712 1.154 2.558a28.082 28.082 0 0 0 2.01 4.092 8.648 8.648 0 0 0 4.89 3.958c-1.622.58-3.4.542-4.997-.106a.339.339 0 0 0-.41.106.357.357 0 0 0 0 .426 4.54 4.54 0 0 0 2.923 1.777 7.86 7.86 0 0 1-3.581 0c-.418-.078-.835-.178-1.253-.27a12.432 12.432 0 0 0-4.246-.47c-2.2.25-3.843 1.528-5.428 2.765-.524.412-1.069.838-1.62 1.215-1.6 1.087-7.084 4.497-10.496 2.508a4.415 4.415 0 0 1-1.323-1.201 7.196 7.196 0 0 1-1.083-2.43c-.913-3.311-3.298-14.537 4.098-20.271Z" clip-rule="evenodd" fill="#231F20" fill-rule="evenodd"/><path d="M79.55 42.91s1.93 6.07.92 6.93c-1.01.86-3.11-.49-3.11-.49l2.19-6.44Z" fill="#FFF"/><path d="M79.62 50.48c-.87-.07-1.7-.36-2.43-.83a.36.36 0 0 1-.18-.32c0-.14.08-.25.2-.31.11-.06.25-.05.36.03.5.31 2.05 1.09 2.69.52.49-.42-.14-3.73-1.05-6.55-.05-.18.05-.38.24-.44.18-.07.38.04.44.22.47 1.48 1.92 6.4.83 7.31-.31.26-.7.39-1.1.37Z" fill="#231F20"/><path d="M80.73 35.95c1.65 2.36 0 5.9-.71 8.31-.98 3.39-2.03 6.76-3.16 10.1-.71 2.13-6.29.59-7.08-.33l-1.52 8.75-11.72-4.08 3.77-10.6s3.77 1.09 7.17-2.68c3.4-3.78 5.76-13.4 5.76-13.4s5.88 1.62 7.49 3.93Z" fill="#FFF"/><path d="M68.262 63.136h-.113l-11.734-4.057a.34.34 0 0 1-.205-.178.413.413 0 0 1 0-.277l3.744-10.644a.346.346 0 0 1 .425-.22l.01.003c.259.064 3.661.909 6.805-2.582 3.198-3.553 5.661-13.138 5.661-13.237a.34.34 0 0 1 .163-.22.352.352 0 0 1 .269 0c.247.07 6.03 1.684 7.692 4.064 1.463 2.119.535 4.94-.233 7.276l-.014.042c-.149.455-.29.889-.41 1.294a232.18 232.18 0 0 1-3.171 10.11 1.954 1.954 0 0 1-1.628 1.187 9.627 9.627 0 0 1-5.527-1.038l-1.415 8.186a.334.334 0 0 1-.17.241.317.317 0 0 1-.149.05Zm-.276-.824L56.99 58.489l3.517-9.99c1.026.2 4.239.448 7.204-2.842 3.086-3.425 5.28-11.368 5.754-13.18 1.288.384 5.675 1.861 6.95 3.68 1.257 1.797.39 4.452-.314 6.605l-.026.081c-.15.47-.298.91-.418 1.322a227.427 227.427 0 0 1-3.163 10.075c-.128.384-.496.64-1.104.76-1.798.356-4.862-.61-5.372-1.2a.353.353 0 0 0-.615.17l-1.416 8.342Z" clip-rule="evenodd" fill="#231F20" fill-rule="evenodd"/><path d="M77.49 51.8s-3.08.88-3.71-2.24l3.71 2.24Z" fill="#FFF"/><path d="M76.54 52.27c-.6.01-1.2-.14-1.73-.44a3.19 3.19 0 0 1-1.41-2.2.36.36 0 0 1 .28-.42c.19-.04.38.09.42.28.1.7.48 1.33 1.06 1.73.69.34 1.47.43 2.21.24.12-.04.26 0 .35.09.09.09.13.23.09.36-.03.12-.13.22-.25.26-.34.07-.68.11-1.02.1Z" fill="#231F20"/><path d="M72.45 43.26c.15-.88.05-1.78-.29-2.6a7.14 7.14 0 0 0-.79-1.89c-.37-.59-.98-.98-1.67-1.08-.62-.01-1.21.25-1.62.71-.41.45-.72.98-.89 1.57a7.6 7.6 0 0 0 1.53 7.38l-.13-.26 3.86-3.83Z" fill="#FFF"/><path d="M68.72 47.71a.446.446 0 0 1-.26-.12 8.006 8.006 0 0 1-1.61-7.76c.19-.64.52-1.22.98-1.7a2.48 2.48 0 0 1 1.9-.79c.8.09 1.51.54 1.93 1.23.38.61.66 1.28.84 1.98.36.89.46 1.85.3 2.79-.05.19-.25.31-.44.26a.353.353 0 0 1-.25-.43c.12-.82.02-1.65-.29-2.41-.15-.63-.41-1.23-.75-1.79-.3-.5-.82-.84-1.41-.92-.51-.01-1 .2-1.35.58-.37.4-.65.89-.81 1.42a7.298 7.298 0 0 0 1.15 6.69c.1.03.19.09.24.18l.12.26c.09.16.04.36-.11.45-.05.05-.11.07-.18.08Z" fill="#231F20"/><ellipse rx="1.257" ry=".5" transform="rotate(-77.39 64.608 -29.505)" fill="#231F20"/><path d="M69.77 54.03a42.8 42.8 0 0 1-4.41-3.29s-.7 6.15 3.49 7.57l.92-4.28Z" fill="#231F20"/><path d="M68.857 58.667a.317.317 0 0 1-.114 0c-4.401-1.485-3.757-7.68-3.73-7.944.016-.13.1-.24.22-.291a.367.367 0 0 1 .361.057 43.906 43.906 0 0 0 4.374 3.268c.121.08.182.226.155.37l-.92 4.263a.362.362 0 0 1-.17.234.39.39 0 0 1-.176.043Zm-.255-.839c-2.718-1.207-2.916-4.838-2.916-6.359a43.954 43.954 0 0 0 3.694 2.729l-.778 3.63Z" clip-rule="evenodd" fill="#231F20" fill-rule="evenodd"/><path d="M36 119.38s.64-43.49 7.13-53.5c6.5-10.01 23.36-12.27 31.4-6.3s4.17 51.58 4.17 51.58-25.64 8.22-42.7 8.22Z" fill="#E7816B"/><path d="M68.92 57.02c4.27 1.74 8.27 4.11 11.86 7.03 5.56 4.64 17.3 24.59 17.3 24.59L82.6 98.05 68.7 80.84l.22-23.82ZM49.83 59.73s-8.1.91-12.39 9.85c-2.32 4.84-8.27 20.49-8.27 20.49l17.88 2.06 2.78-32.4Z" fill="#E7816B"/><path d="M81.43 96.97a.36.36 0 0 1-.28-.15L67.34 77.94a.35.35 0 0 1-.06-.26c.01-.1.06-.18.13-.24.16-.11.38-.08.5.08L81.72 96.4c.08.11.09.25.03.37s-.18.2-.32.2ZM122.65 75.63l3.45-10.77 1.08.32-2.17 10.61s-1.53 1.48-2.36-.16Z" fill="#231F20"/><path d="M123.717 76.764h-.241a1.586 1.586 0 0 1-1.139-.952.36.36 0 0 1 0-.27l3.432-10.779a.368.368 0 0 1 .439-.234l1.076.312c.176.052.284.231.247.413l-2.172 10.657a.349.349 0 0 1-.099.178 2.495 2.495 0 0 1-1.543.675Zm-.149-.718a.842.842 0 0 1-.559-.454l3.305-10.282.432.121-2.088 10.182a1.553 1.553 0 0 1-1.09.433Z" clip-rule="evenodd" fill="#231F20" fill-rule="evenodd"/><path d="M57.34 51.26c-6.36-1.42-13.44-.43-18.59 3.55a13.18 13.18 0 0 0-4.69 6.4 8.39 8.39 0 0 0 1.32 7.66c4.88 5.89 15.6 5.86 22.23 3.93 4.53-1.31 17.92-7.69 14.23-13.95-2.66-4.49-9.72-6.56-14.5-7.59Z" fill="#E7816B"/><path d="M49.23 73.33c-4.22-.12-8.34-1.31-11.98-3.46a.31.31 0 0 1-.16-.22.353.353 0 0 1 .54-.37c.08.05 8.84 5.52 17.12 2.36 3.98-1.51 6.37-4.2 8.66-6.79 2.53-2.84 4.91-5.53 9.03-5.9.09-.01.19.02.26.08s.11.15.12.24c.01.1-.02.19-.08.26a.36.36 0 0 1-.24.13c-3.83.34-6.03 2.84-8.56 5.68-2.25 2.54-4.8 5.41-8.94 6.99-1.84.68-3.8 1.02-5.77 1ZM36.64 103.84a.395.395 0 0 1-.25-.12.338.338 0 0 1-.09-.25c.51-11.25 2.83-27.44 2.83-27.6.03-.19.21-.32.4-.3.19.03.32.21.3.4 0 .16-2.34 16.34-2.83 27.53-.01.19-.17.34-.36.34ZM90.91 174.31h15.04s1.63-3.65 5.16-4.16c0 0 13.71 5.82 11.7 7.01-2.02 1.2-32.96 1.07-32.96 1.07l1.06-3.92Z" fill="#231F20"/><path d="M93.01 178.597h-3.163a.35.35 0 0 1-.276-.135.358.358 0 0 1-.064-.313l1.062-3.915a.354.354 0 0 1 .346-.263h14.819c.418-.817 2.124-3.702 5.329-4.164a.338.338 0 0 1 .184 0c2.831 1.194 12.031 5.23 12.123 6.992a.71.71 0 0 1-.375.654c-1.72 1.037-21.783 1.144-29.985 1.144Zm29.624-1.734c-1.401.831-19.914 1.059-32.32 1.023l.87-3.212h14.77a.35.35 0 0 0 .325-.206c.015-.035 1.571-3.424 4.784-3.95 5.577 2.373 11.571 5.464 11.571 6.345Z" clip-rule="evenodd" fill="#231F20" fill-rule="evenodd"/><path d="M79.54 139.36c9.58-2.02 16-6.52 12.23-12.59-3.76-6.06-30.8-2.13-36.09-6.63-5.29-4.49-3.4-28.35-9.2-32.43-5.8-4.09-30.68-8.22-33.46-3.06-2.78 5.16 0 42.7 8.1 51.03 8.11 8.34 49.08 5.62 58.42 3.68Z" fill="#231F20"/><path d="M51.461 141.749h-1.599c-10.757-.093-24.522-1.18-29.015-5.784-8.011-8.299-11.14-45.85-8.132-51.456.517-.96 1.699-1.663 3.539-2.132 7.692-1.833 25.477 1.507 30.43 4.974 3.121 2.195 4.091 9.677 5.032 16.91.856 6.608 1.741 13.436 4.211 15.547 2.35 2.003 9.568 2.295 16.553 2.579 8.598.348 17.494.71 19.624 4.135 1.232 1.99 1.472 3.908.708 5.684-1.415 3.283-6.072 5.919-13.17 7.418-4.876 1.08-16.794 2.125-28.18 2.125ZM16.395 83.102a23.697 23.697 0 0 1 5.237-.49c8.485 0 20.8 2.678 24.62 5.385 2.874 2.011 3.83 9.372 4.742 16.421.913 7.048 1.777 13.706 4.452 15.994 2.533 2.167 9.554 2.451 16.984 2.749 8.436.341 17.12.69 19.051 3.802 1.104 1.783 1.324 3.481.659 5.044-1.281 3.027-5.895 5.585-12.668 7.006-9.391 1.954-50.154 4.626-58.087-3.552-7.8-8.044-10.793-45.517-8.047-50.611.41-.775 1.444-1.364 3.057-1.748Z" clip-rule="evenodd" fill="#231F20" fill-rule="evenodd"/><path d="M97.31 119.73h-.05l-22.82-4.01a.355.355 0 0 1-.29-.41c.03-.2.22-.33.41-.3l22.82 4.01c.19.02.34.19.32.39-.02.2-.19.34-.39.32Z" fill="#D1D3D4"/><path d="m163.1 166.36-.71-.07c0-.21 2.23-20.78-4.86-29.92l.56-.43c3.05 3.94 4.83 10.26 5.26 18.79.2 3.88.11 7.77-.25 11.63Z" fill="#231F20"/><path d="M160.65 168.99c-.01-.24.02-.48.07-.71 1.7-10.77-1.17-15.79-3.87-18.1l.46-.54c2.83 2.43 5.86 7.66 4.11 18.75-.04.27-.07.45-.07.52l-.7.08Z" fill="#231F20"/><path d="M156.98 145.61a3.91 3.91 0 0 0-1.88-.55c-1.19-.18-2.4.16-3.33.91-.24.23-.44.61-.23.86.12.12.28.19.45.21.94.27 1.68 1.01 1.95 1.96-.49-.36-.91-.83-1.42-1.19-.47-.39-1.07-.59-1.69-.55-.66.16-1.25.55-1.65 1.11-.45.49-.83 1.05-1.12 1.65-.31.61-.39 1.3-.26 1.97a4.79 4.79 0 0 1 1.99-.14c.47.05.92.23 1.29.54.11.08.19.2.23.34.02.28-.17.54-.45.6-.27.07-.55.07-.82 0-.58-.12-1.16-.2-1.75-.25-.22-.02-.44-.01-.66.05-.52.29-.8.87-.71 1.46-.01.24.08.48.25.65.29.22.71.06 1.05-.08.59-.25 1.23-.38 1.87-.4.07-.01.14.01.21.04a.317.317 0 0 1 .06.46c-.12.13-.28.22-.46.26-.48.15-.98.27-1.48.35-.29.04-.63.11-.77.37-.06.11-.08.24-.08.37-.03.96.25 1.91.79 2.71.09.14.2.27.34.36.19.11.41.17.63.18 1.69.17 3.39-.07 4.95-.72.09-.02.16-.08.21-.14.09-.17-.06-.36-.18-.5-.53-.65-.41-1.58-.26-2.4.01-.15.08-.31.19-.42.2-.14.48-.1.63.1.15.19.23.42.24.66.1.84.03 1.7-.2 2.51.81-.19 1.61-.46 2.37-.81.61-.24 1.2-.56 1.72-.96.54-.4.91-.98 1.06-1.63a.5.5 0 0 0-.04-.36.554.554 0 0 0-.21-.19 4.448 4.448 0 0 1-1.67-1.97c-.07-.17-.11-.41.05-.49.07-.02.14-.02.21 0 .89.15 1.34 1.15 2.08 1.68.05.05.13.08.2.09.09 0 .18-.04.24-.11.3-.28.5-.64.58-1.04.21-.78.17-1.61-.13-2.36-.31-.76-.95-1.33-1.73-1.56-.36-.08-.73-.1-1.1-.05-.13 0-.81.24-.9.16-.09-.09.27-.6.35-.77.46-1.05-.15-2.4-1.01-2.97ZM167.67 139.18c-1.12-.01-2.18.54-2.83 1.47-.43.74-.6 1.61-.49 2.46.11.84.31 1.67.61 2.46.55-1 1.56-1.66 2.7-1.77 1.15-.09-.19 1.02-.39 1.26-.65.76-1.27 1.55-1.89 2.35-.18.2-.3.44-.35.71 0 .28.09.56.25.8.47 1.07 1.2 2 2.12 2.72.25.22.61.28.92.15.14-.12.25-.28.31-.45.34-.72.78-1.38 1.31-1.96.13-.15.33-.3.49-.2.17.11.14.27.12.43l-.14 1.58c-.1.57-.07 1.16.1 1.72.37 1.01 1.5 1.51 2.56 1.71.28.08.59.08.87 0 .57-.2.8-.88.9-1.47.11-.78.44-1.52.93-2.13.13 1.03.46 2.03.97 2.93.26.49.61.92 1.04 1.26.46.32.98.54 1.54.64.93.17 1.88.22 2.83.15.65.01 1.3-.07 1.94-.25.63-.17 1.18-.59 1.52-1.15.56-1.01.13-2.31-.59-3.21-.72-.89-1.7-1.56-2.45-2.43.94.25 1.81.71 2.56 1.33.17.21.43.33.7.33.13-.03.24-.09.33-.19 1.12-1.12-.17-3.02-.77-4.02-.31-.72-.87-1.3-1.58-1.64-.42-.11-.86-.11-1.27 0-.64.11-3.8 1.55-2.45-.35a3.69 3.69 0 0 1 2.93-1.28c.54.05 1.37.49 1.36-.54-.04-.36-.18-.71-.41-1-.44-.66-.91-1.29-1.42-1.9a.957.957 0 0 0-.53-.37.841.841 0 0 0-.53.15c-1.29.78-2.72 1.32-4.21 1.57-.33 0-.81-.1-.75-.44.03-.12.11-.22.22-.29.9-.71 2.24-.4 3.16-1.06.28-.17.46-.46.5-.79 0-.48-.39-.85-.77-1.15a6.734 6.734 0 0 0-3.37-1.57c-1.87-.14-3.54 1.08-4.8 2.48-.41.48-.7 1.72-1.35 1.64-.4-.15-.8-.31-1.19-.51-.4-.12-.83-.19-1.26-.18ZM158.66 129.35c-.08-.72-.41-1.39-.93-1.89-.95-.87-2.37-.91-3.64-.72-.95.21-1.88.49-2.78.84-.92.26-1.19.47-.37 1.21.57.52 2.12 2.37 1.41 3.26-.71.89-1.89-1.38-2.35-1.75-.61-.59-1.4-.93-2.24-.96-.73.12-1.41.48-1.93 1.02-.55.49-1.07 1.01-1.57 1.56a.8.8 0 0 0-.18.27c-.11.42.45.66.86.72 1.2.22 2.54.84 2.78 2.03-1.23.31-2.39-.94-3.65-.81-.93.23-1.69.9-2.02 1.8-.34.8-.45 1.68-.31 2.54 1.07-.37 2.21-.47 3.32-.29.13.01.27.07.36.17a.4.4 0 0 1-.16.55c-.19.1-.41.13-.62.11h-2.05c-.2-.02-.41.02-.58.13a.79.79 0 0 0-.22.54c-.14.94-.15 1.89-.04 2.84.02.59.25 1.15.64 1.58.33.24.7.4 1.1.46 1.03.25 2.09.39 3.16.4-.48-.66-.59-1.52-.32-2.29.42-1 1.15-.42 1.18.48 0 .43-.08.85-.09 1.27-.01.08.01.16.04.24.04.05.1.1.17.12.56.31 1.21.4 1.84.25.17-.04.34-.11.48-.22.33-.4.44-.93.3-1.42l-.29-2.57a.4.4 0 0 1 .07-.35c.13-.13.36 0 .49.1.53.47.81 1.16.76 1.87 0 .41-.17.8-.19 1.19-.06.41.1.82.42 1.08.34.16.73.18 1.09.05.47-.07.91-.29 1.24-.64.28-.45.37-1 .23-1.51a8.9 8.9 0 0 1-.29-1.54c0-1.05 1.07-2.56 1.25-.71 0 .6-.03 1.21-.11 1.8-.02.08-.02.16 0 .24.1.12.25.2.4.19a4.5 4.5 0 0 0 2.42-.47c.51-.25.96-.62 1.31-1.07.27-.37.49-.76.66-1.18.86-1.83 2.22-3.26.63-5.21-.54-.67-1.56-.85-2.06-1.53-.61-.81.32-2.09.36-3.11.02-.22.03-.45.02-.67Z" fill="#231F20"/><path d="M153.56 164.23h18.04l-1.41 13.6a4.045 4.045 0 0 1-4.02 3.64h-7.21c-2.07 0-3.81-1.57-4.02-3.64l-1.38-13.6Z" fill="#FFF"/><path d="M166.2 181.851h-7.24a4.402 4.402 0 0 1-4.381-3.972l-1.415-13.6a.364.364 0 0 1 .368-.397h18.046a.346.346 0 0 1 .269.12.338.338 0 0 1 .092.277l-1.415 13.6a4.396 4.396 0 0 1-4.324 3.972Zm-10.892-4.043-1.344-13.195h17.239l-1.352 13.195a3.671 3.671 0 0 1-3.651 3.311h-7.24a3.671 3.671 0 0 1-3.652-3.311Z" clip-rule="evenodd" fill="#231F20" fill-rule="evenodd"/><path d="M165.08 164.48c0-.13-1.41-13.14 4.96-23.63l.61.37c-6.24 10.27-4.85 23.05-4.84 23.18l-.73.08Z" fill="#231F20"/><path d="M148.69 139.79c-.09 0-.17-.04-.24-.1a.395.395 0 0 1-.1-.25c0-.1.04-.19.1-.25 3.7-3.91 9.51-6.29 9.76-6.4.18-.07.39.02.46.2a.35.35 0 0 1-.2.46c-.05 0-5.92 2.42-9.51 6.22-.07.08-.16.12-.27.12ZM151.19 157.89c-.13 0-.24-.06-.31-.17a.37.37 0 0 1-.01-.34c1.35-2.54 3.05-4.86 5.06-6.9a.35.35 0 1 1 .49.5c-1.95 1.99-3.6 4.25-4.91 6.72-.06.12-.19.19-.32.19ZM181.28 152.86c-.12 0-.23-.06-.3-.15-.17-.27-4.25-6.4-9.08-10.02a.353.353 0 0 1-.07-.5c.12-.15.34-.18.49-.07 4.83 3.66 8.81 9.54 9.25 10.19.1.16.06.38-.1.49-.06.04-.13.06-.19.06ZM136.441 29.45h42.964v30.283h-42.964z" fill="#FFF"/><path d="M136.441 60.088h42.957c.196 0 .354-.16.354-.355V29.45a.354.354 0 0 0-.354-.355h-42.957a.355.355 0 0 0-.354.355v30.283c0 .196.159.355.354.355Zm42.603-.71h-42.249V29.804h42.249v29.572Z" clip-rule="evenodd" fill="#D1D3D4" fill-rule="evenodd"/><path d="M164.16 88.48a.373.373 0 0 1-.35-.3l-1.74-11.34-3.04 1.35c-.09.04-.19.04-.28 0a.353.353 0 0 1-.19-.19.36.36 0 0 1-.01-.27c.04-.08.11-.15.19-.19l3.48-1.51c.1-.05.21-.05.31 0 .1.06.16.15.18.26l1.82 11.76c.01.09-.01.19-.07.27-.05.07-.14.12-.23.13l-.07.03Z" fill="#231F20"/><path d="M170.17 100.65h-8.86l-.49-19.15h9.83l-.48 19.15Z" fill="#FFF"/><path d="M170.17 101h-8.861a.354.354 0 0 1-.353-.341l-.51-19.142a.362.362 0 0 1 .354-.37h9.823c.196.012.35.173.354.37l-.482 19.185a.354.354 0 0 1-.325.298Zm-.326-.71h-8.167l-.488-18.439h9.115l-.46 18.439Z" clip-rule="evenodd" fill="#231F20" fill-rule="evenodd"/><path fill="#FFF" d="M159.93 79.563h11.62v1.94h-11.62z"/><path d="M159.93 81.858h11.62c.195 0 .354-.159.354-.355v-1.94a.355.355 0 0 0-.354-.355h-11.62a.354.354 0 0 0-.354.355v1.94c0 .196.158.355.354.355Zm11.266-.71h-10.913v-1.23h10.913v1.23Z" clip-rule="evenodd" fill="#231F20" fill-rule="evenodd"/><path d="M165.931 94.186a4.244 4.244 0 0 1-4.171-2.365 4.278 4.278 0 0 1 .677-4.76 4.235 4.235 0 0 1 4.663-1.1 4.262 4.262 0 0 1 2.716 3.962 4.087 4.087 0 0 1-3.885 4.263Zm-3.515-5.857a3.536 3.536 0 0 1 3.515-1.923 3.376 3.376 0 0 1 3.177 3.552 3.551 3.551 0 0 1-2.281 3.303 3.529 3.529 0 0 1-3.89-.947 3.564 3.564 0 0 1-.521-3.985ZM149.052 53.736a7.874 7.874 0 0 1-2.547-.44 17.138 17.138 0 0 1-3.093-1.322c-.241-.135-.474-.292-.708-.448a5.172 5.172 0 0 1-2.271-3.418 2.281 2.281 0 0 1 .24-1.492c.393-.54.934-.952 1.557-1.186a4.046 4.046 0 0 0 1.133-.71c.701-.754.436-1.85.156-3.01l-.008-.032c-.078-.298-.148-.59-.205-.874a6.164 6.164 0 0 1 1.345-5.172 6.22 6.22 0 0 1 5.258-2.054c2.746.313 4.911 1.641 5.944 3.638a6.189 6.189 0 0 1-.29 5.926 3.413 3.413 0 0 0-.623 1.847c.144.586.451 1.118.885 1.535a4.018 4.018 0 0 1 1.033 1.854c.17 1.166-.594 2.281-2.335 3.41a10.005 10.005 0 0 1-5.471 1.948Zm-2.321-1.116a16.276 16.276 0 0 1-2.965-1.272v.036a7.56 7.56 0 0 1-.637-.42 4.525 4.525 0 0 1-1.989-2.927 1.6 1.6 0 0 1 .149-1.037 2.83 2.83 0 0 1 1.26-.917c.494-.212.946-.51 1.337-.88.969-1.037.623-2.45.319-3.693v-.002a23.928 23.928 0 0 1-.199-.839 5.462 5.462 0 0 1 1.182-4.569 5.489 5.489 0 0 1 4.65-1.818c2.505.29 4.473 1.478 5.392 3.26a5.523 5.523 0 0 1-.311 5.308 3.84 3.84 0 0 0-.672 2.217 3.828 3.828 0 0 0 1.04 1.912c.417.417.72.936.878 1.506.106.86-.531 1.74-2.017 2.714-2.088 1.329-4.43 2.444-7.417 1.421Z" clip-rule="evenodd" fill="#D1D3D4" fill-rule="evenodd"/><path d="M168.323 53.53a14.167 14.167 0 0 1-5.287-1.102l-.354-.142a4.528 4.528 0 0 0-4.805.185 8.54 8.54 0 0 1-2.463.831 5.78 5.78 0 0 1-5.06-2.202 8.036 8.036 0 0 1-1.939-4.1 4.36 4.36 0 0 1 2.371-4.583c1.642-.71 3.39-.22 5.089.263 1.217.437 2.507.635 3.8.583a9.01 9.01 0 0 0 2.83-.98c.579-.29 1.175-.544 1.784-.761 2.831-.945 8.301 0 10.453 2.373a4.888 4.888 0 0 1 1.167 4.668 6.82 6.82 0 0 1-4.465 4.533 10.008 10.008 0 0 1-3.121.434Zm-7.665-2.558h-.169a7.01 7.01 0 0 0-2.874.852 8.022 8.022 0 0 1-2.25.775c-2.123.27-3.694-1.123-4.444-1.968a7.36 7.36 0 0 1-1.798-3.745 3.677 3.677 0 0 1 1.932-3.844c1.404-.623 2.956-.18 4.593.288l.014.004c1.307.465 2.691.673 4.077.61a9.69 9.69 0 0 0 3.021-1.072c.554-.272 1.123-.51 1.706-.71 2.59-.875 7.763.042 9.702 2.174a4.216 4.216 0 0 1 1.012 4.014 6.111 6.111 0 0 1-4.005 4.029 11.6 11.6 0 0 1-7.877-.618l-.34-.143a6.845 6.845 0 0 0-2.3-.646Z" clip-rule="evenodd" fill="#D1D3D4" fill-rule="evenodd"/><path d="M167.318 48.208a3.058 3.058 0 0 1-2.512-1.059 4.72 4.72 0 0 0-1.175-.86 4.825 4.825 0 0 0-1.649-.447 3.639 3.639 0 0 1-2.668-1.28 4.229 4.229 0 0 1-.786-3.424 5.685 5.685 0 0 1 2.619-3.78c3.729-2.202 10.651.093 12.908 3.347.8 1.15 1.713 3.432-1.132 5.74a8.98 8.98 0 0 1-5.159 1.777l-.446-.014Zm-5.81-10.274a6.424 6.424 0 0 1 3.262-.768c3.298 0 7.19 1.727 8.705 3.915 1.125 1.656.807 3.311-.998 4.782a8.557 8.557 0 0 1-4.756 1.613 2.52 2.52 0 0 1-2.427-.846 4.763 4.763 0 0 0-3.213-1.534 2.967 2.967 0 0 1-2.208-1.023 3.454 3.454 0 0 1-.644-2.843 4.975 4.975 0 0 1 2.279-3.296Z" clip-rule="evenodd" fill="#D1D3D4" fill-rule="evenodd"/><path d="M59.31 45.62s2.29-1.86 0-4.27h-3.69s.8 3.11 0 4.27h3.69Z" fill="#231F20"/><path d="M59.317 45.977H55.63a.367.367 0 0 1-.319-.192.363.363 0 0 1 0-.37c.574-.83.156-3.14-.056-3.957a.405.405 0 0 1 .063-.313.36.36 0 0 1 .284-.135h3.687a.388.388 0 0 1 .254.107 3.445 3.445 0 0 1 1.118 2.579c-.089.854-.499 1.642-1.146 2.203a.36.36 0 0 1-.198.078Zm-.142-.71h-2.993a8.274 8.274 0 0 0-.128-3.546h3.086c.523.502.817 1.199.814 1.925a2.605 2.605 0 0 1-.779 1.62Z" clip-rule="evenodd" fill="#231F20" fill-rule="evenodd"/><path d="M57.31 44.21c.11-.84-.19-1.68-.8-2.27a5.57 5.57 0 0 0-.93-.95 5.91 5.91 0 0 0-2.18-.87c-1.72-.41-3.73.12-5.49.15-1.88.04-3.76-.31-5.5-1.02-.61-.2-1.14-.56-1.57-1.03-.44 2.58-.38 5.42 1.1 7.59a9.855 9.855 0 0 0 4.95 3.43c2.67 1.08 5.7.64 7.95-1.16a6.817 6.817 0 0 0 2.25-2.97c.1-.3.18-.6.22-.9Z" fill="#FFF"/><path d="M49.961 50.169a9.57 9.57 0 0 1-3.213-.59 10.148 10.148 0 0 1-5.116-3.552c-1.324-1.94-1.706-4.576-1.147-7.816a.362.362 0 0 1 .262-.284.346.346 0 0 1 .361.127c.389.42.875.738 1.415.924 1.722.662 3.557.974 5.4.917.58 0 1.182-.078 1.819-.15a10.933 10.933 0 0 1 3.758 0 6.22 6.22 0 0 1 2.32.924c.362.302.692.64.985 1.01.677.663 1 1.61.87 2.55a4.76 4.76 0 0 1-.262.966 7.31 7.31 0 0 1-2.363 3.134 8.119 8.119 0 0 1-5.089 1.84Zm-7.742-4.562c-1.14-1.684-1.507-3.886-1.14-6.657.357.268.745.492 1.154.668 1.8.72 3.724 1.075 5.662 1.044.608-.014 1.26-.085 1.882-.15a10.396 10.396 0 0 1 3.539 0c.732.13 1.432.403 2.06.804.32.248.614.529.877.838.537.513.8 1.251.707 1.99-.05.281-.129.558-.233.824a6.585 6.585 0 0 1-2.123 2.842 7.647 7.647 0 0 1-7.615 1.101 9.412 9.412 0 0 1-4.77-3.304Z" clip-rule="evenodd" fill="#231F20" fill-rule="evenodd"/><path fill="#FFF" d="M101 25.691h30.049v19.923H101z"/><path d="M101 45.977h30.049a.361.361 0 0 0 .353-.355V25.684a.36.36 0 0 0-.353-.355H101a.355.355 0 0 0-.354.355v19.938c0 .196.159.355.354.355Zm29.723-.71h-29.397l.028-19.22h29.369v19.22Z" clip-rule="evenodd" fill="#D1D3D4" fill-rule="evenodd"/><path fill="#FFF" d="M101 45.622h30.049v3.943H101z"/><path d="M101 49.92h30.049c.195 0 .353-.159.353-.355v-3.943a.354.354 0 0 0-.353-.356H101a.355.355 0 0 0-.354.356v3.943c0 .196.159.355.354.355Zm29.723-.71h-29.397l.028-3.233h29.369v3.233Z" clip-rule="evenodd" fill="#D1D3D4" fill-rule="evenodd"/><path d="M104.43 40.98a.35.35 0 0 1-.32-.2.354.354 0 0 1 .05-.38c.34-.42 8.49-10.46 16.09-9.86 3.03.24 5.1 1.83 5.54 4.26.4 2.14-.67 4.29-2.63 5.23-2.12.99-4.09.98-5.46-.04a4.127 4.127 0 0 1-1.46-4.08c.06-1.32.95-2.47 2.21-2.84 1.31-.35 2.7.05 3.63 1.03.43.47.52 1.17.23 1.74-.54 1.04-1.17 1.59-1.9 1.62-1.15 0-2-1.31-2.03-1.37-.05-.08-.07-.18-.05-.27.03-.09.09-.17.17-.22.08-.05.17-.07.26-.04.09.02.17.08.22.16.18.29.77 1.06 1.41 1.03.65-.04 1.01-.71 1.29-1.24.16-.32.1-.71-.15-.96a2.967 2.967 0 0 0-2.88-.8c-.99.31-1.68 1.21-1.71 2.25-.28 1.27.18 2.58 1.17 3.41 1.16.86 2.89.85 4.75 0a4.094 4.094 0 0 0 2.2-4.49c-.38-2.09-2.2-3.46-4.89-3.67-7.2-.6-15.38 9.49-15.46 9.6-.07.08-.17.13-.28.13Z" fill="#D1D3D4"/><path d="M104.595 64.145h11.578c.195 0 .354-.16.354-.355v-9.237a.355.355 0 0 0-.354-.355h-11.578a.355.355 0 0 0-.354.355v9.237c0 .196.159.355.354.355Zm11.224-.71h-10.87v-8.527h10.87v8.526Z" clip-rule="evenodd" fill="#D1D3D4" fill-rule="evenodd"/><path d="M110.38 56.23c-.2 0-.35-.16-.35-.35v-2.21c0-.2.15-.36.35-.36.19 0 .35.16.35.36v2.19c.01.1-.03.19-.1.26-.06.07-.15.11-.25.11Z" fill="#D1D3D4"/></svg>